<?xml version="1.0" standalone="no"?>
<!DOCTYPE svg PUBLIC "-//W3C//DTD SVG 1.1//EN" "http://www.w3.org/Graphics/SVG/1.1/DTD/svg11.dtd" >
<svg xmlns="http://www.w3.org/2000/svg" xmlns:xlink="http://www.w3.org/1999/xlink" version="1.1">
<metadata>
Created by FontForge 20170731 at Mon Sep  6 21:51:24 2010
 By Aleksey,,,
Copyright (c) 1997 ParaType Inc., ParaType Ltd. All rights reserved.
</metadata>
<defs>
<font id="Magistral-ExtraBoldItalic" horiz-adv-x="400" >
  <font-face 
    font-family="Magistral Extra Bold Italic"
    font-weight="400"
    font-style="italic"
    font-stretch="normal"
    units-per-em="1000"
    panose-1="2 11 9 4 3 2 4 15 3 4"
    ascent="797"
    descent="-203"
    x-height="530"
    cap-height="700"
    bbox="-427 -300 1299 1007"
    underline-thickness="50"
    underline-position="-200"
    slope="-12"
    unicode-range="U+0020-FB02"
  />
<missing-glyph horiz-adv-x="233" 
 />
    <glyph glyph-name="afii10017.var.accented" unicode="&#x410;`" horiz-adv-x="798" 
d="M-57 0l380 623q30 48 65.5 66.5t112.5 18.5q34 0 54.5 -2.5t43 -10.5t35.5 -25.5t19 -46.5l127 -623h-224l-27 144h-248l-85 -144h-253zM462 481l-98 -177h143l-27 177q-3 15 -6 15q-4 0 -12 -15zM622 1007l84 -109l-226 -158l-84 108z" />
    <glyph glyph-name="afii10022.var.accented" unicode="&#x415;`" horiz-adv-x="700" 
d="M777 700l-36 -170h-346q-44 0 -53 -44l-11 -52h382l-33 -154h-382l-14 -66q-2 -12 -2 -16q0 -28 36 -28h350l-36 -170h-510q-43 0 -66 23t-23 60q0 13 3 27l102 480q11 53 46 81.5t87 28.5h506zM598 1007l84 -109l-226 -158l-84 108z" />
    <glyph glyph-name="afii10026.var.accented" unicode="&#x418;`" horiz-adv-x="862" 
d="M774 0h-230l98 411v1l1 2q1 4 1 12q0 11 -7 11q-8 0 -33 -34l-250 -340q-53 -71 -187 -71q-128 0 -128 109q0 26 7 59l115 540h230l-95 -401q-4 -18 -4 -24q0 -11 8 -11t26 25l246 337q60 82 187 82q135 0 135 -120q0 -23 -6 -53zM674 1007l84 -109l-226 -158l-84 108z
" />
    <glyph glyph-name="afii10032.var.accented" unicode="&#x41e;`" horiz-adv-x="830" 
d="M511 708q177 0 256.5 -58.5t79.5 -192.5q0 -60 -11 -127q-15 -91 -39.5 -151.5t-57 -98t-86.5 -57t-112 -25.5t-150 -6q-177 0 -257 58.5t-80 191.5q0 55 12 128q15 91 39.5 151.5t57 98t86.5 57t112 25.5t150 6zM298 360q-11 -52 -11 -94q0 -100 125 -100q89 0 130 37.5
t62 136.5q10 46 10 93q0 101 -124 101q-89 0 -130.5 -38t-61.5 -136zM618 1007l84 -109l-226 -158l-84 108z" />
    <glyph glyph-name="afii10037.var.accented" unicode="&#x423;`" horiz-adv-x="751" 
d="M366 0h-256l155 199l-174 501h242l85 -312l208 312h256zM598 1007l84 -109l-226 -158l-84 108z" />
    <glyph glyph-name="afii10045.var.accented" unicode="&#x42b;`" horiz-adv-x="1087" 
d="M999 0h-226l149 700h226zM36 110l125 590h226l-51 -242h251q93 0 135 -44.5t42 -131.5q0 -38 -7 -74q-16 -81 -38 -122.5t-71.5 -63.5t-138.5 -22h-387q-43 0 -66 23t-23 60q0 13 3 27zM448 284h-149l-14 -66q-2 -12 -2 -16q0 -28 36 -28h105q28 0 40.5 1t27.5 5.5t22 15
t11 28.5q3 13 3 22q0 24 -18.5 31t-61.5 7zM786 1007l84 -109l-226 -158l-84 108z" />
    <glyph glyph-name="afii10047.var.accented" unicode="&#x42d;`" horiz-adv-x="676" 
d="M298 0h-305l36 174h200q96 0 139 20.5t59 83.5h-356l34 158h353q1 5 1 14q0 44 -39.5 60t-125.5 16h-180l37 174h276q266 0 266 -239q0 -64 -14 -131q-20 -94 -46 -153.5t-70 -101t-107.5 -58.5t-157.5 -17zM541 1007l84 -109l-226 -158l-84 108z" />
    <glyph glyph-name="afii10048.var.accented" unicode="&#x42e;`" horiz-adv-x="1158" 
d="M844 708q177 0 254 -58t77 -193q0 -60 -11 -127q-13 -76 -30 -130t-44.5 -92t-58.5 -60.5t-80.5 -35t-100 -16.5t-126.5 -4q-177 0 -254.5 58t-77.5 192q0 26 1 39h-95l-60 -281h-226l149 700h226l-56 -264h86q17 73 42 121.5t57 78.5t83 46t105.5 21t139.5 5zM636 360
q-11 -52 -11 -94q0 -100 120 -100q88 0 127 37t60 137q10 46 10 93q0 101 -119 101q-89 0 -127.5 -37.5t-59.5 -136.5zM822 1007l84 -109l-226 -158l-84 108z" />
    <glyph glyph-name="afii10049.var.accented" unicode="&#x42f;`" horiz-adv-x="790" 
d="M828 590l-126 -590h-226l103 482q1 5 1 14q0 30 -37 30h-129q-47 0 -66.5 -13t-28.5 -57q-5 -22 -5 -40q0 -26 15.5 -37.5t50.5 -11.5h34q88 0 88 -56q0 -11 -3 -23l-4 -16q-13 -50 -68 -104l-173 -168h-271l233 205l1 4h-8q-126 0 -126 177q0 42 11 92q17 80 42 125.5
t75.5 71t133.5 25.5h396q43 0 66.5 -23t23.5 -60q0 -13 -3 -27zM638 1007l84 -109l-226 -158l-84 108z" />
    <glyph glyph-name="afii10023.var.accented" unicode="&#x401;`" horiz-adv-x="700" 
d="M762 756h-142l28 129h142zM335 756h-143l28 129h143zM559 996l87 -73l-188 -202l-87 72zM777 700l-36 -170h-346q-44 0 -53 -44l-11 -52h382l-33 -154h-382l-14 -66q-2 -12 -2 -16q0 -28 36 -28h350l-36 -170h-510q-43 0 -66 23t-23 60q0 13 3 27l102 480
q12 55 43.5 82.5t89.5 27.5h506z" />
    <glyph glyph-name="afii10065.var.accented" unicode="&#x430;`" horiz-adv-x="630" 
d="M144 530h342q77 0 116.5 -37.5t39.5 -101.5q0 -24 -4 -41l-51 -240q-24 -110 -134 -110h-308q-59 0 -89 34.5t-30 94.5q0 32 7 69q16 77 49 105.5t114 28.5h242l2 10q1 5 1 13q0 39 -50 39h-276zM412 208h-139q-38 0 -45 -32q-2 -10 -2 -17q0 -12 7.5 -20.5t20.5 -8.5
h101q22 0 32.5 8.5t15.5 31.5zM520 837l74 -109l-226 -158l-74 108z" />
    <glyph glyph-name="afii10070.var.accented" unicode="&#x435;`" horiz-adv-x="627" 
d="M554 0h-325q-97 0 -142 39t-45 124q0 57 15 125q13 58 26.5 97.5t35 68t43.5 44t61 24.5t77.5 11.5t102.5 2.5q133 0 191.5 -30t58.5 -116q0 -48 -10 -88q-12 -50 -37 -75t-74 -25h-289q-3 -12 -3 -21q0 -25 20.5 -35t65.5 -10h257zM269 326h145q15 0 23.5 4t11 8.5
t4.5 12.5q1 4 1 15q0 34 -80 34q-49 0 -72 -14t-33 -60zM523 837l74 -109l-226 -158l-74 108z" />
    <glyph glyph-name="afii10074.var.accented" unicode="&#x438;`" horiz-adv-x="687" 
d="M620 0h-196l69 275q0 1 0.5 4t0.5 5q0 7 -6 7q-5 0 -21 -16l-218 -225q-55 -56 -129 -56q-37 0 -65.5 17t-28.5 57q0 12 3 26l93 436h196l-68 -275q-1 -4 -1 -9q0 -6 6 -6q4 0 22 15l223 231q48 50 120 50q53 0 74 -24t21 -56q0 -8 -3 -26zM558 837l74 -109l-226 -158
l-74 108z" />
    <glyph glyph-name="afii10080.var.accented" unicode="&#x43e;`" horiz-adv-x="660" 
d="M404 536q139 0 203.5 -43t64.5 -146q0 -53 -10 -102q-14 -67 -33.5 -110.5t-44.5 -72.5t-66 -43.5t-88 -19.5t-121 -5q-139 0 -203 42.5t-64 144.5q0 55 10 104q14 67 33 110.5t44 72.5t66 43.5t88 19.5t121 5zM252 275q-9 -40 -9 -69q0 -36 19.5 -54t66.5 -18
q64 0 91.5 28t41.5 93q9 40 9 69q0 36 -19.5 54t-66.5 18q-64 0 -91.5 -28t-41.5 -93zM535 837l74 -109l-226 -158l-74 108z" />
    <glyph glyph-name="afii10085.var.accented" unicode="&#x443;`" horiz-adv-x="641" 
d="M744 530l-455 -701h-206l125 171l-135 530h190l72 -350l203 350h206zM535 837l74 -109l-226 -158l-74 108z" />
    <glyph glyph-name="afii10093.var.accented" unicode="&#x44b;`" horiz-adv-x="890" 
d="M627 0l113 530h196l-113 -530h-196zM32 105l90 425h196l-36 -168h206q129 0 129 -131q0 -33 -6 -70q-14 -89 -50.5 -125t-129.5 -36h-317q-39 0 -61.5 22.5t-22.5 58.5q0 16 2 24zM253 222l-11 -49q-1 -4 -1 -11q0 -22 34 -22h76q32 0 43.5 5.5t16.5 27.5q3 14 3 23
q0 14 -10 20t-35 6h-116zM660 837l74 -109l-226 -158l-74 108z" />
    <glyph glyph-name="afii10095.var.accented" unicode="&#x44d;`" horiz-adv-x="565" 
d="M290 0h-294l28 136h225q45 0 69 15.5t31 50.5h-301l28 130h298q1 4 1 11q0 51 -81 51h-204l29 136h264q194 0 194 -188q0 -43 -11 -98q-14 -70 -29.5 -111t-46 -74t-78.5 -46t-122 -13zM477 837l74 -109l-226 -158l-74 108z" />
    <glyph glyph-name="afii10096.var.accented" unicode="&#x44e;`" horiz-adv-x="918" 
d="M665 536q139 0 202 -43t63 -146q0 -43 -12 -102q-18 -84 -41 -132.5t-65.5 -75.5t-95.5 -35t-146 -8q-139 0 -202 42.5t-63 144.5q0 19 1 30h-62l-45 -211h-190l113 530h190l-41 -195h59q18 66 41.5 105t65 61t92 28.5t136.5 6.5zM518 275q-9 -40 -9 -69q0 -36 17.5 -54
t63.5 -18q63 0 88.5 27.5t39.5 93.5q9 40 9 69q0 36 -17.5 54t-63.5 18q-63 0 -88.5 -27.5t-39.5 -93.5zM674 837l74 -109l-226 -158l-74 108z" />
    <glyph glyph-name="afii10097.var.accented" unicode="&#x44f;`" horiz-adv-x="633" 
d="M-14 0l177 181q7 7 7 12t-8 5h-5q-30 0 -59 29t-29 91q0 26 6 52q16 78 53.5 119t120.5 41h320q43 0 66.5 -23t23.5 -60q0 -13 -3 -27l-90 -420h-196l75 352q2 12 2 16q0 28 -36 28h-90q-24 0 -34.5 -6t-16.5 -26q-4 -12 -4 -23q0 -13 9 -17.5t29 -4.5h44q54 0 54 -38
q0 -5 -2 -17q-13 -67 -43 -99l-152 -165h-219zM531 837l74 -109l-226 -158l-74 108z" />
    <glyph glyph-name="afii10071.var.accented" unicode="&#x451;`" horiz-adv-x="617" 
d="M535 600l27 128h133l-27 -128h-133zM267 600h-133l27 128h133zM487 846l88 -72l-188 -203l-87 72zM554 0h-325q-97 0 -142 39t-45 124q0 57 15 125q13 58 26.5 97.5t35 68t43.5 44t61 24.5t77.5 11.5t102.5 2.5q133 0 191.5 -30t58.5 -116q0 -48 -10 -88q-12 -50 -37 -75
t-74 -25h-289q-3 -12 -3 -21q0 -25 20.5 -35t65.5 -10h257zM269 326h145q15 0 23.5 4t11 8.5t4.5 12.5q1 4 1 15q0 34 -80 34q-49 0 -72 -14t-33 -60z" />
    <glyph glyph-name="fi" unicode="fi" horiz-adv-x="686" 
d="M241 0h-196l83 390h-79l30 140h79q10 37 27.5 65.5t36 47.5t50.5 32t55.5 19.5t66.5 9.5t68.5 3.5t76.5 0.5l-26 -122q-43 0 -63 -1t-44.5 -6t-36 -17t-15.5 -32h148l-30 -140h-148zM423 0l113 530h196l-113 -530h-196zM743 583h-196l25 117h196z" />
    <glyph glyph-name="fl" unicode="fl" horiz-adv-x="686" 
d="M241 0h-196l83 390h-79l30 140h79q10 37 27.5 65.5t36 47.5t50.5 32t55.5 19.5t66.5 9.5t68.5 3.5t76.5 0.5l-26 -122q-43 0 -63 -1t-44.5 -6t-36 -17t-15.5 -32h148l-30 -140h-148zM423 0l149 700h196l-149 -700h-196z" />
    <glyph glyph-name=".notdef" horiz-adv-x="233" 
 />
    <glyph glyph-name=".null" horiz-adv-x="0" 
 />
    <glyph glyph-name="nonmarkingreturn" horiz-adv-x="333" 
 />
    <glyph glyph-name="space" unicode=" " horiz-adv-x="233" 
 />
    <glyph glyph-name="exclam" unicode="!" horiz-adv-x="328" 
d="M28 0l39 182h196l-39 -182h-196zM272 241h-188l77 459h228z" />
    <glyph glyph-name="quotedbl" unicode="&#x22;" horiz-adv-x="523" 
d="M84 375l57 325h186l-81 -325h-162zM321 375l57 325h186l-81 -325h-162z" />
    <glyph glyph-name="numbersign" unicode="#" horiz-adv-x="903" 
d="M43 0l104 166h-126l77 130h127l74 117h-127l79 130h126l98 157h150l-97 -157h153l97 157h150l-96 -157h126l-78 -130h-127l-73 -117h126l-78 -130h-126l-104 -166h-151l104 166h-153l-105 -166h-150zM529 296l74 117h-154l-74 -117h154z" />
    <glyph glyph-name="dollar" unicode="$" horiz-adv-x="772" 
d="M31 0l37 174h364q61 0 67 26q6 28 -36 39l-242 60q-68 17 -93 72t-7 140q39 189 220 189h110l15 72h96l-15 -72h248l-37 -174h-346q-60 0 -66 -27q-5 -27 46 -39l223 -53q86 -20 109 -67t0 -152q-20 -94 -67.5 -141t-137.5 -47h-121l-15 -72h-96l15 72h-271z" />
    <glyph glyph-name="percent" unicode="%" horiz-adv-x="828" 
d="M117 0l555 700h114l-555 -700h-114zM313 706q75 0 109 -29.5t34 -88.5q0 -36 -8 -72q-19 -90 -62.5 -119.5t-144.5 -29.5q-75 0 -109.5 29t-34.5 89q0 36 8 71q20 90 63.5 120t144.5 30zM216 540q-4 -19 -4 -36q0 -43 49 -43q34 0 51 15.5t25 55.5q4 20 4 38q0 42 -48 42
q-33 0 -50.5 -16t-26.5 -56zM661 333q75 0 109 -29t34 -89q0 -36 -8 -72q-19 -90 -62.5 -119.5t-144.5 -29.5q-75 0 -109.5 29t-34.5 89q0 36 8 71q19 90 63 120t145 30zM564 167q-4 -20 -4 -37q0 -42 49 -42q34 0 51 15.5t25 55.5q4 20 4 37q0 43 -48 43q-34 0 -51.5 -16
t-25.5 -56z" />
    <glyph glyph-name="ampersand" unicode="&#x26;" horiz-adv-x="834" 
d="M754 276l-14 -66q-26 -122 -77.5 -166t-177.5 -44h-260q-84 0 -132 40.5t-48 115.5q0 23 5 55q11 64 45.5 99t102.5 41l1 4q-42 8 -63.5 41t-21.5 80q0 27 6 54q21 102 74 136t170 34h457l-37 -174h-358q-20 0 -30.5 -0.5t-25 -4t-22.5 -12.5t-10 -23q-2 -9 -2 -22
q0 -16 11.5 -24t23 -9t35.5 -1h472l-33 -154h-91zM351 174h110q27 0 38 8.5t17 35.5l12 58h-155q-27 0 -41 -1.5t-30 -12.5t-20 -33q-2 -8 -2 -21q0 -16 12 -24t24 -9t35 -1z" />
    <glyph glyph-name="quotesingle" unicode="'" horiz-adv-x="288" 
d="M85 375l56 325h188l-82 -325h-162z" />
    <glyph glyph-name="parenleft" unicode="(" horiz-adv-x="411" 
d="M243 386l-49 -228q-7 -32 -7 -64q0 -65 38.5 -96.5t118.5 -31.5l-27 -130q-128 0 -200 63t-72 175q0 39 9 84l49 228q38 178 128 250t271 72l-28 -130q-97 0 -153.5 -47t-77.5 -145z" />
    <glyph glyph-name="parenright" unicode=")" horiz-adv-x="411" 
d="M225 158l49 228q7 32 7 63q0 129 -158 129l28 130q128 0 200 -63t72 -175q0 -39 -9 -84l-49 -228q-38 -178 -128 -250t-270 -72l27 130q190 0 231 192z" />
    <glyph glyph-name="asterisk" unicode="*" horiz-adv-x="492" 
d="M68 427l135 70l-106 69l58 77l105 -70l30 140h99l-30 -138l133 69l35 -87l-134 -70l106 -69l-59 -78l-106 70l-29 -139h-99l29 138l-135 -69z" />
    <glyph glyph-name="plus" unicode="+" horiz-adv-x="707" 
d="M391 12h-136l50 235h-236l27 130h236l50 235h136l-50 -235h235l-27 -130h-235z" />
    <glyph glyph-name="comma" unicode="," horiz-adv-x="357" 
d="M103 -163l-119 92l206 256l135 -102z" />
    <glyph glyph-name="hyphen" unicode="-" horiz-adv-x="487" 
d="M41 189l34 158h427l-34 -158h-427z" />
    <glyph glyph-name="period" unicode="." horiz-adv-x="298" 
d="M238 0h-198l38 180h198z" />
    <glyph glyph-name="slash" unicode="/" horiz-adv-x="518" 
d="M53 -170h-139l611 910h140z" />
    <glyph glyph-name="zero" unicode="0" horiz-adv-x="684" 
d="M445 708q141 0 207 -42t66 -144q0 -48 -11 -97l-31 -144q-17 -78 -39 -130t-48.5 -84t-69.5 -48.5t-88 -21.5t-118 -5q-141 0 -207 41t-66 145q0 45 12 103l31 144q20 94 47 150t73 85.5t99 38.5t143 9zM341 172q51 0 73.5 23.5t35.5 85.5l31 144q6 27 6 47
q0 29 -16 42.5t-54 13.5q-50 0 -73 -24t-35 -79l-31 -144q-7 -31 -7 -54q0 -29 16 -42t54 -13z" />
    <glyph glyph-name="one" unicode="1" horiz-adv-x="403" 
d="M89 0l100 468l1 1v2q3 13 3 25q0 30 -34 30h-85l37 174h241q43 0 67 -25t24 -63q0 -12 -3 -26l-125 -586h-226z" />
    <glyph glyph-name="two" unicode="2" horiz-adv-x="677" 
d="M596 0h-495q-42 0 -63.5 29t-21.5 72q0 19 5 41q20 90 89 123l328 156q40 19 47 52q3 15 3 23q0 18 -13 24t-42 6h-288l37 174h396q145 0 145 -143q0 -38 -6 -67q-12 -64 -32 -100.5t-44 -53.5t-75 -40l-234 -105q-12 -5 -12 -8q0 -6 6 -6h308z" />
    <glyph glyph-name="three" unicode="3" horiz-adv-x="689" 
d="M-7 0l35 166h320q40 0 61.5 11t26.5 40q2 16 2 19q0 39 -67 39h-303l32 154h293q73 0 83 52q2 14 2 17q0 36 -62 36h-302l35 166h416q74 0 111 -38t37 -106q0 -31 -5 -56q-15 -70 -43.5 -99.5t-99.5 -39.5l-1 -4q51 -5 78.5 -35.5t27.5 -85.5q0 -31 -5 -57
q-20 -94 -70.5 -136.5t-158.5 -42.5h-443z" />
    <glyph glyph-name="four" unicode="4" horiz-adv-x="769" 
d="M381 0l20 95h-304q-42 0 -61.5 27.5t-19.5 71.5q0 26 6 52q12 49 32 77.5t52 52.5l380 287q59 45 146 45q108 0 108 -77q0 -13 -3 -26l-69 -326h102l-39 -184h-104l-20 -95h-226zM440 279l36 165q0 2 1 5l1 5q0 4 -4 4q-3 0 -15 -10l-201 -150q-9 -9 -9 -13q0 -6 11 -6
h180z" />
    <glyph glyph-name="five" unicode="5" horiz-adv-x="682" 
d="M2 0l36 166h315q33 0 51 10t24 37q3 15 3 24q0 38 -55 38h-201q-100 0 -100 89q0 23 6 52l36 172q13 62 44 87t104 25h470l-35 -166h-317q-18 0 -27.5 -2t-18.5 -12t-14 -30q-4 -15 -4 -27q0 -34 41 -34h143q164 0 164 -156q0 -39 -7 -80q-21 -115 -65.5 -154t-162.5 -39
h-430z" />
    <glyph glyph-name="six" unicode="6" horiz-adv-x="682" 
d="M309 429h196q80 0 120.5 -40.5t40.5 -113.5q0 -30 -6 -64q-8 -44 -16 -72.5t-24.5 -57t-40 -45t-61.5 -26.5t-89 -10h-263q-71 0 -106 34.5t-35 95.5q0 29 7 58l70 327q19 94 69 139.5t144 45.5h412l-35 -166h-293q-34 0 -52.5 -9t-24.5 -37zM277 275l-12 -53
q-3 -14 -3 -23q0 -33 44 -33h52q32 0 48.5 10t21.5 37q3 15 3 24q0 38 -50 38h-104z" />
    <glyph glyph-name="seven" unicode="7" horiz-adv-x="583" 
d="M-29 0l420 497q14 16 14 23q0 6 -23 6h-318l37 174h501q45 0 64.5 -23t19.5 -56q0 -13 -3 -30q-5 -25 -15 -42t-36 -50l-402 -499h-259z" />
    <glyph glyph-name="eight" unicode="8" horiz-adv-x="688" 
d="M404 700h82q114 0 170.5 -34.5t56.5 -118.5q0 -32 -6 -62q-13 -62 -39.5 -88.5t-90.5 -36.5l-1 -4q45 -7 69 -40.5t24 -86.5q0 -22 -7 -59q-10 -47 -28 -79t-39 -50t-57 -27t-69 -11.5t-89 -2.5h-128q-218 0 -218 157q0 25 6 53q16 76 45 105t103 41l1 4q-35 7 -58 41.5
t-23 80.5q0 23 6 50q9 41 22 70.5t35 48t40.5 28.5t55.5 14.5t61.5 5.5t75.5 1zM382 430h32q28 0 41.5 12t19.5 36q2 14 2 22q0 34 -41 34h-32q-51 0 -61 -48q-3 -10 -3 -23q0 -33 42 -33zM322 166h39q33 0 50 10t23 38q3 12 3 25q0 39 -52 39h-40q-33 0 -50 -9.5t-23 -38.5
q-3 -12 -3 -24q0 -40 53 -40z" />
    <glyph glyph-name="nine" unicode="9" horiz-adv-x="682" 
d="M446 271h-196q-80 0 -120.5 40.5t-40.5 114.5q0 33 6 63q9 45 17.5 72.5t25 57t39.5 45t60.5 26t88.5 10.5h263q70 0 105 -37t35 -98q0 -26 -6 -53l-69 -327q-20 -94 -70 -139.5t-144 -45.5h-412l36 166h293q34 0 52 9t24 37zM479 425l11 53q3 14 3 23q0 33 -43 33h-52
q-63 0 -71 -47q-3 -13 -3 -22q0 -40 51 -40h104z" />
    <glyph glyph-name="colon" unicode=":" horiz-adv-x="298" 
d="M294 350h-198l38 180h198zM219 0h-198l39 180h198z" />
    <glyph glyph-name="semicolon" unicode=";" horiz-adv-x="359" 
d="M85 -163l-120 92l207 256l134 -102zM364 356h-196l37 174h196z" />
    <glyph glyph-name="less" unicode="&#x3c;" horiz-adv-x="709" 
d="M83 317l675 310l-30 -148l-399 -168l327 -168l-30 -136z" />
    <glyph glyph-name="equal" unicode="=" horiz-adv-x="708" 
d="M656 151h-608l27 130h608zM699 355h-608l28 130h608z" />
    <glyph glyph-name="greater" unicode="&#x3e;" horiz-adv-x="709" 
d="M692 317l-675 -310l30 148l399 168l-327 168l30 136z" />
    <glyph glyph-name="question" unicode="?" horiz-adv-x="510" 
d="M66 0l39 182h196l-39 -182h-196zM314 241h-196l7 35q10 52 27 75.5t63 51.5l35 21q62 36 68 51q5 13 5 25q0 18 -13.5 22t-46.5 4h-179l37 174h293q139 0 139 -134q0 -27 -4 -52q-12 -67 -35.5 -101.5t-72.5 -64.5l-57 -34q-4 -2 -14.5 -8t-13.5 -8l-10.5 -7t-10.5 -7.5
t-7.5 -7t-6.5 -9t-3 -9.5z" />
    <glyph glyph-name="at" unicode="@" horiz-adv-x="984" 
d="M614 -189h-272q-156 0 -223.5 64.5t-67.5 194.5q0 83 27 207q26 120 54.5 194t77.5 129.5t122 78.5t181 23h176q161 0 231 -66t70 -193q0 -74 -19 -166q-8 -39 -12 -55t-14.5 -53t-20 -55t-27.5 -45t-38 -40t-49.5 -23.5t-64.5 -10.5q-49 0 -86 22t-46 66
q-57 -88 -171 -88q-175 0 -175 179q0 44 11 97q26 123 85.5 184t186.5 61h138q43 0 64 -11.5t21 -46.5q0 -17 -4 -34l-51 -237q-3 -17 -3 -30q0 -54 41 -54q19 0 33.5 14.5t26.5 47t18.5 58t17.5 74.5q18 84 18 150q0 72 -42 106.5t-147 34.5h-184q-63 0 -107.5 -13.5
t-74.5 -36t-52 -67t-36 -91t-30 -123.5q-26 -123 -26 -187q0 -77 41 -111t144 -34h282zM624 366q1 3 1 8q0 24 -35 24h-39q-63 0 -92.5 -36t-45.5 -111q-10 -45 -10 -76q0 -62 56 -62q51 0 90 39.5t51 98.5z" />
    <glyph glyph-name="A" unicode="A" horiz-adv-x="798" 
d="M-57 0l380 623q30 48 65.5 66.5t112.5 18.5q34 0 54.5 -2.5t43 -10.5t35.5 -25.5t19 -46.5l127 -623h-224l-27 144h-248l-85 -144h-253zM462 481l-98 -177h143l-27 177q-3 15 -6 15q-4 0 -12 -15z" />
    <glyph glyph-name="B" unicode="B" horiz-adv-x="775" 
d="M297 277l-12 -57q-3 -14 -3 -23q0 -16 9 -21.5t33 -5.5h127q33 0 52.5 10t25.5 38q2 8 2 21q0 38 -57 38h-177zM342 490l-12 -59h168q35 0 51 8t21 36q2 16 2 22q0 19 -13 26t-41 7h-127q-22 0 -33 -8.5t-16 -31.5zM662 356q95 -20 95 -123q0 -31 -5 -57
q-19 -100 -68 -138t-167 -38h-395q-43 0 -66 23t-23 60q0 13 3 27l102 480q12 55 43.5 82.5t89.5 27.5h365q86 0 125.5 -38t39.5 -115q0 -28 -7 -63q-11 -56 -38 -84t-93 -40z" />
    <glyph glyph-name="C" unicode="C" horiz-adv-x="658" 
d="M604 0h-286q-264 0 -264 247q0 64 13 133q34 183 114 251.5t266 68.5h296l-37 -174h-180q-62 0 -95.5 -4.5t-61.5 -22t-43 -50t-27 -89.5q-11 -53 -11 -93q0 -56 36 -74.5t127 -18.5h190z" />
    <glyph glyph-name="D" unicode="D" horiz-adv-x="779" 
d="M414 0h-292q-43 0 -66 23t-23 60q0 13 3 27l102 480q12 55 43.5 82.5t89.5 27.5h272q132 0 192.5 -61t60.5 -180q0 -69 -11 -139q-29 -184 -107 -252t-264 -68zM339 476l-53 -252q-2 -7 -2 -19q0 -31 41 -31h10q58 0 89.5 4.5t59 22t42.5 50t27 89.5q11 55 11 87
q0 58 -35.5 78.5t-118.5 20.5h-10q-27 0 -41 -11.5t-20 -38.5z" />
    <glyph glyph-name="E" unicode="E" horiz-adv-x="700" 
d="M777 700l-36 -170h-346q-44 0 -53 -44l-11 -52h382l-33 -154h-382l-14 -66q-2 -12 -2 -16q0 -28 36 -28h350l-36 -170h-510q-43 0 -66 23t-23 60q0 13 3 27l102 480q12 55 43.5 82.5t89.5 27.5h506z" />
    <glyph glyph-name="F" unicode="F" horiz-adv-x="676" 
d="M238 0h-226l126 590q12 55 43.5 82.5t89.5 27.5h506l-36 -170h-346q-44 0 -53 -44l-11 -52h305l-37 -170h-305z" />
    <glyph glyph-name="G" unicode="G" horiz-adv-x="760" 
d="M788 526h-302q-87 0 -126.5 -32.5t-60.5 -133.5q-11 -52 -11 -92q0 -53 29 -73.5t94 -20.5h48q44 0 54 44l32 152h226l-55 -260q-11 -52 -46 -81t-88 -29h-264q-264 0 -264 247q0 64 13 133q34 183 114 251.5t266 68.5h378z" />
    <glyph glyph-name="H" unicode="H" horiz-adv-x="806" 
d="M867 700l-149 -700h-226l59 278h-254l-59 -278h-226l149 700h226l-53 -248h254l53 248h226z" />
    <glyph glyph-name="I" unicode="I" horiz-adv-x="326" 
d="M238 0h-226l149 700h226z" />
    <glyph glyph-name="J" unicode="J" horiz-adv-x="532" 
d="M-37 0l37 174h95q90 0 132.5 35t61.5 125l78 366h226l-96 -450q-26 -119 -104.5 -184.5t-198.5 -65.5h-231z" />
    <glyph glyph-name="K" unicode="K" horiz-adv-x="803" 
d="M785 0h-262l-164 271q-15 25 -15 58q0 74 41 117l244 254h268l-304 -299q-33 -31 -33 -61q0 -18 18 -44zM12 0l149 700h226l-149 -700h-226z" />
    <glyph glyph-name="L" unicode="L" horiz-adv-x="666" 
d="M628 0h-506q-43 0 -66 22t-23 59q0 15 3 29l125 590h226l-102 -482q-2 -12 -2 -16q0 -28 36 -28h346z" />
    <glyph glyph-name="M" unicode="M" horiz-adv-x="1072" 
d="M831 424l-179 -338q-12 -23 -22 -37t-27.5 -28.5t-43.5 -21.5t-62 -7t-59 7t-34 21.5t-15.5 28.5t-6.5 37l-37 338q-2 25 -7 25q-11 0 -14 -23l-84 -426h-228l125 585q26 123 190 123q29 0 50 -3t47.5 -13.5t43 -35.5t20.5 -64l37 -340q3 -32 14 -32q12 0 28 32l177 340
q20 39 47.5 64.5t59 35.5t53.5 13t51 3q157 0 157 -93q0 -15 -3 -30l-125 -585h-228l99 426q2 8 2 13q0 10 -6 10q-7 0 -20 -25z" />
    <glyph glyph-name="N" unicode="N" horiz-adv-x="864" 
d="M925 700l-124 -583q-3 -15 -6 -24t-15 -30.5t-28 -34.5t-47.5 -24.5t-71.5 -11.5q-49 0 -83 13t-55 56l-177 357q-7 17 -15 17q-14 0 -18 -20l-89 -415h-184l124 584q27 124 174 124q102 0 134 -65l178 -360q10 -17 16 -17q11 0 14 17l89 417h184z" />
    <glyph glyph-name="O" unicode="O" horiz-adv-x="830" 
d="M511 708q177 0 256.5 -58.5t79.5 -192.5q0 -60 -11 -127q-15 -91 -39.5 -151.5t-57 -98t-86.5 -57t-112 -25.5t-150 -6q-177 0 -257 58.5t-80 191.5q0 55 12 128q15 91 39.5 151.5t57 98t86.5 57t112 25.5t150 6zM298 360q-11 -52 -11 -94q0 -100 125 -100q89 0 130 37.5
t62 136.5q10 46 10 93q0 101 -124 101q-89 0 -130.5 -38t-61.5 -136z" />
    <glyph glyph-name="P" unicode="P" horiz-adv-x="787" 
d="M238 0h-226l126 590q11 53 46 81.5t87 28.5h377q174 0 174 -175q0 -43 -9 -93q-23 -129 -72.5 -179.5t-178.5 -50.5h-281zM318 376h159q49 0 71 12t33 54q5 17 5 36q0 27 -18.5 37.5t-58.5 10.5h-115q-44 0 -53 -44z" />
    <glyph glyph-name="Q" unicode="Q" horiz-adv-x="844" 
d="M509 708q179 0 257.5 -54t78.5 -186q0 -68 -11 -138q-14 -92 -73 -160l-1 -4l81 8l-37 -174h-429q-172 0 -246.5 51.5t-74.5 182.5q0 73 10 136q12 76 29 130t44 92t58 60.5t81 35t102 16.5t131 4zM296 360q-10 -46 -10 -90q0 -96 126 -96q90 0 130 34.5t60 131.5
q11 50 11 94q0 100 -125 100q-89 0 -130 -37.5t-62 -136.5z" />
    <glyph glyph-name="R" unicode="R" horiz-adv-x="789" 
d="M12 0l126 590q11 53 46 81.5t87 28.5h375q177 0 177 -171q0 -46 -8 -87q-7 -39 -13.5 -63.5t-22 -59.5t-35.5 -55.5t-55.5 -35.5t-81.5 -15h-20l-1 -4l145 -209h-252l-116 182q-2 4 -7.5 12.5t-7.5 11t-5.5 9t-4.5 10t-2.5 9t-2 11t-0.5 12.5q0 6 2 20l3 15q17 79 118 79
h34q45 0 66 17t31 62q4 16 4 32q0 25 -15.5 34.5t-52.5 9.5h-129q-44 0 -53 -44l-103 -482h-226z" />
    <glyph glyph-name="S" unicode="S" horiz-adv-x="702" 
d="M-10 0l36 174h388q45 0 45 27q0 8 -6 14t-12.5 8.5t-20.5 7.5l-234 76q-101 34 -101 151q0 41 8 78q18 86 63 125t139 39h462l-37 -174h-356q-54 0 -54 -27q0 -9 6.5 -15.5t12 -8.5t18.5 -5.5t15 -4.5l203 -63q66 -21 97 -56t31 -95q0 -35 -9 -78q-20 -94 -64.5 -133.5
t-145.5 -39.5h-484z" />
    <glyph glyph-name="T" unicode="T" horiz-adv-x="726" 
d="M438 0h-226l112 526h-250l37 174h726l-37 -174h-250z" />
    <glyph glyph-name="U" unicode="U" horiz-adv-x="794" 
d="M397 174q62 0 97.5 29t49.5 95l86 402h226l-90 -420q-19 -89 -50.5 -146t-81.5 -88t-109 -42.5t-147 -11.5q-149 0 -231.5 53.5t-82.5 162.5q0 38 8 72l90 420h226l-86 -402q-5 -27 -5 -44q0 -80 100 -80z" />
    <glyph glyph-name="V" unicode="V" horiz-adv-x="798" 
d="M324 700l63 -475q1 -15 9 -15q9 0 17 15l265 475h252l-370 -595q-33 -54 -78.5 -83.5t-121.5 -29.5t-109 30t-43 83l-116 595h232z" />
    <glyph glyph-name="W" unicode="W" horiz-adv-x="1168" 
d="M363 274l181 358q39 76 145 76q107 0 113 -76l29 -358q0 -17 7 -17q6 0 17 21l206 422h238l-291 -563q-44 -86 -87.5 -115.5t-114.5 -29.5q-75 0 -103.5 29.5t-33.5 91.5l-24 304q0 18 -6 18t-14 -18l-154 -304q-31 -62 -72 -91.5t-115 -29.5q-70 0 -102 30t-40 115
l-51 563h222l26 -422q1 -21 9 -21q5 0 15 17z" />
    <glyph glyph-name="X" unicode="X" horiz-adv-x="746" 
d="M732 0h-256l-85 197l-169 -197h-283l340 355l-184 345h256l79 -187l159 187h284l-330 -345z" />
    <glyph glyph-name="Y" unicode="Y" horiz-adv-x="792" 
d="M433 398l238 302h252l-410 -506l-42 -194h-226l42 194l-196 506h232z" />
    <glyph glyph-name="Z" unicode="Z" horiz-adv-x="679" 
d="M630 0h-528q-119 0 -119 77q0 16 2 25q17 78 99 143l326 256q13 10 13 19q0 6 -16 6h-298l37 174h533q91 0 91 -72q0 -14 -3 -31q-9 -43 -26 -68t-60 -58l-348 -273q-13 -11 -13 -16q0 -8 10 -8h337z" />
    <glyph glyph-name="bracketleft" unicode="[" horiz-adv-x="411" 
d="M283 578l-130 -612h191l-27 -130h-330l184 872h331l-28 -130h-191z" />
    <glyph glyph-name="backslash" unicode="\" horiz-adv-x="518" 
d="M341 -170l-224 910h120l224 -910h-120z" />
    <glyph glyph-name="bracketright" unicode="]" horiz-adv-x="411" 
d="M184 -34l130 612h-191l28 130h331l-185 -872h-330l27 130h190z" />
    <glyph glyph-name="asciicircum" unicode="^" horiz-adv-x="612" 
d="M544 505l-121 117q-17 15 -33 15q-15 0 -39 -15l-180 -117l-64 92l225 137q35 21 67 21q36 0 59 -21l161 -147z" />
    <glyph glyph-name="underscore" unicode="_" horiz-adv-x="660" 
d="M-62 -164l33 158h659l-33 -158h-659z" />
    <glyph glyph-name="grave" unicode="`" 
d="M260 827l158 -159l-110 -98l-158 158z" />
    <glyph glyph-name="a" unicode="a" horiz-adv-x="630" 
d="M144 530h342q77 0 116.5 -37.5t39.5 -101.5q0 -24 -4 -41l-51 -240q-24 -110 -134 -110h-308q-59 0 -89 34.5t-30 94.5q0 32 7 69q16 77 49 105.5t114 28.5h242l2 10q1 5 1 13q0 39 -50 39h-276zM412 208h-139q-38 0 -45 -32q-2 -10 -2 -17q0 -12 7.5 -20.5t20.5 -8.5
h101q22 0 32.5 8.5t15.5 31.5z" />
    <glyph glyph-name="b" unicode="b" horiz-adv-x="626" 
d="M353 0h-234q-43 0 -66 23t-23 60q0 13 3 27l125 590h196l-36 -170h128q98 0 145 -52.5t47 -142.5q0 -47 -8 -90q-16 -86 -43 -136.5t-84 -79.5t-150 -29zM288 390l-42 -200q-3 -15 -3 -24q0 -15 9.5 -20.5t32.5 -5.5h36q50 0 73 31.5t36 89.5q6 34 6 59q0 70 -58 70h-90z
" />
    <glyph glyph-name="c" unicode="c" horiz-adv-x="551" 
d="M507 0h-275q-190 0 -190 197q0 47 7 87q11 66 27 107.5t46 75t79.5 48.5t123.5 15h284l-30 -140h-194q-59 0 -91 -27.5t-45 -88.5q-6 -26 -6 -56q0 -78 89 -78h205z" />
    <glyph glyph-name="d" unicode="d" horiz-adv-x="626" 
d="M449 0h-214q-98 0 -145.5 52t-47.5 142q0 43 9 91q13 64 30.5 106.5t48.5 75.5t79.5 48t118.5 15h148l36 170h196l-125 -590q-24 -110 -134 -110zM404 190l42 200h-90q-81 0 -106 -125q-6 -26 -6 -61q0 -64 63 -64h36q30 0 42 10t19 40z" />
    <glyph glyph-name="e" unicode="e" horiz-adv-x="627" 
d="M554 0h-325q-97 0 -142 39t-45 124q0 57 15 125q13 58 26.5 97.5t35 68t43.5 44t61 24.5t77.5 11.5t102.5 2.5q133 0 191.5 -30t58.5 -116q0 -48 -10 -88q-12 -50 -37 -75t-74 -25h-289q-3 -12 -3 -21q0 -25 20.5 -35t65.5 -10h257zM269 326h145q15 0 23.5 4t11 8.5
t4.5 12.5q1 4 1 15q0 34 -80 34q-49 0 -72 -14t-33 -60z" />
    <glyph glyph-name="f" unicode="f" horiz-adv-x="431" 
d="M241 0h-196l83 390h-79l30 140h79q10 37 27.5 65.5t36 47.5t50.5 32t55.5 19.5t66.5 9.5t68.5 3.5t76.5 0.5l-26 -122q-43 0 -63 -1t-44.5 -6t-36 -17t-15.5 -32h148l-30 -140h-148z" />
    <glyph glyph-name="g" unicode="g" horiz-adv-x="626" 
d="M328 530h234q43 0 66 -23t23 -60q0 -13 -3 -27l-78 -370q-25 -120 -92 -175t-187 -55h-297l27 128h241q37 0 61 10t40 42h-128q-98 0 -145.5 52t-47.5 142q0 44 10 90q14 65 31 107t48 75.5t79 48.5t118 15zM393 140l42 200q3 15 3 24q0 15 -9.5 20.5t-32.5 5.5h-36
q-50 0 -73 -33t-36 -93q-7 -30 -7 -54q0 -70 59 -70h90z" />
    <glyph glyph-name="h" unicode="h" horiz-adv-x="642" 
d="M9 0l149 700h196l-36 -170h140q87 0 139.5 -40t52.5 -111q0 -24 -5 -49l-70 -330h-196l60 282q5 27 5 43q0 36 -21.5 51.5t-69.5 15.5h-64l-84 -392h-196z" />
    <glyph glyph-name="i" unicode="i" horiz-adv-x="272" 
d="M9 0l113 530h196l-113 -530h-196zM329 583h-196l25 117h196z" />
    <glyph glyph-name="j" unicode="j" horiz-adv-x="344" 
d="M-104 -170l27 126q77 0 119.5 29t57.5 101l94 444h196l-104 -490q-13 -62 -38 -102.5t-50.5 -62t-80.5 -32t-94.5 -12t-126.5 -1.5zM401 583h-196l25 117h196z" />
    <glyph glyph-name="k" unicode="k" horiz-adv-x="643" 
d="M628 0h-210l-113 190q-16 28 -16 59q0 60 52 115l154 166h216l-206 -221q-23 -25 -23 -48q0 -19 11 -38zM205 0h-196l149 700h196z" />
    <glyph glyph-name="l" unicode="l" horiz-adv-x="272" 
d="M9 0l149 700h196l-149 -700h-196z" />
    <glyph glyph-name="m" unicode="m" horiz-adv-x="876" 
d="M9 0l90 420q23 110 133 110h480q79 0 125.5 -39.5t46.5 -109.5q0 -28 -5 -51l-70 -330h-196l60 280q6 26 6 49q0 35 -20.5 48t-68.5 13l-83 -390h-196l83 390h-66q-22 0 -33 -9t-15 -31l-75 -350h-196z" />
    <glyph glyph-name="n" unicode="n" horiz-adv-x="642" 
d="M9 0l90 420q23 110 133 110h246q79 0 125.5 -39.5t46.5 -109.5q0 -28 -5 -51l-70 -330h-196l60 280q5 27 5 46q0 36 -21.5 50t-70.5 14h-24q-22 0 -33 -9t-15 -31l-75 -350h-196z" />
    <glyph glyph-name="o" unicode="o" horiz-adv-x="660" 
d="M404 536q139 0 203.5 -43t64.5 -146q0 -53 -10 -102q-14 -67 -33.5 -110.5t-44.5 -72.5t-66 -43.5t-88 -19.5t-121 -5q-139 0 -203 42.5t-64 144.5q0 55 10 104q14 67 33 110.5t44 72.5t66 43.5t88 19.5t121 5zM252 275q-9 -40 -9 -69q0 -36 19.5 -54t66.5 -18
q64 0 91.5 28t41.5 93q9 40 9 69q0 36 -19.5 54t-66.5 18q-64 0 -91.5 -28t-41.5 -93z" />
    <glyph glyph-name="p" unicode="p" horiz-adv-x="626" 
d="M231 530h214q98 0 146 -52.5t48 -142.5q0 -42 -9 -90q-24 -129 -83 -187t-195 -58h-148l-36 -170h-195l125 590q12 55 43.5 82.5t89.5 27.5zM277 340l-43 -200h90q81 0 106 115q7 37 7 70q0 65 -64 65h-36q-30 0 -42 -10t-18 -40z" />
    <glyph glyph-name="q" unicode="q" horiz-adv-x="626" 
d="M327 530h234q43 0 66.5 -23t23.5 -60q0 -13 -3 -27l-126 -590h-196l36 170h-128q-98 0 -145 52t-47 142q0 45 10 91q14 65 31 106.5t47.5 75t78.5 48.5t118 15zM392 140l43 200q3 13 3 23q0 15 -9.5 21t-33.5 6h-36q-51 0 -73.5 -29.5t-33.5 -85.5q-8 -34 -8 -66
q0 -69 58 -69h90z" />
    <glyph glyph-name="r" unicode="r" horiz-adv-x="431" 
d="M9 0l66 310q27 130 96 175t211 45h129l-29 -138h-73q-65 0 -100 -35t-50 -105l-54 -252h-196z" />
    <glyph glyph-name="s" unicode="s" horiz-adv-x="552" 
d="M-4 0l30 142h289q19 0 19 12q0 5 -3.5 9.5t-12 8.5t-14 6t-17 6t-14.5 5l-97 37q-57 22 -83.5 49.5t-26.5 77.5q0 17 5 42q16 74 55.5 104.5t115.5 30.5h362l-29 -136h-288q-34 0 -34 -10q0 -4 1.5 -7t6 -5.5t8.5 -4t13 -4.5t16 -6l115 -45q66 -26 96.5 -55.5t30.5 -84.5
q0 -17 -5 -42q-15 -73 -54 -101.5t-116 -28.5h-369z" />
    <glyph glyph-name="t" unicode="t" horiz-adv-x="430" 
d="M388 0h-147q-71 0 -118 35.5t-47 102.5q0 26 4 42l44 210h-75l30 140h75l36 170h196l-36 -170h151l-30 -140h-151l-25 -120q-6 -26 -6 -59q0 -71 98 -71h31z" />
    <glyph glyph-name="u" unicode="u" horiz-adv-x="650" 
d="M696 530l-89 -420q-23 -110 -134 -110h-254q-78 0 -125 41.5t-47 111.5q0 24 5 47l70 330h196l-60 -282q-5 -27 -5 -42q0 -36 22 -52t70 -16h32q23 0 33 8.5t15 31.5l75 352h196z" />
    <glyph glyph-name="v" unicode="v" horiz-adv-x="648" 
d="M267 530l56 -306q4 -18 9 -18q6 0 17 18l186 306h211l-327 -488q-32 -48 -125 -48q-27 0 -44 2t-35.5 13.5t-23.5 32.5l-121 488h197z" />
    <glyph glyph-name="w" unicode="w" horiz-adv-x="922" 
d="M248 530l15 -305q0 -16 7 -16q6 0 12 15l132 256q29 56 120 56q99 0 104 -56l24 -256q0 -15 6 -15q5 0 13 16l145 305h194l-212 -430q-26 -53 -59 -79.5t-100 -26.5q-118 0 -124 77l-20 231q-2 16 -5 16t-11 -16l-120 -231q-18 -35 -50 -56t-98 -21q-68 0 -93 27t-28 79
l-30 430h178z" />
    <glyph glyph-name="x" unicode="x" horiz-adv-x="612" 
d="M603 0h-218l-66 150l-130 -150h-237l268 272l-139 258h213l57 -136l115 136h233l-249 -258z" />
    <glyph glyph-name="y" unicode="y" horiz-adv-x="641" 
d="M744 530l-455 -701h-206l125 171l-135 530h190l72 -350l203 350h206z" />
    <glyph glyph-name="z" unicode="z" horiz-adv-x="556" 
d="M508 0h-430q-32 0 -54.5 25t-22.5 62q0 15 3 29q7 36 24.5 55.5t55.5 43.5l256 165q10 5 10 10q0 4 -9 4h-257l29 136h409q39 0 64.5 -23.5t25.5 -60.5q0 -15 -3 -27q-6 -28 -19.5 -48.5t-25 -29.5t-35.5 -24l-248 -160q-11 -7 -11 -11t9 -4h260z" />
    <glyph glyph-name="braceleft" unicode="{" horiz-adv-x="329" 
d="M182 288l-2 -8q36 -22 36 -58q0 -16 -5 -36l-24 -110q-2 -14 -2 -19q0 -29 21.5 -46t60.5 -17l-28 -130q-97 2 -147 38t-50 115q0 27 8 69l16 79q1 5 1 14q0 49 -39 52l23 106q52 4 66 66l17 79q13 61 28.5 99.5t34.5 64t52 37.5t70 16.5t99 4.5l-28 -130
q-50 0 -76.5 -16.5t-37.5 -65.5l-23 -110q-18 -88 -71 -94z" />
    <glyph glyph-name="bar" unicode="|" horiz-adv-x="200" 
d="M-26 -170l193 910h120l-194 -910h-119z" />
    <glyph glyph-name="braceright" unicode="}" horiz-adv-x="329" 
d="M207 280l2 8q-36 21 -36 57q0 17 5 37l23 110q3 14 3 24q0 58 -83 58l28 130q198 0 198 -151q0 -36 -8 -71l-17 -79q-1 -4 -1 -13q0 -20 10 -36t29 -17l-23 -106q-54 -5 -66 -66l-16 -79q-19 -94 -49.5 -140t-83 -63.5t-151.5 -18.5l28 130q95 0 113 82l24 110
q5 24 10 39.5t21 33.5t40 21z" />
    <glyph glyph-name="asciitilde" unicode="~" horiz-adv-x="644" 
d="M165 330l-76 75q50 47 93 72t91 25q33 0 67 -16l50 -23q32 -14 60 -14q52 0 128 66l66 -80q-53 -50 -99.5 -75t-102.5 -25q-32 0 -70 18l-43 21q-19 11 -59 11q-12 0 -21.5 -2t-21.5 -9t-18 -11t-21.5 -16t-22.5 -17z" />
    <glyph glyph-name="uni00A0" unicode="&#xa0;" horiz-adv-x="233" 
 />
    <glyph glyph-name="exclamdown" unicode="&#xa1;" horiz-adv-x="328" 
d="M177 700h196l-39 -182h-196zM318 459l-78 -459h-228l118 459h188z" />
    <glyph glyph-name="cent" unicode="&#xa2;" horiz-adv-x="555" 
d="M323 -70h-95l15 70q-101 0 -146.5 53.5t-45.5 143.5q0 42 7 87q11 65 26.5 107t46 75.5t80 48.5t123.5 15h22l15 70h95l-15 -70h167l-30 -140h-194q-60 0 -92.5 -28t-43.5 -88q-6 -31 -6 -56q0 -78 89 -78h205l-30 -140h-178z" />
    <glyph glyph-name="sterling" unicode="&#xa3;" horiz-adv-x="723" 
d="M685 0h-510q-43 0 -66 23t-23 60q0 13 3 27l50 239h-73l20 92h73q21 104 51 157.5t86.5 77.5t157.5 24h185l-37 -174h-119q-52 0 -69.5 -15.5t-28.5 -69.5h199l-20 -92h-199l-28 -132q-2 -10 -2 -14q0 -29 37 -29h350z" />
    <glyph glyph-name="currency" unicode="&#xa4;" horiz-adv-x="706" 
d="M109 258q0 112 79 191l-60 76l105 87l60 -76q72 41 140 41q78 0 133 -40l91 75l77 -97l-90 -75q18 -40 18 -86q0 -113 -78 -188l58 -75l-104 -86l-58 74q-71 -42 -141 -42q-80 0 -133 43l-92 -75l-78 96l90 75q-17 36 -17 82zM407 406q-47 0 -84.5 -35.5t-37.5 -83.5
q0 -34 22 -56.5t58 -22.5q44 0 83 36t39 83q0 34 -23 56.5t-57 22.5z" />
    <glyph glyph-name="yen" unicode="&#xa5;" horiz-adv-x="712" 
d="M699 303h-160l-59 -75l-3 -14h203l-23 -108h-203l-23 -106h-226l23 106h-203l23 108h203l3 14l-27 75h-160l23 108h97l-106 289h232l86 -272l202 272h252l-228 -289h97z" />
    <glyph glyph-name="brokenbar" unicode="&#xa6;" horiz-adv-x="200" 
d="M-9 -63l63 300h120l-64 -300h-119zM97 440l64 300h120l-64 -300h-120z" />
    <glyph glyph-name="section" unicode="&#xa7;" horiz-adv-x="526" 
d="M14 -170l30 140h147q61 0 61 20q0 8 -27 35l-128 131q-41 43 -41 104q0 20 4 36q23 112 164 130l-55 56q-30 31 -30 79q0 15 5 35q15 61 55.5 82.5t115.5 21.5h251l-30 -140h-170q-23 0 -30 -3t-7 -10q0 -9 23 -32l129 -133q44 -44 44 -110q0 -20 -4 -39
q-25 -114 -168 -119l48 -51q40 -42 40 -98q0 -14 -5 -32q-17 -61 -59.5 -82t-117.5 -21h-245zM266 208q94 0 94 56q0 24 -18 40l-32 28q-34 0 -60.5 -13t-26.5 -46q0 -26 20 -44z" />
    <glyph glyph-name="dieresis" unicode="&#xa8;" 
d="M340 590l28 128h173l-28 -128h-173zM252 590h-173l28 128h173z" />
    <glyph glyph-name="copyright" unicode="&#xa9;" horiz-adv-x="808" 
d="M507 708q302 0 302 -253q0 -60 -14 -124q-39 -186 -135 -262.5t-285 -76.5q-302 0 -302 254q0 61 14 125q39 186 135 261.5t285 75.5zM202 351q-13 -65 -13 -104q0 -80 46.5 -116t150.5 -36q133 0 199 59.5t95 196.5q13 63 13 103q0 80 -46.5 115.5t-151.5 35.5
q-133 0 -198.5 -58.5t-94.5 -195.5zM551 177h-158q-64 0 -93.5 36t-29.5 95q0 35 7 66q17 83 55.5 121.5t129.5 38.5h152l-21 -100h-86q-44 0 -63 -17t-28 -63q-4 -21 -4 -39q0 -21 12 -29.5t41 -8.5h107z" />
    <glyph glyph-name="ordfeminine" unicode="&#xaa;" horiz-adv-x="440" 
d="M171 704h211q44 0 65.5 -22.5t21.5 -60.5q0 -18 -4 -34l-29 -133q-4 -19 -7.5 -28t-11.5 -20t-23.5 -15.5t-40.5 -4.5h-177q-37 0 -57.5 19.5t-20.5 55.5q0 20 4 37q11 51 35 69.5t71 18.5h139l1 5q1 4 1 11q0 23 -35 23h-160zM331 511h-85q-20 0 -24 -14q-2 -7 -2 -13
q0 -13 18 -13h61q24 0 28 20zM53 230l17 80h332l-17 -80h-332z" />
    <glyph glyph-name="guillemotleft" unicode="&#xab;" horiz-adv-x="636" 
d="M411 442l-131 -139q-19 -19 -19 -42q0 -13 6 -25l81 -146l-154 -76l-105 199q-13 23 -13 49q0 49 42 97l169 189zM637 372l-71 -77q-16 -19 -16 -28q0 -13 6 -24l48 -83l-159 -76l-73 133q-16 30 -16 54t43 74l118 133z" />
    <glyph glyph-name="logicalnot" unicode="&#xac;" horiz-adv-x="708" 
d="M714 389l-61 -288h-140l34 158h-468l27 130h608z" />
    <glyph glyph-name="uni00AD" unicode="&#xad;" horiz-adv-x="487" 
d="M41 189l34 158h427l-34 -158h-427z" />
    <glyph glyph-name="registered" unicode="&#xae;" horiz-adv-x="534" 
d="M273 275q-183 0 -183 155q0 35 11 82q27 114 85.5 154t177.5 40q183 0 183 -153q0 -31 -10 -81q-24 -115 -84.5 -156t-179.5 -41zM286 337q89 0 126.5 32t55.5 119q9 45 9 75q0 47 -28 64t-98 17q-90 0 -126 -30t-56 -120q-9 -42 -9 -72q0 -48 28 -66.5t98 -18.5z
M255 389h-70l40 187q4 20 13 24.5t40 4.5h88q37 0 55.5 -12.5t18.5 -42.5q0 -13 -3 -31q-4 -19 -8 -30t-18.5 -22.5t-37.5 -11.5h-7l44 -66h-76l-35 54q-10 14 -10 24q0 6 1 10q6 30 33 30h12q23 0 28 17q3 10 3 18q0 11 -25 11h-31q-13 0 -17.5 -4t-7.5 -18z" />
    <glyph glyph-name="macron" unicode="&#xaf;" horiz-adv-x="401" 
d="M452 596h-289l23 110h289z" />
    <glyph glyph-name="degree" unicode="&#xb0;" horiz-adv-x="298" 
d="M98 661q11 54 48.5 80.5t90.5 26.5q49 0 75 -30t26 -75q0 -16 -2 -26q-11 -54 -47.5 -80.5t-89.5 -26.5q-49 0 -76 30.5t-27 75.5q0 15 2 25zM160 656q-3 -12 -3 -19q0 -21 13.5 -34t34.5 -13q25 0 44 13.5t25 37.5q3 12 3 21q0 20 -12.5 33t-34.5 13q-25 0 -44.5 -14
t-25.5 -38z" />
    <glyph glyph-name="plusminus" unicode="&#xb1;" horiz-adv-x="708" 
d="M423 172h-136l50 205h-236l27 130h236l50 205h136l-50 -205h236l-27 -130h-236zM618 -20h-608l27 130h608z" />
    <glyph glyph-name="twosuperior" unicode="&#xb2;" horiz-adv-x="457" 
d="M408 295h-281q-26 0 -39.5 17.5t-13.5 43.5q0 12 3 29q12 61 48 76l192 79q24 12 28 30q2 10 2 15q0 18 -37 18h-161l20 97h233q78 0 78 -85q0 -11 -3 -34q-9 -56 -28 -82t-58 -41l-135 -53q-7 -3 -8 -6q0 -2 4 -2h178z" />
    <glyph glyph-name="threesuperior" unicode="&#xb3;" horiz-adv-x="461" 
d="M59 295l22 100h183q16 0 24 1t16 7.5t11 20.5q2 12 2 14q0 13 -9 16t-30 3h-175l19 89h168q20 0 30.5 4.5t15.5 22.5q2 6 2 13q0 18 -35 18h-174l20 96h237q85 0 85 -85q0 -16 -3 -31q-6 -37 -23 -52.5t-55 -23.5l-1 -4q26 -2 43 -22t17 -52q0 -13 -3 -28
q-12 -56 -40 -81.5t-92 -25.5h-255z" />
    <glyph glyph-name="acute" unicode="&#xb4;" 
d="M375 837l74 -109l-226 -158l-74 108z" />
    <glyph glyph-name="mu" unicode="&#xb5;" horiz-adv-x="670" 
d="M-6 -177l149 707h197l-63 -300q-4 -16 -4 -32q0 -64 70 -64q36 0 69 29.5t40 63.5l64 303h197l-112 -530h-187l15 73q-20 -38 -51 -58.5t-65 -20.5q-35 0 -56.5 19.5t-24.5 52.5l-52 -243h-186z" />
    <glyph glyph-name="paragraph" unicode="&#xb6;" horiz-adv-x="742" 
d="M582 -170h-136l157 740h-62l-157 -740h-136l98 459h-45q-90 0 -135.5 45t-45.5 120q0 32 6 63q18 96 68 139.5t164 43.5h474l-28 -130h-65zM373 419l32 151h-49q-39 0 -60 -15t-28 -52q-4 -17 -4 -34q0 -50 60 -50h49z" />
    <glyph glyph-name="periodcentered" unicode="&#xb7;" horiz-adv-x="298" 
d="M265 250h-198l38 180h198z" />
    <glyph glyph-name="cedilla" unicode="&#xb8;" horiz-adv-x="221" 
d="M9 -200l13 70h69q21 0 24 11q1 3 1 7q0 11 -21 11h-30q-30 0 -30 22q0 14 10 28l35 51h76l-16 -23q-4 -4 -4 -8t10 -4q67 0 67 -63q0 -7 -4 -29q-9 -44 -35 -58.5t-82 -14.5h-83z" />
    <glyph glyph-name="onesuperior" unicode="&#xb9;" horiz-adv-x="261" 
d="M92 295l59 276q1 3 1 9q0 21 -25 21h-43l21 99h131q59 0 59 -47q0 -5 -3 -23l-72 -335h-128z" />
    <glyph glyph-name="ordmasculine" unicode="&#xba;" horiz-adv-x="441" 
d="M317 708q74 0 109.5 -28.5t35.5 -89.5q0 -30 -7 -62q-19 -91 -64.5 -125t-137.5 -34q-146 0 -146 118q0 29 7 61q19 91 65 125.5t138 34.5zM202 538q-5 -25 -5 -38q0 -27 16 -38.5t53 -11.5q47 0 68.5 19.5t32.5 68.5q5 25 5 39q0 27 -15.5 38.5t-52.5 11.5
q-47 0 -69 -20t-33 -69zM53 230l17 80h333l-17 -80h-333z" />
    <glyph glyph-name="guillemotright" unicode="&#xbb;" horiz-adv-x="636" 
d="M284 120l131 139q19 19 19 42q0 13 -6 25l-81 146l154 76l105 -199q13 -23 13 -49q0 -49 -42 -97l-169 -189zM58 190l71 77q16 19 16 28q0 13 -6 24l-48 83l159 76l73 -133q16 -30 16 -54t-43 -74l-118 -133z" />
    <glyph glyph-name="onequarter" unicode="&#xbc;" horiz-adv-x="874" 
d="M95 0l555 700h104l-555 -700h-104zM600 0l12 57h-168q-27 0 -40.5 19t-13.5 46q0 14 3 26q8 38 48 71l199 165q32 26 104 26q60 0 60 -47q0 -4 -2 -18l-39 -183h58l-23 -105h-58l-12 -57h-128zM635 162l20 96q0 1 1 3v2q0 3 -1 3q-2 0 -10 -6l-105 -86q-6 -4 -6 -8t6 -4
h95zM148 295l59 276q1 3 1 9q0 21 -25 21h-43l21 99h131q59 0 59 -47q0 -5 -3 -23l-72 -335h-128z" />
    <glyph glyph-name="onehalf" unicode="&#xbd;" horiz-adv-x="910" 
d="M95 0l555 700h104l-555 -700h-104zM148 295l59 276q1 3 1 9q0 21 -25 21h-43l21 99h131q59 0 59 -47q0 -5 -3 -23l-72 -335h-128zM814 0h-281q-26 0 -39.5 17.5t-13.5 43.5q0 13 3 29q12 61 48 76l192 79q24 12 28 30q2 10 2 15q0 18 -37 18h-161l20 97h233q78 0 78 -85
q0 -12 -3 -34q-9 -56 -28 -82t-58 -41l-135 -53q-7 -3 -8 -6q0 -2 4 -2h178z" />
    <glyph glyph-name="threequarters" unicode="&#xbe;" horiz-adv-x="1002" 
d="M223 0l555 700h104l-555 -700h-104zM75 295l22 100h183q16 0 24 1t16 7.5t11 20.5q2 12 2 14q0 13 -9 16t-30 3h-175l19 89h168q20 0 30.5 4.5t15.5 22.5q2 6 2 13q0 18 -35 18h-174l20 96h237q85 0 85 -85q0 -16 -3 -31q-6 -37 -23 -52.5t-55 -23.5l-1 -4q26 -2 43 -22
t17 -52q0 -13 -3 -28q-12 -56 -40 -81.5t-92 -25.5h-255zM728 0l12 57h-168q-27 0 -40.5 19t-13.5 46q0 14 3 26q8 38 48 71l199 165q33 26 104 26q60 0 60 -47q0 -4 -2 -18l-39 -183h58l-23 -105h-58l-12 -57h-128zM763 162l20 96q0 1 1 3v2q0 3 -1 3q-2 0 -10 -6l-105 -86
q-6 -4 -6 -8t6 -4h95z" />
    <glyph glyph-name="questiondown" unicode="&#xbf;" horiz-adv-x="510" 
d="M517 700l-39 -182h-196l39 182h196zM269 459h196l-7 -35q-10 -52 -27 -75.5t-63 -51.5l-35 -21q-62 -36 -68 -51q-5 -13 -5 -25q0 -18 14 -22t46 -4h179l-37 -174h-293q-139 0 -139 134q0 27 4 52q12 67 35.5 101.5t72.5 64.5l57 34q4 2 14.5 8t13.5 8l10.5 7t10.5 7.5
t7.5 7t6.5 9t3 9.5z" />
    <glyph glyph-name="Agrave" unicode="&#xc0;" horiz-adv-x="798" 
d="M-57 0l380 623q30 48 65.5 66.5t112.5 18.5q34 0 54.5 -2.5t43 -10.5t35.5 -25.5t19 -46.5l127 -623h-224l-27 144h-248l-85 -144h-253zM462 481l-98 -177h143l-27 177q-3 15 -6 15q-4 0 -12 -15zM477 997l158 -159l-100 -98l-158 158z" />
    <glyph glyph-name="Aacute" unicode="&#xc1;" horiz-adv-x="798" 
d="M-57 0l380 623q30 48 65.5 66.5t112.5 18.5q34 0 54.5 -2.5t43 -10.5t35.5 -25.5t19 -46.5l127 -623h-224l-27 144h-248l-85 -144h-253zM462 481l-98 -177h143l-27 177q-3 15 -6 15q-4 0 -12 -15zM622 1007l84 -109l-226 -158l-84 108z" />
    <glyph glyph-name="Acircumflex" unicode="&#xc2;" horiz-adv-x="798" 
d="M-57 0l380 623q30 48 65.5 66.5t112.5 18.5q34 0 54.5 -2.5t43 -10.5t35.5 -25.5t19 -46.5l127 -623h-224l-27 144h-248l-85 -144h-253zM462 481l-98 -177h143l-27 177q-3 15 -6 15q-4 0 -12 -15zM649 740l-91 95q-12 12 -26 12q-15 0 -32 -12l-139 -95l-57 93l185 116
q27 17 53 17q30 0 47 -17l133 -130z" />
    <glyph glyph-name="Atilde" unicode="&#xc3;" horiz-adv-x="798" 
d="M-57 0l380 623q30 48 65.5 66.5t112.5 18.5q34 0 54.5 -2.5t43 -10.5t35.5 -25.5t19 -46.5l127 -623h-224l-27 144h-248l-85 -144h-253zM462 481l-98 -177h143l-27 177q-3 15 -6 15q-4 0 -12 -15zM327 744l-64 76q76 85 167 85q30 0 56 -15l35 -19q33 -18 51 -18
q19 0 46.5 18.5t46.5 40.5l65 -72q-85 -94 -171 -94q-25 0 -61 18l-35 19q-24 12 -45 12q-34 0 -91 -51z" />
    <glyph glyph-name="Adieresis" unicode="&#xc4;" horiz-adv-x="798" 
d="M-57 0l380 623q30 48 65.5 66.5t112.5 18.5q34 0 54.5 -2.5t43 -10.5t35.5 -25.5t19 -46.5l127 -623h-224l-27 144h-248l-85 -144h-253zM462 481l-98 -177h143l-27 177q-3 15 -6 15q-4 0 -12 -15zM719 766h-182l28 129h182zM452 766h-183l28 129h183z" />
    <glyph glyph-name="Aring" unicode="&#xc5;" horiz-adv-x="798" 
d="M-57 0l380 623q30 48 65.5 66.5t112.5 18.5q34 0 54.5 -2.5t43 -10.5t35.5 -25.5t19 -46.5l127 -623h-224l-27 144h-248l-85 -144h-253zM462 481l-98 -177h143l-27 177q-3 15 -6 15q-4 0 -12 -15zM551 978q54 0 78 -20.5t24 -61.5q0 -27 -4 -47q-10 -61 -41 -84.5
t-99 -23.5q-104 0 -104 82q0 21 5 46q10 61 41.5 85t99.5 24zM482 863q-3 -11 -3 -25q0 -31 40 -31q28 0 40 11.5t18 36.5q3 12 3 25q0 32 -39 32q-28 0 -41 -12t-18 -37z" />
    <glyph glyph-name="AE" unicode="&#xc6;" horiz-adv-x="1174" 
d="M1250 700l-36 -170h-346q-44 0 -53 -44l-11 -52h382l-33 -154h-382l-14 -66q-2 -12 -2 -16q0 -28 36 -28h351l-36 -170h-511q-43 0 -66 23t-23 61q0 12 3 26l6 31h-205l-112 -141h-265l507 622q38 47 82 62.5t109 15.5h619zM577 502l-150 -199h123l42 198q1 4 1 9t-2 5
q-4 0 -14 -13z" />
    <glyph glyph-name="Ccedilla" unicode="&#xc7;" horiz-adv-x="658" 
d="M251 -200l13 70h69q21 0 24 11q1 4 1 7q0 11 -21 11h-30q-30 0 -30 22q0 14 10 28l35 51h-4q-264 0 -264 247q0 64 13 133q34 183 114 251.5t266 68.5h296l-37 -174h-180q-62 0 -95.5 -4.5t-61.5 -22t-43 -50t-27 -89.5q-11 -53 -11 -93q0 -56 36 -74.5t127 -18.5h190
l-37 -174h-206l-16 -23q-4 -6 -4 -8q0 -4 7 -4h5q65 0 65 -62q0 -15 -4 -30q-12 -43 -37.5 -58t-79.5 -15h-83z" />
    <glyph glyph-name="Egrave" unicode="&#xc8;" horiz-adv-x="700" 
d="M777 700l-36 -170h-346q-44 0 -53 -44l-11 -52h382l-33 -154h-382l-14 -66q-2 -12 -2 -16q0 -28 36 -28h350l-36 -170h-510q-43 0 -66 23t-23 60q0 13 3 27l102 480q12 55 43.5 82.5t89.5 27.5h506zM448 997l158 -159l-100 -98l-158 158z" />
    <glyph glyph-name="Eacute" unicode="&#xc9;" horiz-adv-x="700" 
d="M777 700l-36 -170h-346q-44 0 -53 -44l-11 -52h382l-33 -154h-382l-14 -66q-2 -12 -2 -16q0 -28 36 -28h350l-36 -170h-510q-43 0 -66 23t-23 60q0 13 3 27l102 480q12 55 43.5 82.5t89.5 27.5h506zM593 1007l84 -109l-226 -158l-84 108z" />
    <glyph glyph-name="Ecircumflex" unicode="&#xca;" horiz-adv-x="700" 
d="M777 700l-36 -170h-346q-44 0 -53 -44l-11 -52h382l-33 -154h-382l-14 -66q-2 -12 -2 -16q0 -28 36 -28h350l-36 -170h-510q-43 0 -66 23t-23 60q0 13 3 27l102 480q12 55 43.5 82.5t89.5 27.5h506zM630 740l-91 95q-12 12 -26 12q-15 0 -32 -12l-139 -95l-57 93l185 116
q27 17 53 17q30 0 47 -17l133 -130z" />
    <glyph glyph-name="Edieresis" unicode="&#xcb;" horiz-adv-x="700" 
d="M777 700l-36 -170h-346q-44 0 -53 -44l-11 -52h382l-33 -154h-382l-14 -66q-2 -12 -2 -16q0 -28 36 -28h350l-36 -170h-510q-43 0 -66 23t-23 60q0 13 3 27l102 480q12 55 43.5 82.5t89.5 27.5h506zM700 766h-182l28 129h182zM433 766h-183l28 129h183z" />
    <glyph glyph-name="Igrave" unicode="&#xcc;" horiz-adv-x="326" 
d="M238 0h-226l149 700h226zM261 997l158 -159l-100 -98l-158 158z" />
    <glyph glyph-name="Iacute" unicode="&#xcd;" horiz-adv-x="326" 
d="M238 0h-226l149 700h226zM366 1007l84 -109l-226 -158l-84 108z" />
    <glyph glyph-name="Icircumflex" unicode="&#xce;" horiz-adv-x="326" 
d="M238 0h-226l149 700h226zM423 740l-91 95q-12 12 -26 12q-15 0 -32 -12l-139 -95l-57 93l185 116q27 17 53 17q30 0 47 -17l133 -130z" />
    <glyph glyph-name="Idieresis" unicode="&#xcf;" horiz-adv-x="354" 
d="M244 0h-226l149 700h226zM476 746h-157l27 129h157zM260 746h-158l27 129h158z" />
    <glyph glyph-name="Eth" unicode="&#xd0;" horiz-adv-x="816" 
d="M432 0h-292q-43 0 -66 23t-23 60q0 13 3 27l34 161h-78l31 148h78l37 171q12 55 43.5 82.5t89.5 27.5h272q132 0 192.5 -61t60.5 -180q0 -69 -11 -139q-29 -184 -107 -252t-264 -68zM357 476l-12 -57h127l-31 -148h-127l-10 -47q-2 -7 -2 -19q0 -31 41 -31h10
q58 0 89.5 4.5t59 22t42.5 50t27 89.5q11 55 11 87q0 58 -35.5 78.5t-118.5 20.5h-10q-27 0 -41 -11.5t-20 -38.5z" />
    <glyph glyph-name="Ntilde" unicode="&#xd1;" horiz-adv-x="864" 
d="M925 700l-124 -583q-3 -15 -6 -24t-15 -30.5t-28 -34.5t-47.5 -24.5t-71.5 -11.5q-49 0 -83 13t-55 56l-177 357q-7 17 -15 17q-14 0 -18 -20l-89 -415h-184l124 584q27 124 174 124q102 0 134 -65l178 -360q10 -17 16 -17q11 0 14 17l89 417h184zM400 744l-64 76
q76 85 167 85q30 0 56 -15l35 -19q33 -18 51 -18q19 0 46.5 18.5t46.5 40.5l65 -72q-85 -94 -171 -94q-25 0 -61 18l-35 19q-24 12 -45 12q-34 0 -91 -51z" />
    <glyph glyph-name="Ograve" unicode="&#xd2;" horiz-adv-x="830" 
d="M511 708q177 0 256.5 -58.5t79.5 -192.5q0 -60 -11 -127q-15 -91 -39.5 -151.5t-57 -98t-86.5 -57t-112 -25.5t-150 -6q-177 0 -257 58.5t-80 191.5q0 55 12 128q15 91 39.5 151.5t57 98t86.5 57t112 25.5t150 6zM298 360q-11 -52 -11 -94q0 -100 125 -100q89 0 130 37.5
t62 136.5q10 46 10 93q0 101 -124 101q-89 0 -130.5 -38t-61.5 -136zM473 997l158 -159l-100 -98l-158 158z" />
    <glyph glyph-name="Oacute" unicode="&#xd3;" horiz-adv-x="830" 
d="M511 708q177 0 256.5 -58.5t79.5 -192.5q0 -60 -11 -127q-15 -91 -39.5 -151.5t-57 -98t-86.5 -57t-112 -25.5t-150 -6q-177 0 -257 58.5t-80 191.5q0 55 12 128q15 91 39.5 151.5t57 98t86.5 57t112 25.5t150 6zM298 360q-11 -52 -11 -94q0 -100 125 -100q89 0 130 37.5
t62 136.5q10 46 10 93q0 101 -124 101q-89 0 -130.5 -38t-61.5 -136zM618 1007l84 -109l-226 -158l-84 108z" />
    <glyph glyph-name="Ocircumflex" unicode="&#xd4;" horiz-adv-x="830" 
d="M511 708q177 0 256.5 -58.5t79.5 -192.5q0 -60 -11 -127q-15 -91 -39.5 -151.5t-57 -98t-86.5 -57t-112 -25.5t-150 -6q-177 0 -257 58.5t-80 191.5q0 55 12 128q15 91 39.5 151.5t57 98t86.5 57t112 25.5t150 6zM298 360q-11 -52 -11 -94q0 -100 125 -100q89 0 130 37.5
t62 136.5q10 46 10 93q0 101 -124 101q-89 0 -130.5 -38t-61.5 -136zM635 740l-91 95q-12 12 -26 12q-15 0 -32 -12l-139 -95l-57 93l185 116q27 17 53 17q30 0 47 -17l133 -130z" />
    <glyph glyph-name="Otilde" unicode="&#xd5;" horiz-adv-x="830" 
d="M511 708q177 0 256.5 -58.5t79.5 -192.5q0 -60 -11 -127q-15 -91 -39.5 -151.5t-57 -98t-86.5 -57t-112 -25.5t-150 -6q-177 0 -257 58.5t-80 191.5q0 55 12 128q15 91 39.5 151.5t57 98t86.5 57t112 25.5t150 6zM298 360q-11 -52 -11 -94q0 -100 125 -100q89 0 130 37.5
t62 136.5q10 46 10 93q0 101 -124 101q-89 0 -130.5 -38t-61.5 -136zM343 744l-64 76q76 85 167 85q30 0 56 -15l35 -19q33 -18 51 -18q19 0 46.5 18.5t46.5 40.5l65 -72q-85 -94 -171 -94q-25 0 -61 18l-35 19q-24 12 -45 12q-34 0 -91 -51z" />
    <glyph glyph-name="Odieresis" unicode="&#xd6;" horiz-adv-x="830" 
d="M511 708q177 0 256.5 -58.5t79.5 -192.5q0 -60 -11 -127q-15 -91 -39.5 -151.5t-57 -98t-86.5 -57t-112 -25.5t-150 -6q-177 0 -257 58.5t-80 191.5q0 55 12 128q15 91 39.5 151.5t57 98t86.5 57t112 25.5t150 6zM298 360q-11 -52 -11 -94q0 -100 125 -100q89 0 130 37.5
t62 136.5q10 46 10 93q0 101 -124 101q-89 0 -130.5 -38t-61.5 -136zM725 766h-182l28 129h182zM458 766h-183l28 129h183z" />
    <glyph glyph-name="multiply" unicode="&#xd7;" horiz-adv-x="672" 
d="M598 129l-106 -86l-134 170l-206 -170l-86 106l206 170l-134 170l107 86l134 -170l206 170l85 -106l-206 -170z" />
    <glyph glyph-name="Oslash" unicode="&#xd8;" horiz-adv-x="833" 
d="M511 708q190 0 268 -68l102 77l44 -54l-103 -78q25 -51 25 -128q0 -60 -11 -127q-15 -91 -39.5 -151.5t-57 -98t-86.5 -57t-112 -25.5t-150 -6q-190 0 -267 66l-98 -74l-44 54l98 74q-26 51 -26 130q0 55 12 128q15 91 39.5 151.5t57 98t86.5 57t112 25.5t150 6zM298 360
q-11 -50 -11 -92l306 231q-31 35 -103 35q-89 0 -130.5 -38t-61.5 -136zM604 340q8 39 10 88l-304 -230q31 -32 102 -32q89 0 130 37.5t62 136.5z" />
    <glyph glyph-name="Ugrave" unicode="&#xd9;" horiz-adv-x="794" 
d="M397 174q62 0 97.5 29t49.5 95l86 402h226l-90 -420q-19 -89 -50.5 -146t-81.5 -88t-109 -42.5t-147 -11.5q-149 0 -231.5 53.5t-82.5 162.5q0 38 8 72l90 420h226l-86 -402q-5 -27 -5 -44q0 -80 100 -80zM455 997l158 -159l-100 -98l-158 158z" />
    <glyph glyph-name="Uacute" unicode="&#xda;" horiz-adv-x="794" 
d="M397 174q62 0 97.5 29t49.5 95l86 402h226l-90 -420q-19 -89 -50.5 -146t-81.5 -88t-109 -42.5t-147 -11.5q-149 0 -231.5 53.5t-82.5 162.5q0 38 8 72l90 420h226l-86 -402q-5 -27 -5 -44q0 -80 100 -80zM640 1007l84 -109l-226 -158l-84 108z" />
    <glyph glyph-name="Ucircumflex" unicode="&#xdb;" horiz-adv-x="794" 
d="M397 174q62 0 97.5 29t49.5 95l86 402h226l-90 -420q-19 -89 -50.5 -146t-81.5 -88t-109 -42.5t-147 -11.5q-149 0 -231.5 53.5t-82.5 162.5q0 38 8 72l90 420h226l-86 -402q-5 -27 -5 -44q0 -80 100 -80zM657 740l-91 95q-12 12 -26 12q-15 0 -32 -12l-139 -95l-57 93
l185 116q27 17 53 17q30 0 47 -17l133 -130z" />
    <glyph glyph-name="Udieresis" unicode="&#xdc;" horiz-adv-x="794" 
d="M397 174q62 0 97.5 29t49.5 95l86 402h226l-90 -420q-19 -89 -50.5 -146t-81.5 -88t-109 -42.5t-147 -11.5q-149 0 -231.5 53.5t-82.5 162.5q0 38 8 72l90 420h226l-86 -402q-5 -27 -5 -44q0 -80 100 -80zM747 766h-182l28 129h182zM480 766h-183l28 129h183z" />
    <glyph glyph-name="Yacute" unicode="&#xdd;" horiz-adv-x="792" 
d="M433 398l238 302h252l-410 -506l-42 -194h-226l42 194l-196 506h232zM619 1007l84 -109l-226 -158l-84 108z" />
    <glyph glyph-name="Thorn" unicode="&#xde;" horiz-adv-x="828" 
d="M32 0l149 700h226l-21 -100h284q84 0 120 -41t36 -122q0 -41 -6 -82q-9 -57 -20.5 -92t-36 -63t-65.5 -39.5t-104 -11.5h-304l-32 -149h-226zM327 323h169q20 0 30.5 1t25.5 5t23.5 14.5t12.5 27.5q2 12 2 20q0 16 -12 24.5t-24 9.5t-35 1h-170z" />
    <glyph glyph-name="germandbls" unicode="&#xdf;" horiz-adv-x="649" 
d="M12 0l89 419q35 164 110.5 225.5t222.5 61.5q100 0 165 -40.5t65 -124.5q0 -25 -6 -55q-12 -56 -38 -82t-89 -32l-1 -4q101 -11 101 -120q0 -30 -6 -64q-19 -103 -64 -143.5t-160 -40.5h-120l30 140h24q43 0 63 18.5t29 58.5q4 22 4 31q0 47 -63 47h-24l28 134h20
q53 0 66 66q4 20 4 29q0 48 -50 48q-45 0 -69 -25.5t-37 -86.5l-98 -460h-196z" />
    <glyph glyph-name="agrave" unicode="&#xe0;" horiz-adv-x="630" 
d="M144 530h342q77 0 116.5 -37.5t39.5 -101.5q0 -24 -4 -41l-51 -240q-24 -110 -134 -110h-308q-59 0 -89 34.5t-30 94.5q0 32 7 69q16 77 49 105.5t114 28.5h242l2 10q1 5 1 13q0 39 -50 39h-276zM412 208h-139q-38 0 -45 -32q-2 -10 -2 -17q0 -12 7.5 -20.5t20.5 -8.5
h101q22 0 32.5 8.5t15.5 31.5zM335 827l158 -159l-110 -98l-158 158z" />
    <glyph glyph-name="aacute" unicode="&#xe1;" horiz-adv-x="630" 
d="M144 530h342q77 0 116.5 -37.5t39.5 -101.5q0 -24 -4 -41l-51 -240q-24 -110 -134 -110h-308q-59 0 -89 34.5t-30 94.5q0 32 7 69q16 77 49 105.5t114 28.5h242l2 10q1 5 1 13q0 39 -50 39h-276zM412 208h-139q-38 0 -45 -32q-2 -10 -2 -17q0 -12 7.5 -20.5t20.5 -8.5
h101q22 0 32.5 8.5t15.5 31.5zM510 837l74 -109l-226 -158l-74 108z" />
    <glyph glyph-name="acircumflex" unicode="&#xe2;" horiz-adv-x="630" 
d="M144 530h342q77 0 116.5 -37.5t39.5 -101.5q0 -24 -4 -41l-51 -240q-24 -110 -134 -110h-308q-59 0 -89 34.5t-30 94.5q0 32 7 69q16 77 49 105.5t114 28.5h242l2 10q1 5 1 13q0 39 -50 39h-276zM412 208h-139q-38 0 -45 -32q-2 -10 -2 -17q0 -12 7.5 -20.5t20.5 -8.5
h101q22 0 32.5 8.5t15.5 31.5zM517 570l-95 95q-12 12 -26 12q-15 0 -32 -12l-135 -95l-57 91l184 118q26 17 54 17q27 0 46 -17l134 -130z" />
    <glyph glyph-name="atilde" unicode="&#xe3;" horiz-adv-x="630" 
d="M144 530h342q77 0 116.5 -37.5t39.5 -101.5q0 -24 -4 -41l-51 -240q-24 -110 -134 -110h-308q-59 0 -89 34.5t-30 94.5q0 32 7 69q16 77 49 105.5t114 28.5h242l2 10q1 5 1 13q0 39 -50 39h-276zM412 208h-139q-38 0 -45 -32q-2 -10 -2 -17q0 -12 7.5 -20.5t20.5 -8.5
h101q22 0 32.5 8.5t15.5 31.5zM213 574l-68 66q85 95 169 95q19 0 53 -17l30 -15q40 -20 57 -20q37 0 89 59l69 -62q-45 -49 -84.5 -76.5t-88.5 -27.5q-32 0 -67 20l-28 15q-28 14 -44 14q-30 0 -87 -51z" />
    <glyph glyph-name="adieresis" unicode="&#xe4;" horiz-adv-x="630" 
d="M144 530h342q77 0 116.5 -37.5t39.5 -101.5q0 -24 -4 -41l-51 -240q-24 -110 -134 -110h-308q-59 0 -89 34.5t-30 94.5q0 32 7 69q16 77 49 105.5t114 28.5h242l2 10q1 5 1 13q0 39 -50 39h-276zM412 208h-139q-38 0 -45 -32q-2 -10 -2 -17q0 -12 7.5 -20.5t20.5 -8.5
h101q22 0 32.5 8.5t15.5 31.5zM415 590l28 128h173l-28 -128h-173zM327 590h-173l28 128h173z" />
    <glyph glyph-name="aring" unicode="&#xe5;" horiz-adv-x="630" 
d="M144 530h342q77 0 116.5 -37.5t39.5 -101.5q0 -24 -4 -41l-51 -240q-24 -110 -134 -110h-308q-59 0 -89 34.5t-30 94.5q0 32 7 69q16 77 49 105.5t114 28.5h242l2 10q1 5 1 13q0 39 -50 39h-276zM412 208h-139q-38 0 -45 -32q-2 -10 -2 -17q0 -12 7.5 -20.5t20.5 -8.5
h101q22 0 32.5 8.5t15.5 31.5zM413 807q102 0 102 -86q0 -23 -4 -43q-13 -62 -42.5 -85t-97.5 -23q-104 0 -104 86q0 17 5 42q13 62 43.5 85.5t97.5 23.5zM344 690q-3 -10 -3 -23q0 -31 40 -31q28 0 40 12.5t18 37.5q3 12 3 23q0 32 -39 32q-49 0 -59 -51z" />
    <glyph glyph-name="ae" unicode="&#xe6;" horiz-adv-x="987" 
d="M915 0h-335q-56 0 -86 24q-31 -24 -71 -24h-278q-59 0 -89 34.5t-30 94.5q0 32 7 69q16 77 49 105.5t114 28.5h242l2 10q1 5 1 13q0 39 -50 39h-276l29 136h342q49 0 82 -30q35 21 78.5 28.5t117.5 7.5q133 0 191.5 -30t58.5 -116q0 -48 -10 -88q-12 -50 -37 -75t-74 -25
h-289q-3 -12 -3 -21q0 -25 20.5 -35t65.5 -10h257zM412 208h-139q-38 0 -45 -32q-2 -10 -2 -17q0 -12 7.5 -20.5t20.5 -8.5h101q22 0 32.5 8.5t15.5 31.5zM630 326h145q15 0 23.5 4t11 8.5t4.5 12.5q1 4 1 15q0 34 -80 34q-49 0 -72 -14t-33 -60z" />
    <glyph glyph-name="ccedilla" unicode="&#xe7;" horiz-adv-x="551" 
d="M199 -200l13 70h69q21 0 24 11q1 3 1 7q0 11 -21 11h-30q-30 0 -30 22q0 14 10 28l35 51h-35q-190 0 -190 197q0 47 7 87q11 66 27 107.5t46 75t79.5 48.5t123.5 15h284l-30 -140h-194q-59 0 -91 -27.5t-45 -88.5q-6 -26 -6 -56q0 -78 89 -78h205l-30 -140h-164l-16 -23
q-4 -4 -4 -8t10 -4q67 0 67 -63q0 -7 -4 -29q-9 -44 -35 -58.5t-82 -14.5h-83z" />
    <glyph glyph-name="egrave" unicode="&#xe8;" horiz-adv-x="627" 
d="M554 0h-325q-97 0 -142 39t-45 124q0 57 15 125q13 58 26.5 97.5t35 68t43.5 44t61 24.5t77.5 11.5t102.5 2.5q133 0 191.5 -30t58.5 -116q0 -48 -10 -88q-12 -50 -37 -75t-74 -25h-289q-3 -12 -3 -21q0 -25 20.5 -35t65.5 -10h257zM269 326h145q15 0 23.5 4t11 8.5
t4.5 12.5q1 4 1 15q0 34 -80 34q-49 0 -72 -14t-33 -60zM348 827l158 -159l-110 -98l-158 158z" />
    <glyph glyph-name="eacute" unicode="&#xe9;" horiz-adv-x="627" 
d="M554 0h-325q-97 0 -142 39t-45 124q0 57 15 125q13 58 26.5 97.5t35 68t43.5 44t61 24.5t77.5 11.5t102.5 2.5q133 0 191.5 -30t58.5 -116q0 -48 -10 -88q-12 -50 -37 -75t-74 -25h-289q-3 -12 -3 -21q0 -25 20.5 -35t65.5 -10h257zM269 326h145q15 0 23.5 4t11 8.5
t4.5 12.5q1 4 1 15q0 34 -80 34q-49 0 -72 -14t-33 -60zM503 837l74 -109l-226 -158l-74 108z" />
    <glyph glyph-name="ecircumflex" unicode="&#xea;" horiz-adv-x="627" 
d="M554 0h-325q-97 0 -142 39t-45 124q0 57 15 125q13 58 26.5 97.5t35 68t43.5 44t61 24.5t77.5 11.5t102.5 2.5q133 0 191.5 -30t58.5 -116q0 -48 -10 -88q-12 -50 -37 -75t-74 -25h-289q-3 -12 -3 -21q0 -25 20.5 -35t65.5 -10h257zM269 326h145q15 0 23.5 4t11 8.5
t4.5 12.5q1 4 1 15q0 34 -80 34q-49 0 -72 -14t-33 -60zM530 570l-95 95q-12 12 -26 12q-15 0 -32 -12l-135 -95l-57 91l184 118q26 17 54 17q27 0 46 -17l134 -130z" />
    <glyph glyph-name="edieresis" unicode="&#xeb;" horiz-adv-x="627" 
d="M554 0h-325q-97 0 -142 39t-45 124q0 57 15 125q13 58 26.5 97.5t35 68t43.5 44t61 24.5t77.5 11.5t102.5 2.5q133 0 191.5 -30t58.5 -116q0 -48 -10 -88q-12 -50 -37 -75t-74 -25h-289q-3 -12 -3 -21q0 -25 20.5 -35t65.5 -10h257zM269 326h145q15 0 23.5 4t11 8.5
t4.5 12.5q1 4 1 15q0 34 -80 34q-49 0 -72 -14t-33 -60zM438 590l28 128h173l-28 -128h-173zM350 590h-173l28 128h173z" />
    <glyph glyph-name="igrave" unicode="&#xec;" horiz-adv-x="272" 
d="M9 0l113 530h196l-113 -530h-196zM188 827l158 -159l-110 -98l-158 158z" />
    <glyph glyph-name="iacute" unicode="&#xed;" horiz-adv-x="272" 
d="M9 0l113 530h196l-113 -530h-196zM303 837l74 -109l-226 -158l-74 108z" />
    <glyph glyph-name="icircumflex" unicode="&#xee;" horiz-adv-x="272" 
d="M9 0l113 530h196l-113 -530h-196zM370 570l-95 95q-12 12 -26 12q-15 0 -32 -12l-135 -95l-57 91l184 118q26 17 54 17q27 0 46 -17l134 -130z" />
    <glyph glyph-name="idieresis" unicode="&#xef;" horiz-adv-x="364" 
d="M46 0l113 530h196l-113 -530h-196zM292 572l27 128h156l-27 -128h-156zM240 572h-156l27 128h156z" />
    <glyph glyph-name="eth" unicode="&#xf0;" horiz-adv-x="612" 
d="M449 0h-214q-98 0 -145.5 52t-47.5 142q0 43 9 91q13 64 30.5 106.5t48.5 75.5t79.5 48t118.5 15h148q3 14 3 25q0 30 -21 63l-116 -37l-24 67l89 29q-29 33 -79 60l85 61q70 -31 122 -78l118 34l19 -66l-78 -23q64 -72 64 -165q0 -38 -8 -73l-67 -317
q-24 -110 -134 -110zM404 190l42 200h-90q-81 0 -106 -125q-6 -26 -6 -61q0 -64 63 -64h36q30 0 42 10t19 40z" />
    <glyph glyph-name="ntilde" unicode="&#xf1;" horiz-adv-x="642" 
d="M9 0l90 420q23 110 133 110h246q79 0 125.5 -39.5t46.5 -109.5q0 -28 -5 -51l-70 -330h-196l60 280q5 27 5 46q0 36 -21.5 50t-70.5 14h-24q-22 0 -33 -9t-15 -31l-75 -350h-196zM239 574l-68 66q85 95 169 95q19 0 53 -17l30 -15q40 -20 57 -20q37 0 89 59l69 -62
q-45 -49 -84.5 -76.5t-88.5 -27.5q-32 0 -67 20l-28 15q-28 14 -44 14q-30 0 -87 -51z" />
    <glyph glyph-name="ograve" unicode="&#xf2;" horiz-adv-x="660" 
d="M404 536q139 0 203.5 -43t64.5 -146q0 -53 -10 -102q-14 -67 -33.5 -110.5t-44.5 -72.5t-66 -43.5t-88 -19.5t-121 -5q-139 0 -203 42.5t-64 144.5q0 55 10 104q14 67 33 110.5t44 72.5t66 43.5t88 19.5t121 5zM252 275q-9 -40 -9 -69q0 -36 19.5 -54t66.5 -18
q64 0 91.5 28t41.5 93q9 40 9 69q0 36 -19.5 54t-66.5 18q-64 0 -91.5 -28t-41.5 -93zM350 827l158 -159l-110 -98l-158 158z" />
    <glyph glyph-name="oacute" unicode="&#xf3;" horiz-adv-x="660" 
d="M404 536q139 0 203.5 -43t64.5 -146q0 -53 -10 -102q-14 -67 -33.5 -110.5t-44.5 -72.5t-66 -43.5t-88 -19.5t-121 -5q-139 0 -203 42.5t-64 144.5q0 55 10 104q14 67 33 110.5t44 72.5t66 43.5t88 19.5t121 5zM252 275q-9 -40 -9 -69q0 -36 19.5 -54t66.5 -18
q64 0 91.5 28t41.5 93q9 40 9 69q0 36 -19.5 54t-66.5 18q-64 0 -91.5 -28t-41.5 -93zM525 837l74 -109l-226 -158l-74 108z" />
    <glyph glyph-name="ocircumflex" unicode="&#xf4;" horiz-adv-x="660" 
d="M404 536q139 0 203.5 -43t64.5 -146q0 -53 -10 -102q-14 -67 -33.5 -110.5t-44.5 -72.5t-66 -43.5t-88 -19.5t-121 -5q-139 0 -203 42.5t-64 144.5q0 55 10 104q14 67 33 110.5t44 72.5t66 43.5t88 19.5t121 5zM252 275q-9 -40 -9 -69q0 -36 19.5 -54t66.5 -18
q64 0 91.5 28t41.5 93q9 40 9 69q0 36 -19.5 54t-66.5 18q-64 0 -91.5 -28t-41.5 -93zM532 570l-95 95q-12 12 -26 12q-15 0 -32 -12l-135 -95l-57 91l184 118q26 17 54 17q27 0 46 -17l134 -130z" />
    <glyph glyph-name="otilde" unicode="&#xf5;" horiz-adv-x="660" 
d="M404 536q139 0 203.5 -43t64.5 -146q0 -53 -10 -102q-14 -67 -33.5 -110.5t-44.5 -72.5t-66 -43.5t-88 -19.5t-121 -5q-139 0 -203 42.5t-64 144.5q0 55 10 104q14 67 33 110.5t44 72.5t66 43.5t88 19.5t121 5zM252 275q-9 -40 -9 -69q0 -36 19.5 -54t66.5 -18
q64 0 91.5 28t41.5 93q9 40 9 69q0 36 -19.5 54t-66.5 18q-64 0 -91.5 -28t-41.5 -93zM228 574l-68 66q85 95 169 95q19 0 53 -17l30 -15q40 -20 57 -20q37 0 89 59l69 -62q-45 -49 -84.5 -76.5t-88.5 -27.5q-32 0 -67 20l-28 15q-28 14 -44 14q-30 0 -87 -51z" />
    <glyph glyph-name="odieresis" unicode="&#xf6;" horiz-adv-x="660" 
d="M404 536q139 0 203.5 -43t64.5 -146q0 -53 -10 -102q-14 -67 -33.5 -110.5t-44.5 -72.5t-66 -43.5t-88 -19.5t-121 -5q-139 0 -203 42.5t-64 144.5q0 55 10 104q14 67 33 110.5t44 72.5t66 43.5t88 19.5t121 5zM252 275q-9 -40 -9 -69q0 -36 19.5 -54t66.5 -18
q64 0 91.5 28t41.5 93q9 40 9 69q0 36 -19.5 54t-66.5 18q-64 0 -91.5 -28t-41.5 -93zM430 590l28 128h173l-28 -128h-173zM342 590h-173l28 128h173z" />
    <glyph glyph-name="divide" unicode="&#xf7;" horiz-adv-x="708" 
d="M678 259h-608l28 130h608zM514 495h-180l39 180h180zM403 -27h-180l39 180h180z" />
    <glyph glyph-name="oslash" unicode="&#xf8;" horiz-adv-x="652" 
d="M404 536q141 0 205 -44l86 63l37 -51l-81 -60q21 -39 21 -97q0 -53 -10 -102q-14 -67 -33.5 -110.5t-44.5 -72.5t-66 -43.5t-88 -19.5t-121 -5q-149 0 -210 47l-86 -63l-37 51l83 61q-17 34 -17 91q0 55 10 104q14 67 33 110.5t44 72.5t66 43.5t88 19.5t121 5zM462 255
q6 26 8 57l-212 -155q20 -23 71 -23q64 0 91.5 28t41.5 93zM252 275q-6 -24 -8 -50l208 152q-22 19 -67 19q-64 0 -90.5 -28t-42.5 -93z" />
    <glyph glyph-name="ugrave" unicode="&#xf9;" horiz-adv-x="650" 
d="M696 530l-89 -420q-23 -110 -134 -110h-254q-78 0 -125 41.5t-47 111.5q0 24 5 47l70 330h196l-60 -282q-5 -27 -5 -42q0 -36 22 -52t70 -16h32q23 0 33 8.5t15 31.5l75 352h196zM365 827l158 -159l-110 -98l-158 158z" />
    <glyph glyph-name="uacute" unicode="&#xfa;" horiz-adv-x="650" 
d="M696 530l-89 -420q-23 -110 -134 -110h-254q-78 0 -125 41.5t-47 111.5q0 24 5 47l70 330h196l-60 -282q-5 -27 -5 -42q0 -36 22 -52t70 -16h32q23 0 33 8.5t15 31.5l75 352h196zM540 837l74 -109l-226 -158l-74 108z" />
    <glyph glyph-name="ucircumflex" unicode="&#xfb;" horiz-adv-x="650" 
d="M696 530l-89 -420q-23 -110 -134 -110h-254q-78 0 -125 41.5t-47 111.5q0 24 5 47l70 330h196l-60 -282q-5 -27 -5 -42q0 -36 22 -52t70 -16h32q23 0 33 8.5t15 31.5l75 352h196zM557 570l-95 95q-12 12 -26 12q-15 0 -32 -12l-135 -95l-57 91l184 118q26 17 54 17
q27 0 46 -17l134 -130z" />
    <glyph glyph-name="udieresis" unicode="&#xfc;" horiz-adv-x="650" 
d="M696 530l-89 -420q-23 -110 -134 -110h-254q-78 0 -125 41.5t-47 111.5q0 24 5 47l70 330h196l-60 -282q-5 -27 -5 -42q0 -36 22 -52t70 -16h32q23 0 33 8.5t15 31.5l75 352h196zM465 590l28 128h173l-28 -128h-173zM377 590h-173l28 128h173z" />
    <glyph glyph-name="yacute" unicode="&#xfd;" horiz-adv-x="641" 
d="M744 530l-455 -701h-206l125 171l-135 530h190l72 -350l203 350h206zM535 837l74 -109l-226 -158l-74 108z" />
    <glyph glyph-name="thorn" unicode="&#xfe;" horiz-adv-x="644" 
d="M-14 -170l184 870h196l-36 -170h128q98 0 145 -52.5t47 -142.5q0 -51 -9 -92q-27 -132 -84 -187.5t-192 -55.5h-148l-36 -170h-195zM300 390l-53 -250h90q80 0 105 123q8 42 8 62q0 65 -64 65h-86z" />
    <glyph glyph-name="ydieresis" unicode="&#xff;" horiz-adv-x="641" 
d="M744 530l-455 -701h-206l125 171l-135 530h190l72 -350l203 350h206zM450 590l28 128h173l-28 -128h-173zM362 590h-173l28 128h173z" />
    <glyph glyph-name="Amacron" unicode="&#x100;" horiz-adv-x="798" 
d="M-57 0l380 623q30 48 65.5 66.5t112.5 18.5q34 0 54.5 -2.5t43 -10.5t35.5 -25.5t19 -46.5l127 -623h-224l-27 144h-248l-85 -144h-253zM462 481l-98 -177h143l-27 177q-3 15 -6 15q-4 0 -12 -15zM637 770h-289l24 110h289z" />
    <glyph glyph-name="amacron" unicode="&#x101;" horiz-adv-x="630" 
d="M144 530h342q77 0 116.5 -37.5t39.5 -101.5q0 -24 -4 -41l-51 -240q-24 -110 -134 -110h-308q-59 0 -89 34.5t-30 94.5q0 32 7 69q16 77 49 105.5t114 28.5h242l2 10q1 5 1 13q0 39 -50 39h-276zM412 208h-139q-38 0 -45 -32q-2 -10 -2 -17q0 -12 7.5 -20.5t20.5 -8.5
h101q22 0 32.5 8.5t15.5 31.5zM526 596h-289l23 110h289z" />
    <glyph glyph-name="Abreve" unicode="&#x102;" horiz-adv-x="798" 
d="M-57 0l380 623q30 48 65.5 66.5t112.5 18.5q34 0 54.5 -2.5t43 -10.5t35.5 -25.5t19 -46.5l127 -623h-224l-27 144h-248l-85 -144h-253zM462 481l-98 -177h143l-27 177q-3 15 -6 15q-4 0 -12 -15zM506 843q74 0 112 71h129q-24 -93 -82.5 -133.5t-170.5 -40.5
q-199 0 -199 174h129q7 -71 82 -71z" />
    <glyph glyph-name="abreve" unicode="&#x103;" horiz-adv-x="630" 
d="M144 530h342q77 0 116.5 -37.5t39.5 -101.5q0 -24 -4 -41l-51 -240q-24 -110 -134 -110h-308q-59 0 -89 34.5t-30 94.5q0 32 7 69q16 77 49 105.5t114 28.5h242l2 10q1 5 1 13q0 39 -50 39h-276zM412 208h-139q-38 0 -45 -32q-2 -10 -2 -17q0 -12 7.5 -20.5t20.5 -8.5
h101q22 0 32.5 8.5t15.5 31.5zM403 663q74 0 112 71h129q-32 -93 -90.5 -133.5t-162.5 -40.5q-100 0 -149.5 41.5t-49.5 132.5h129q7 -71 82 -71z" />
    <glyph glyph-name="Aogonek" unicode="&#x104;" horiz-adv-x="798" 
d="M737 -209h-75q-36 0 -58 13.5t-22 40.5q0 7 2 17q4 22 20 41l79 97h-127l-27 144h-248l-85 -144h-253l380 623q30 48 65.5 66.5t112.5 18.5q34 0 54.5 -2.5t43 -10.5t35.5 -25.5t19 -46.5l127 -623l-75 -91q-14 -17 -14 -26q0 -13 24 -13h39zM462 481l-98 -177h143
l-27 177q-3 15 -6 15q-4 0 -12 -15z" />
    <glyph glyph-name="aogonek" unicode="&#x105;" horiz-adv-x="630" 
d="M410 -209h-75q-80 0 -80 50q0 35 22 62l79 97h-211q-59 0 -89 34.5t-30 94.5q0 32 7 69q16 77 49 105.5t114 28.5h242l2 10q1 5 1 13q0 39 -50 39h-276l29 136h342q77 0 116.5 -37.5t39.5 -101.5q0 -24 -4 -41l-51 -240q-24 -110 -134 -110l-75 -91q-14 -17 -14 -26
q0 -13 24 -13h39zM412 208h-139q-38 0 -45 -32q-2 -10 -2 -17q0 -12 7.5 -20.5t20.5 -8.5h101q22 0 32.5 8.5t15.5 31.5z" />
    <glyph glyph-name="Cacute" unicode="&#x106;" horiz-adv-x="658" 
d="M604 0h-286q-264 0 -264 247q0 64 13 133q34 183 114 251.5t266 68.5h296l-37 -174h-180q-62 0 -95.5 -4.5t-61.5 -22t-43 -50t-27 -89.5q-11 -53 -11 -93q0 -56 36 -74.5t127 -18.5h190zM572 1007l84 -109l-226 -158l-84 108z" />
    <glyph glyph-name="cacute" unicode="&#x107;" horiz-adv-x="551" 
d="M507 0h-275q-190 0 -190 197q0 47 7 87q11 66 27 107.5t46 75t79.5 48.5t123.5 15h284l-30 -140h-194q-59 0 -91 -27.5t-45 -88.5q-6 -26 -6 -56q0 -78 89 -78h205zM490 837l74 -109l-226 -158l-74 108z" />
    <glyph glyph-name="Ccircumflex" unicode="&#x108;" horiz-adv-x="658" 
d="M604 0h-286q-264 0 -264 247q0 64 13 133q34 183 114 251.5t266 68.5h296l-37 -174h-180q-62 0 -95.5 -4.5t-61.5 -22t-43 -50t-27 -89.5q-11 -53 -11 -93q0 -56 36 -74.5t127 -18.5h190zM599 740l-91 95q-12 12 -26 12q-15 0 -32 -12l-139 -95l-57 93l185 116
q27 17 53 17q30 0 47 -17l133 -130z" />
    <glyph glyph-name="ccircumflex" unicode="&#x109;" horiz-adv-x="551" 
d="M507 0h-275q-190 0 -190 197q0 47 7 87q11 66 27 107.5t46 75t79.5 48.5t123.5 15h284l-30 -140h-194q-59 0 -91 -27.5t-45 -88.5q-6 -26 -6 -56q0 -78 89 -78h205zM517 570l-95 95q-12 12 -26 12q-15 0 -32 -12l-135 -95l-57 91l184 118q26 17 54 17q27 0 46 -17
l134 -130z" />
    <glyph glyph-name="Cdotaccent" unicode="&#x10a;" horiz-adv-x="658" 
d="M604 0h-286q-264 0 -264 247q0 64 13 133q34 183 114 251.5t266 68.5h296l-37 -174h-180q-62 0 -95.5 -4.5t-61.5 -22t-43 -50t-27 -89.5q-11 -53 -11 -93q0 -56 36 -74.5t127 -18.5h190zM591 766h-226l28 129h226z" />
    <glyph glyph-name="cdotaccent" unicode="&#x10b;" horiz-adv-x="551" 
d="M507 0h-275q-190 0 -190 197q0 47 7 87q11 66 27 107.5t46 75t79.5 48.5t123.5 15h284l-30 -140h-194q-59 0 -91 -27.5t-45 -88.5q-6 -26 -6 -56q0 -78 89 -78h205zM470 583h-196l25 117h196z" />
    <glyph glyph-name="Ccaron" unicode="&#x10c;" horiz-adv-x="658" 
d="M604 0h-286q-264 0 -264 247q0 64 13 133q34 183 114 251.5t266 68.5h296l-37 -174h-180q-62 0 -95.5 -4.5t-61.5 -22t-43 -50t-27 -89.5q-11 -53 -11 -93q0 -56 36 -74.5t127 -18.5h190zM629 966l55 -95l-184 -114q-29 -17 -54 -17q-27 0 -46 17l-134 130l75 79l91 -95
q12 -12 26 -12t32 12z" />
    <glyph glyph-name="ccaron" unicode="&#x10d;" horiz-adv-x="551" 
d="M507 0h-275q-190 0 -190 197q0 47 7 87q11 66 27 107.5t46 75t79.5 48.5t123.5 15h284l-30 -140h-194q-59 0 -91 -27.5t-45 -88.5q-6 -26 -6 -56q0 -78 89 -78h205zM545 796l55 -93l-184 -116q-27 -17 -54 -17t-46 17l-134 130l75 79l95 -95q14 -12 26 -12q15 0 32 12z
" />
    <glyph glyph-name="Dcaron" unicode="&#x10e;" horiz-adv-x="779" 
d="M414 0h-292q-43 0 -66 23t-23 60q0 13 3 27l102 480q12 55 43.5 82.5t89.5 27.5h272q132 0 192.5 -61t60.5 -180q0 -69 -11 -139q-29 -184 -107 -252t-264 -68zM339 476l-53 -252q-2 -7 -2 -19q0 -31 41 -31h10q58 0 89.5 4.5t59 22t42.5 50t27 89.5q11 55 11 87
q0 58 -35.5 78.5t-118.5 20.5h-10q-27 0 -41 -11.5t-20 -38.5zM649 966l55 -95l-184 -114q-29 -17 -54 -17q-27 0 -46 17l-134 130l75 79l91 -95q12 -12 26 -12t32 12z" />
    <glyph glyph-name="dcaron" unicode="&#x10f;" horiz-adv-x="868" 
d="M449 0h-214q-98 0 -145.5 52t-47.5 142q0 43 9 91q13 64 30.5 106.5t48.5 75.5t79.5 48t118.5 15h148l36 170h196l-125 -590q-24 -110 -134 -110zM404 190l42 200h-90q-81 0 -106 -125q-6 -26 -6 -61q0 -64 63 -64h36q30 0 42 10t19 40zM827 394l-140 65l147 286l156 -71
z" />
    <glyph glyph-name="Dcroat" unicode="&#x110;" horiz-adv-x="816" 
d="M432 0h-292q-43 0 -66 23t-23 60q0 13 3 27l34 161h-78l31 148h78l37 171q12 55 43.5 82.5t89.5 27.5h272q132 0 192.5 -61t60.5 -180q0 -69 -11 -139q-29 -184 -107 -252t-264 -68zM357 476l-12 -57h127l-31 -148h-127l-10 -47q-2 -7 -2 -19q0 -31 41 -31h10
q58 0 89.5 4.5t59 22t42.5 50t27 89.5q11 55 11 87q0 58 -35.5 78.5t-118.5 20.5h-10q-27 0 -41 -11.5t-20 -38.5z" />
    <glyph glyph-name="dcroat" unicode="&#x111;" horiz-adv-x="614" 
d="M449 0h-214q-98 0 -145.5 52t-47.5 142q0 43 9 91q13 64 30.5 106.5t48.5 75.5t79.5 48t118.5 15h148l9 44h-142l19 86h141l9 40h196l-9 -40h74l-19 -86h-73l-98 -464q-24 -110 -134 -110zM404 190l42 200h-90q-81 0 -106 -125q-6 -26 -6 -61q0 -64 63 -64h36q30 0 42 10
t19 40z" />
    <glyph glyph-name="Emacron" unicode="&#x112;" horiz-adv-x="700" 
d="M777 700l-36 -170h-346q-44 0 -53 -44l-11 -52h382l-33 -154h-382l-14 -66q-2 -12 -2 -16q0 -28 36 -28h350l-36 -170h-510q-43 0 -66 23t-23 60q0 13 3 27l102 480q12 55 43.5 82.5t89.5 27.5h506zM628 770h-289l24 110h289z" />
    <glyph glyph-name="emacron" unicode="&#x113;" horiz-adv-x="627" 
d="M554 0h-325q-97 0 -142 39t-45 124q0 57 15 125q13 58 26.5 97.5t35 68t43.5 44t61 24.5t77.5 11.5t102.5 2.5q133 0 191.5 -30t58.5 -116q0 -48 -10 -88q-12 -50 -37 -75t-74 -25h-289q-3 -12 -3 -21q0 -25 20.5 -35t65.5 -10h257zM269 326h145q15 0 23.5 4t11 8.5
t4.5 12.5q1 4 1 15q0 34 -80 34q-49 0 -72 -14t-33 -60zM550 596h-289l23 110h289z" />
    <glyph glyph-name="Edotaccent" unicode="&#x116;" horiz-adv-x="700" 
d="M777 700l-36 -170h-346q-44 0 -53 -44l-11 -52h382l-33 -154h-382l-14 -66q-2 -12 -2 -16q0 -28 36 -28h350l-36 -170h-510q-43 0 -66 23t-23 60q0 13 3 27l102 480q12 55 43.5 82.5t89.5 27.5h506zM587 766h-226l28 129h226z" />
    <glyph glyph-name="edotaccent" unicode="&#x117;" horiz-adv-x="627" 
d="M554 0h-325q-97 0 -142 39t-45 124q0 57 15 125q13 58 26.5 97.5t35 68t43.5 44t61 24.5t77.5 11.5t102.5 2.5q133 0 191.5 -30t58.5 -116q0 -48 -10 -88q-12 -50 -37 -75t-74 -25h-289q-3 -12 -3 -21q0 -25 20.5 -35t65.5 -10h257zM269 326h145q15 0 23.5 4t11 8.5
t4.5 12.5q1 4 1 15q0 34 -80 34q-49 0 -72 -14t-33 -60zM477 583h-196l25 117h196z" />
    <glyph glyph-name="Eogonek" unicode="&#x118;" horiz-adv-x="700" 
d="M555 -209h-75q-36 0 -58 13.5t-22 40.5q0 7 2 17q4 22 20 41l79 97h-379q-43 0 -66 23t-23 60q0 13 3 27l102 480q12 55 43.5 82.5t89.5 27.5h506l-36 -170h-346q-44 0 -53 -44l-11 -52h382l-33 -154h-382l-14 -66q-2 -12 -2 -16q0 -28 36 -28h350l-36 -170h-34l-75 -91
q-14 -17 -14 -26q0 -13 24 -13h39z" />
    <glyph glyph-name="eogonek" unicode="&#x119;" horiz-adv-x="617" 
d="M511 -209h-75q-80 0 -80 50q0 35 22 62l79 97h-228q-97 0 -142 39t-45 124q0 57 15 125q13 58 26.5 97.5t35 68t43.5 44t61 24.5t77.5 11.5t102.5 2.5q133 0 191.5 -30t58.5 -116q0 -48 -10 -88q-12 -50 -37 -75t-74 -25h-289q-3 -12 -3 -21q0 -25 20.5 -35t65.5 -10h257
l-29 -136l-75 -91q-14 -17 -14 -26q0 -13 24 -13h39zM269 326h145q15 0 23.5 4t11 8.5t4.5 12.5q1 4 1 15q0 34 -80 34q-49 0 -72 -14t-33 -60z" />
    <glyph glyph-name="Ecaron" unicode="&#x11a;" horiz-adv-x="700" 
d="M777 700l-36 -170h-346q-44 0 -53 -44l-11 -52h382l-33 -154h-382l-14 -66q-2 -12 -2 -16q0 -28 36 -28h350l-36 -170h-510q-43 0 -66 23t-23 60q0 13 3 27l102 480q12 55 43.5 82.5t89.5 27.5h506zM650 966l55 -95l-184 -114q-29 -17 -54 -17q-27 0 -46 17l-134 130
l75 79l91 -95q12 -12 26 -12t32 12z" />
    <glyph glyph-name="ecaron" unicode="&#x11b;" horiz-adv-x="627" 
d="M554 0h-325q-97 0 -142 39t-45 124q0 57 15 125q13 58 26.5 97.5t35 68t43.5 44t61 24.5t77.5 11.5t102.5 2.5q133 0 191.5 -30t58.5 -116q0 -48 -10 -88q-12 -50 -37 -75t-74 -25h-289q-3 -12 -3 -21q0 -25 20.5 -35t65.5 -10h257zM269 326h145q15 0 23.5 4t11 8.5
t4.5 12.5q1 4 1 15q0 34 -80 34q-49 0 -72 -14t-33 -60zM588 796l55 -93l-184 -116q-27 -17 -54 -17t-46 17l-134 130l75 79l95 -95q13 -12 26 -12q15 0 32 12z" />
    <glyph glyph-name="Gcircumflex" unicode="&#x11c;" horiz-adv-x="760" 
d="M788 526h-302q-87 0 -126.5 -32.5t-60.5 -133.5q-11 -52 -11 -92q0 -53 29 -73.5t94 -20.5h48q44 0 54 44l32 152h226l-55 -260q-11 -52 -46 -81t-88 -29h-264q-264 0 -264 247q0 64 13 133q34 183 114 251.5t266 68.5h378zM640 740l-91 95q-12 12 -26 12q-15 0 -32 -12
l-139 -95l-57 93l185 116q27 17 53 17q30 0 47 -17l133 -130z" />
    <glyph glyph-name="gcircumflex" unicode="&#x11d;" horiz-adv-x="626" 
d="M328 530h234q43 0 66 -23t23 -60q0 -13 -3 -27l-78 -370q-25 -120 -92 -175t-187 -55h-297l27 128h241q37 0 61 10t40 42h-128q-98 0 -145.5 52t-47.5 142q0 44 10 90q14 65 31 107t48 75.5t79 48.5t118 15zM393 140l42 200q3 15 3 24q0 15 -9.5 20.5t-32.5 5.5h-36
q-50 0 -73 -33t-36 -93q-7 -30 -7 -54q0 -70 59 -70h90zM545 570l-95 95q-12 12 -26 12q-15 0 -32 -12l-135 -95l-57 91l184 118q26 17 54 17q27 0 46 -17l134 -130z" />
    <glyph glyph-name="Gbreve" unicode="&#x11e;" horiz-adv-x="760" 
d="M788 526h-302q-87 0 -126.5 -32.5t-60.5 -133.5q-11 -52 -11 -92q0 -53 29 -73.5t94 -20.5h48q44 0 54 44l32 152h226l-55 -260q-11 -52 -46 -81t-88 -29h-264q-264 0 -264 247q0 64 13 133q34 183 114 251.5t266 68.5h378zM517 843q74 0 112 71h129
q-24 -93 -82.5 -133.5t-170.5 -40.5q-199 0 -199 174h129q7 -71 82 -71z" />
    <glyph glyph-name="gbreve" unicode="&#x11f;" horiz-adv-x="626" 
d="M328 530h234q43 0 66 -23t23 -60q0 -13 -3 -27l-78 -370q-25 -120 -92 -175t-187 -55h-297l27 128h241q37 0 61 10t40 42h-128q-98 0 -145.5 52t-47.5 142q0 44 10 90q14 65 31 107t48 75.5t79 48.5t118 15zM393 140l42 200q3 15 3 24q0 15 -9.5 20.5t-32.5 5.5h-36
q-50 0 -73 -33t-36 -93q-7 -30 -7 -54q0 -70 59 -70h90zM421 663q74 0 112 71h129q-32 -93 -90.5 -133.5t-162.5 -40.5q-100 0 -149.5 41.5t-49.5 132.5h129q7 -71 82 -71z" />
    <glyph glyph-name="Gdotaccent" unicode="&#x120;" horiz-adv-x="760" 
d="M788 526h-302q-87 0 -126.5 -32.5t-60.5 -133.5q-11 -52 -11 -92q0 -53 29 -73.5t94 -20.5h48q44 0 54 44l32 152h226l-55 -260q-11 -52 -46 -81t-88 -29h-264q-264 0 -264 247q0 64 13 133q34 183 114 251.5t266 68.5h378zM667 766h-226l28 129h226z" />
    <glyph glyph-name="gdotaccent" unicode="&#x121;" horiz-adv-x="626" 
d="M328 530h234q43 0 66 -23t23 -60q0 -13 -3 -27l-78 -370q-25 -120 -92 -175t-187 -55h-297l27 128h241q37 0 61 10t40 42h-128q-98 0 -145.5 52t-47.5 142q0 44 10 90q14 65 31 107t48 75.5t79 48.5t118 15zM393 140l42 200q3 15 3 24q0 15 -9.5 20.5t-32.5 5.5h-36
q-50 0 -73 -33t-36 -93q-7 -30 -7 -54q0 -70 59 -70h90zM509 583h-196l25 117h196z" />
    <glyph glyph-name="Gcommaaccent" unicode="&#x122;" horiz-adv-x="760" 
d="M788 526h-302q-87 0 -126.5 -32.5t-60.5 -133.5q-11 -52 -11 -92q0 -53 29 -73.5t94 -20.5h48q44 0 54 44l32 152h226l-55 -260q-11 -52 -46 -81t-88 -29h-264q-264 0 -264 247q0 64 13 133q34 183 114 251.5t266 68.5h378zM364 -300l-111 44l117 229l125 -49z" />
    <glyph glyph-name="gcommaaccent" unicode="&#x123;" horiz-adv-x="626" 
d="M328 530h234q43 0 66 -23t23 -60q0 -13 -3 -27l-78 -370q-25 -120 -92 -175t-187 -55h-297l27 128h241q37 0 61 10t40 42h-128q-98 0 -145.5 52t-47.5 142q0 44 10 90q14 65 31 107t48 75.5t79 48.5t118 15zM393 140l42 200q3 15 3 24q0 15 -9.5 20.5t-32.5 5.5h-36
q-50 0 -73 -33t-36 -93q-7 -30 -7 -54q0 -70 59 -70h90zM464 828l111 -44l-117 -229l-125 49z" />
    <glyph glyph-name="Hcircumflex" unicode="&#x124;" horiz-adv-x="806" 
d="M867 700l-149 -700h-226l59 278h-254l-59 -278h-226l149 700h226l-53 -248h254l53 248h226zM663 740l-91 95q-12 12 -26 12q-15 0 -32 -12l-139 -95l-57 93l185 116q27 17 53 17q30 0 47 -17l133 -130z" />
    <glyph glyph-name="hcircumflex" unicode="&#x125;" horiz-adv-x="642" 
d="M9 0l149 700h196l-36 -170h140q87 0 139.5 -40t52.5 -111q0 -24 -5 -49l-70 -330h-196l60 282q5 27 5 43q0 36 -21.5 51.5t-69.5 15.5h-64l-84 -392h-196zM403 734l-95 95q-12 12 -26 12q-15 0 -32 -12l-135 -95l-57 91l184 118q26 17 54 17q27 0 46 -17l134 -130z" />
    <glyph glyph-name="Hbar" unicode="&#x126;" horiz-adv-x="846" 
d="M52 518l25 118h90l14 64h226l-14 -64h254l14 64h226l-14 -64h90l-25 -118h-90l-110 -518h-226l59 278h-254l-59 -278h-226l110 518h-90zM354 452h254l14 66h-254z" />
    <glyph glyph-name="hbar" unicode="&#x127;" horiz-adv-x="642" 
d="M9 0l123 577h-74l19 88h73l8 35h196l-8 -35h158l-19 -88h-157l-10 -47h140q87 0 139.5 -40t52.5 -111q0 -24 -5 -49l-70 -330h-196l60 282q5 27 5 43q0 36 -21.5 51.5t-69.5 15.5h-64l-84 -392h-196z" />
    <glyph glyph-name="Imacron" unicode="&#x12a;" horiz-adv-x="326" 
d="M238 0h-226l149 700h226zM431 770h-289l24 110h289z" />
    <glyph glyph-name="imacron" unicode="&#x12b;" horiz-adv-x="272" 
d="M9 0l113 530h196l-113 -530h-196zM379 596h-289l23 110h289z" />
    <glyph glyph-name="Iogonek" unicode="&#x12e;" horiz-adv-x="326" 
d="M195 -209h-75q-36 0 -58 13.5t-22 40.5q0 7 2 17q4 22 20 41l79 97h-129l149 700h226l-149 -700l-75 -91q-14 -17 -14 -26q0 -13 24 -13h39z" />
    <glyph glyph-name="iogonek" unicode="&#x12f;" horiz-adv-x="272" 
d="M9 0l113 530h196l-113 -530l-75 -91q-14 -17 -14 -26q0 -13 24 -13h39l-17 -79h-75q-80 0 -80 50q0 35 22 62l79 97h-99zM327 573h-196l27 127h196z" />
    <glyph glyph-name="Idotaccent" unicode="&#x130;" horiz-adv-x="326" 
d="M238 0h-226l149 700h226zM400 766h-226l28 129h226z" />
    <glyph glyph-name="dotlessi" unicode="&#x131;" horiz-adv-x="272" 
d="M9 0l113 530h196l-113 -530h-196z" />
    <glyph glyph-name="Jcircumflex" unicode="&#x134;" horiz-adv-x="532" 
d="M-37 0l37 174h95q90 0 132.5 35t61.5 125l78 366h226l-96 -450q-26 -119 -104.5 -184.5t-198.5 -65.5h-231zM616 740l-91 95q-12 12 -26 12q-15 0 -32 -12l-139 -95l-57 93l185 116q27 17 53 17q30 0 47 -17l133 -130z" />
    <glyph glyph-name="jcircumflex" unicode="&#x135;" horiz-adv-x="344" 
d="M-95 -170l27 126q78 0 120 28.5t57 101.5l94 444h196l-104 -490q-13 -62 -38 -102.5t-50.5 -62t-80.5 -32t-94.5 -12t-126.5 -1.5zM442 570l-95 95q-12 12 -26 12q-15 0 -32 -12l-135 -95l-57 91l184 118q26 17 54 17q27 0 46 -17l134 -130z" />
    <glyph glyph-name="Kcommaaccent" unicode="&#x136;" horiz-adv-x="803" 
d="M785 0h-262l-164 271q-15 25 -15 58q0 74 41 117l244 254h268l-304 -299q-33 -31 -33 -61q0 -18 18 -44zM12 0l149 700h226l-149 -700h-226zM355 -300l-111 44l117 229l125 -49z" />
    <glyph glyph-name="kcommaaccent" unicode="&#x137;" horiz-adv-x="643" 
d="M628 0h-210l-113 190q-16 28 -16 59q0 60 52 115l154 166h216l-206 -221q-23 -25 -23 -48q0 -19 11 -38zM205 0h-196l149 700h196zM276 -300l-111 44l117 229l125 -49z" />
    <glyph glyph-name="Lacute" unicode="&#x139;" horiz-adv-x="666" 
d="M628 0h-506q-43 0 -66 22t-23 59q0 15 3 29l125 590h226l-102 -482q-2 -12 -2 -16q0 -28 36 -28h346zM536 1007l84 -109l-226 -158l-84 108z" />
    <glyph glyph-name="lacute" unicode="&#x13a;" horiz-adv-x="272" 
d="M9 0l149 700h196l-149 -700h-196zM341 997l74 -109l-226 -158l-74 108z" />
    <glyph glyph-name="Lcommaaccent" unicode="&#x13b;" horiz-adv-x="666" 
d="M628 0h-506q-43 0 -66 22t-23 59q0 15 3 29l125 590h226l-102 -482q-2 -12 -2 -16q0 -28 36 -28h346zM307 -300l-111 44l117 229l125 -49z" />
    <glyph glyph-name="lcommaaccent" unicode="&#x13c;" horiz-adv-x="272" 
d="M9 0l149 700h196l-149 -700h-196zM91 -300l-111 44l117 229l125 -49z" />
    <glyph glyph-name="Lcaron" unicode="&#x13d;" horiz-adv-x="666" 
d="M628 0h-506q-43 0 -66 22t-23 59q0 15 3 29l125 590h226l-102 -482q-2 -12 -2 -16q0 -28 36 -28h346zM551 396l-140 65l147 286l156 -71z" />
    <glyph glyph-name="lcaron" unicode="&#x13e;" horiz-adv-x="514" 
d="M9 0l149 700h196l-149 -700h-196zM473 394l-140 65l147 286l156 -71z" />
    <glyph glyph-name="Ldot" unicode="&#x13f;" horiz-adv-x="666" 
d="M628 0h-506q-43 0 -66 22t-23 59q0 15 3 29l125 590h226l-102 -482q-2 -12 -2 -16q0 -28 36 -28h346zM639 356h-226l28 129h226z" />
    <glyph glyph-name="ldot" unicode="&#x140;" horiz-adv-x="445" 
d="M9 0l149 700h196l-149 -700h-196zM487 283h-196l25 117h196z" />
    <glyph glyph-name="Lslash" unicode="&#x141;" horiz-adv-x="722" 
d="M684 0h-506q-43 0 -66 23t-23 60q0 13 3 27l16 76l-76 -48l-45 67l145 93l85 402h226l-51 -240l194 128l46 -67l-264 -172l-27 -131q-2 -12 -2 -16q0 -28 36 -28h346z" />
    <glyph glyph-name="lslash" unicode="&#x142;" horiz-adv-x="409" 
d="M69 0l43 201l-74 -49l-44 67l142 96l82 385h196l-49 -232l78 53l45 -68l-147 -99l-76 -354h-196z" />
    <glyph glyph-name="Nacute" unicode="&#x143;" horiz-adv-x="864" 
d="M925 700l-124 -583q-3 -15 -6 -24t-15 -30.5t-28 -34.5t-47.5 -24.5t-71.5 -11.5q-49 0 -83 13t-55 56l-177 357q-7 17 -15 17q-14 0 -18 -20l-89 -415h-184l124 584q27 124 174 124q102 0 134 -65l178 -360q10 -17 16 -17q11 0 14 17l89 417h184zM675 1007l84 -109
l-226 -158l-84 108z" />
    <glyph glyph-name="nacute" unicode="&#x144;" horiz-adv-x="642" 
d="M9 0l90 420q23 110 133 110h246q79 0 125.5 -39.5t46.5 -109.5q0 -28 -5 -51l-70 -330h-196l60 280q5 27 5 46q0 36 -21.5 50t-70.5 14h-24q-22 0 -33 -9t-15 -31l-75 -350h-196zM526 837l74 -109l-226 -158l-74 108z" />
    <glyph glyph-name="Ncommaaccent" unicode="&#x145;" horiz-adv-x="864" 
d="M925 700l-124 -583q-3 -15 -6 -24t-15 -30.5t-28 -34.5t-47.5 -24.5t-71.5 -11.5q-49 0 -83 13t-55 56l-177 357q-7 17 -15 17q-14 0 -18 -20l-89 -415h-184l124 584q27 124 174 124q102 0 134 -65l178 -360q10 -17 16 -17q11 0 14 17l89 417h184zM366 -300l-111 44
l117 229l125 -49z" />
    <glyph glyph-name="ncommaaccent" unicode="&#x146;" horiz-adv-x="642" 
d="M9 0l90 420q23 110 133 110h246q79 0 125.5 -39.5t46.5 -109.5q0 -28 -5 -51l-70 -330h-196l60 280q5 27 5 46q0 36 -21.5 50t-70.5 14h-24q-22 0 -33 -9t-15 -31l-75 -350h-196zM256 -300l-111 44l117 229l125 -49z" />
    <glyph glyph-name="Ncaron" unicode="&#x147;" horiz-adv-x="864" 
d="M925 700l-124 -583q-3 -15 -6 -24t-15 -30.5t-28 -34.5t-47.5 -24.5t-71.5 -11.5q-49 0 -83 13t-55 56l-177 357q-7 17 -15 17q-14 0 -18 -20l-89 -415h-184l124 584q27 124 174 124q102 0 134 -65l178 -360q10 -17 16 -17q11 0 14 17l89 417h184zM732 966l55 -95
l-184 -114q-29 -17 -54 -17q-27 0 -46 17l-134 130l75 79l91 -95q12 -12 26 -12t32 12z" />
    <glyph glyph-name="ncaron" unicode="&#x148;" horiz-adv-x="642" 
d="M9 0l90 420q23 110 133 110h246q79 0 125.5 -39.5t46.5 -109.5q0 -28 -5 -51l-70 -330h-196l60 280q5 27 5 46q0 36 -21.5 50t-70.5 14h-24q-22 0 -33 -9t-15 -31l-75 -350h-196zM571 796l55 -93l-184 -116q-27 -17 -54 -17t-46 17l-134 130l75 79l95 -95q14 -12 26 -12
q15 0 32 12z" />
    <glyph glyph-name="Omacron" unicode="&#x14c;" horiz-adv-x="830" 
d="M511 708q177 0 256.5 -58.5t79.5 -192.5q0 -60 -11 -127q-15 -91 -39.5 -151.5t-57 -98t-86.5 -57t-112 -25.5t-150 -6q-177 0 -257 58.5t-80 191.5q0 55 12 128q15 91 39.5 151.5t57 98t86.5 57t112 25.5t150 6zM298 360q-11 -52 -11 -94q0 -100 125 -100q89 0 130 37.5
t62 136.5q10 46 10 93q0 101 -124 101q-89 0 -130.5 -38t-61.5 -136zM643 770h-289l24 110h289z" />
    <glyph glyph-name="omacron" unicode="&#x14d;" horiz-adv-x="660" 
d="M404 536q139 0 203.5 -43t64.5 -146q0 -53 -10 -102q-14 -67 -33.5 -110.5t-44.5 -72.5t-66 -43.5t-88 -19.5t-121 -5q-139 0 -203 42.5t-64 144.5q0 55 10 104q14 67 33 110.5t44 72.5t66 43.5t88 19.5t121 5zM252 275q-9 -40 -9 -69q0 -36 19.5 -54t66.5 -18
q64 0 91.5 28t41.5 93q9 40 9 69q0 36 -19.5 54t-66.5 18q-64 0 -91.5 -28t-41.5 -93zM541 596h-289l23 110h289z" />
    <glyph glyph-name="Obreve" unicode="&#x14e;" horiz-adv-x="830" 
d="M511 708q177 0 256.5 -58.5t79.5 -192.5q0 -60 -11 -127q-15 -91 -39.5 -151.5t-57 -98t-86.5 -57t-112 -25.5t-150 -6q-177 0 -257 58.5t-80 191.5q0 55 12 128q15 91 39.5 151.5t57 98t86.5 57t112 25.5t150 6zM298 360q-11 -52 -11 -94q0 -100 125 -100q89 0 130 37.5
t62 136.5q10 46 10 93q0 101 -124 101q-89 0 -130.5 -38t-61.5 -136zM502 843q74 0 112 71h129q-24 -93 -82.5 -133.5t-170.5 -40.5q-199 0 -199 174h129q7 -71 82 -71z" />
    <glyph glyph-name="obreve" unicode="&#x14f;" horiz-adv-x="660" 
d="M404 536q139 0 203.5 -43t64.5 -146q0 -53 -10 -102q-14 -67 -33.5 -110.5t-44.5 -72.5t-66 -43.5t-88 -19.5t-121 -5q-139 0 -203 42.5t-64 144.5q0 55 10 104q14 67 33 110.5t44 72.5t66 43.5t88 19.5t121 5zM252 275q-9 -40 -9 -69q0 -36 19.5 -54t66.5 -18
q64 0 91.5 28t41.5 93q9 40 9 69q0 36 -19.5 54t-66.5 18q-64 0 -91.5 -28t-41.5 -93zM398 663q74 0 112 71h129q-32 -93 -90.5 -133.5t-162.5 -40.5q-100 0 -149.5 41.5t-49.5 132.5h129q7 -71 82 -71z" />
    <glyph glyph-name="Ohungarumlaut" unicode="&#x150;" horiz-adv-x="830" 
d="M511 708q177 0 256.5 -58.5t79.5 -192.5q0 -60 -11 -127q-15 -91 -39.5 -151.5t-57 -98t-86.5 -57t-112 -25.5t-150 -6q-177 0 -257 58.5t-80 191.5q0 55 12 128q15 91 39.5 151.5t57 98t86.5 57t112 25.5t150 6zM298 360q-11 -52 -11 -94q0 -100 125 -100q89 0 130 37.5
t62 136.5q10 46 10 93q0 101 -124 101q-89 0 -130.5 -38t-61.5 -136zM482 1003l89 -85l-202 -189l-88 84zM741 1003l89 -85l-202 -189l-88 84z" />
    <glyph glyph-name="ohungarumlaut" unicode="&#x151;" horiz-adv-x="660" 
d="M404 536q139 0 203.5 -43t64.5 -146q0 -53 -10 -102q-14 -67 -33.5 -110.5t-44.5 -72.5t-66 -43.5t-88 -19.5t-121 -5q-139 0 -203 42.5t-64 144.5q0 55 10 104q14 67 33 110.5t44 72.5t66 43.5t88 19.5t121 5zM252 275q-9 -40 -9 -69q0 -36 19.5 -54t66.5 -18
q64 0 91.5 28t41.5 93q9 40 9 69q0 36 -19.5 54t-66.5 18q-64 0 -91.5 -28t-41.5 -93zM386 851l88 -85l-202 -189l-88 84zM645 851l88 -85l-202 -189l-88 84z" />
    <glyph glyph-name="OE" unicode="&#x152;" horiz-adv-x="1219" 
d="M1296 700l-36 -170h-346q-44 0 -53 -44l-11 -52h382l-33 -154h-382l-14 -66q-2 -12 -2 -16q0 -28 36 -28h350l-36 -170h-496q-30 0 -49 19q-68 -27 -215 -27q-177 0 -257 58.5t-80 191.5q0 55 12 128q15 91 39.5 151.5t57 98t86.5 57t112 25.5t150 6q146 0 216 -31
q31 23 83 23h486zM298 360q-11 -52 -11 -94q0 -100 125 -100q89 0 130 37.5t62 136.5q10 46 10 93q0 101 -124 101q-89 0 -130.5 -38t-61.5 -136z" />
    <glyph glyph-name="oe" unicode="&#x153;" horiz-adv-x="1020" 
d="M957 0h-325q-81 0 -116 30q-69 -36 -207 -36q-139 0 -203 42.5t-64 144.5q0 55 10 104q14 67 33 110.5t44 72.5t66 43.5t88 19.5t121 5q125 0 184 -40q35 25 82.5 32.5t135.5 7.5q133 0 191.5 -30t58.5 -116q0 -48 -10 -88q-12 -50 -37 -75t-74 -25h-289q-3 -12 -3 -21
q0 -25 20.5 -35t65.5 -10h257zM252 275q-9 -40 -9 -69q0 -36 19.5 -54t66.5 -18q64 0 91.5 28t41.5 93q9 40 9 69q0 36 -19.5 54t-66.5 18q-64 0 -91.5 -28t-41.5 -93zM672 326h145q15 0 23.5 4t11 8.5t4.5 12.5q1 4 1 15q0 34 -80 34q-49 0 -72 -14t-33 -60z" />
    <glyph glyph-name="Racute" unicode="&#x154;" horiz-adv-x="789" 
d="M12 0l126 590q11 53 46 81.5t87 28.5h375q177 0 177 -171q0 -46 -8 -87q-7 -39 -13.5 -63.5t-22 -59.5t-35.5 -55.5t-55.5 -35.5t-81.5 -15h-20l-1 -4l145 -209h-252l-116 182q-2 4 -7.5 12.5t-7.5 11t-5.5 9t-4.5 10t-2.5 9t-2 11t-0.5 12.5q0 6 2 20l3 15q17 79 118 79
h34q45 0 66 17t31 62q4 16 4 32q0 25 -15.5 34.5t-52.5 9.5h-129q-44 0 -53 -44l-103 -482h-226zM637 1007l84 -109l-226 -158l-84 108z" />
    <glyph glyph-name="racute" unicode="&#x155;" horiz-adv-x="431" 
d="M9 0l66 310q27 130 96 175t211 45h129l-29 -138h-73q-65 0 -100 -35t-50 -105l-54 -252h-196zM430 837l74 -109l-226 -158l-74 108z" />
    <glyph glyph-name="Rcommaaccent" unicode="&#x156;" horiz-adv-x="789" 
d="M12 0l126 590q11 53 46 81.5t87 28.5h375q177 0 177 -171q0 -46 -8 -87q-7 -39 -13.5 -63.5t-22 -59.5t-35.5 -55.5t-55.5 -35.5t-81.5 -15h-20l-1 -4l145 -209h-252l-116 182q-2 4 -7.5 12.5t-7.5 11t-5.5 9t-4.5 10t-2.5 9t-2 11t-0.5 12.5q0 6 2 20l3 15q17 79 118 79
h34q45 0 66 17t31 62q4 16 4 32q0 25 -15.5 34.5t-52.5 9.5h-129q-44 0 -53 -44l-103 -482h-226zM328 -300l-111 44l117 229l125 -49z" />
    <glyph glyph-name="rcommaaccent" unicode="&#x157;" horiz-adv-x="431" 
d="M9 0l66 310q27 130 96 175t211 45h129l-29 -138h-73q-65 0 -100 -35t-50 -105l-54 -252h-196zM170 -300l-111 44l117 229l125 -49z" />
    <glyph glyph-name="Rcaron" unicode="&#x158;" horiz-adv-x="789" 
d="M12 0l126 590q11 53 46 81.5t87 28.5h375q177 0 177 -171q0 -46 -8 -87q-7 -39 -13.5 -63.5t-22 -59.5t-35.5 -55.5t-55.5 -35.5t-81.5 -15h-20l-1 -4l145 -209h-252l-116 182q-2 4 -7.5 12.5t-7.5 11t-5.5 9t-4.5 10t-2.5 9t-2 11t-0.5 12.5q0 6 2 20l3 15q17 79 118 79
h34q45 0 66 17t31 62q4 16 4 32q0 25 -15.5 34.5t-52.5 9.5h-129q-44 0 -53 -44l-103 -482h-226zM694 966l55 -95l-184 -114q-29 -17 -54 -17q-27 0 -46 17l-134 130l75 79l91 -95q12 -12 26 -12t32 12z" />
    <glyph glyph-name="rcaron" unicode="&#x159;" horiz-adv-x="431" 
d="M9 0l66 310q27 130 96 175t211 45h129l-29 -138h-73q-65 0 -100 -35t-50 -105l-54 -252h-196zM495 796l55 -93l-184 -116q-27 -17 -54 -17t-46 17l-134 130l75 79l95 -95q14 -12 26 -12q15 0 32 12z" />
    <glyph glyph-name="Sacute" unicode="&#x15a;" horiz-adv-x="702" 
d="M-10 0l36 174h388q45 0 45 27q0 8 -6 14t-12.5 8.5t-20.5 7.5l-234 76q-101 34 -101 151q0 41 8 78q18 86 63 125t139 39h462l-37 -174h-356q-54 0 -54 -27q0 -9 6.5 -15.5t12 -8.5t18.5 -5.5t15 -4.5l203 -63q66 -21 97 -56t31 -95q0 -35 -9 -78q-20 -94 -64.5 -133.5
t-145.5 -39.5h-484zM594 1007l84 -109l-226 -158l-84 108z" />
    <glyph glyph-name="sacute" unicode="&#x15b;" horiz-adv-x="552" 
d="M-4 0l30 142h289q19 0 19 12q0 5 -3.5 9.5t-12 8.5t-14 6t-17 6t-14.5 5l-97 37q-57 22 -83.5 49.5t-26.5 77.5q0 17 5 42q16 74 55.5 104.5t115.5 30.5h362l-29 -136h-288q-34 0 -34 -10q0 -4 1.5 -7t6 -5.5t8.5 -4t13 -4.5t16 -6l115 -45q66 -26 96.5 -55.5t30.5 -84.5
q0 -17 -5 -42q-15 -73 -54 -101.5t-116 -28.5h-369zM491 837l74 -109l-226 -158l-74 108z" />
    <glyph glyph-name="Scircumflex" unicode="&#x15c;" horiz-adv-x="702" 
d="M-10 0l36 174h388q45 0 45 27q0 8 -6 14t-12.5 8.5t-20.5 7.5l-234 76q-101 34 -101 151q0 41 8 78q18 86 63 125t139 39h462l-37 -174h-356q-54 0 -54 -27q0 -9 6.5 -15.5t12 -8.5t18.5 -5.5t15 -4.5l203 -63q66 -21 97 -56t31 -95q0 -35 -9 -78q-20 -94 -64.5 -133.5
t-145.5 -39.5h-484zM611 740l-91 95q-12 12 -26 12q-15 0 -32 -12l-139 -95l-57 93l185 116q27 17 53 17q30 0 47 -17l133 -130z" />
    <glyph glyph-name="scircumflex" unicode="&#x15d;" horiz-adv-x="552" 
d="M-4 0l30 142h289q19 0 19 12q0 5 -3.5 9.5t-12 8.5t-14 6t-17 6t-14.5 5l-97 37q-57 22 -83.5 49.5t-26.5 77.5q0 17 5 42q16 74 55.5 104.5t115.5 30.5h362l-29 -136h-288q-34 0 -34 -10q0 -4 1.5 -7t6 -5.5t8.5 -4t13 -4.5t16 -6l115 -45q66 -26 96.5 -55.5t30.5 -84.5
q0 -17 -5 -42q-15 -73 -54 -101.5t-116 -28.5h-369zM518 570l-95 95q-12 12 -26 12q-15 0 -32 -12l-135 -95l-57 91l184 118q26 17 54 17q27 0 46 -17l134 -130z" />
    <glyph glyph-name="Scedilla" unicode="&#x15e;" horiz-adv-x="702" 
d="M-10 0l36 174h388q45 0 45 27q0 8 -6 14t-12.5 8.5t-20.5 7.5l-234 76q-101 34 -101 151q0 41 8 78q18 86 63 125t139 39h462l-37 -174h-356q-54 0 -54 -27q0 -9 6.5 -15.5t12 -8.5t18.5 -5.5t15 -4.5l203 -63q66 -21 97 -56t31 -95q0 -35 -9 -78q-20 -94 -64.5 -133.5
t-145.5 -39.5h-108l-16 -23q-4 -6 -4 -8q0 -4 7 -4h5q65 0 65 -62q0 -15 -4 -30q-12 -43 -37.5 -58t-79.5 -15h-83l13 70h69q21 0 24 11q1 4 1 7q0 11 -21 11h-30q-30 0 -30 22q0 14 10 28l35 51h-300z" />
    <glyph glyph-name="scedilla" unicode="&#x15f;" horiz-adv-x="552" 
d="M-4 0l30 142h289q19 0 19 12q0 5 -3.5 9.5t-12 8.5t-14 6t-17 6t-14.5 5l-97 37q-57 22 -83.5 49.5t-26.5 77.5q0 17 5 42q16 74 55.5 104.5t115.5 30.5h362l-29 -136h-288q-34 0 -34 -10q0 -4 1.5 -7t6 -5.5t8.5 -4t13 -4.5t16 -6l115 -45q66 -26 96.5 -55.5t30.5 -84.5
q0 -17 -5 -42q-15 -73 -54 -101.5t-116 -28.5h-74l-16 -23q-4 -4 -4 -8t10 -4q67 0 67 -63q0 -7 -4 -29q-9 -44 -35 -58.5t-82 -14.5h-83l13 70h69q21 0 24 11q1 3 1 7q0 11 -21 11h-30q-30 0 -30 22q0 14 10 28l35 51h-219z" />
    <glyph glyph-name="Scaron" unicode="&#x160;" horiz-adv-x="702" 
d="M-10 0l36 174h388q45 0 45 27q0 8 -6 14t-12.5 8.5t-20.5 7.5l-234 76q-101 34 -101 151q0 41 8 78q18 86 63 125t139 39h462l-37 -174h-356q-54 0 -54 -27q0 -9 6.5 -15.5t12 -8.5t18.5 -5.5t15 -4.5l203 -63q66 -21 97 -56t31 -95q0 -35 -9 -78q-20 -94 -64.5 -133.5
t-145.5 -39.5h-484zM641 966l55 -95l-184 -114q-29 -17 -54 -17q-27 0 -46 17l-134 130l75 79l91 -95q12 -12 26 -12t32 12z" />
    <glyph glyph-name="scaron" unicode="&#x161;" horiz-adv-x="552" 
d="M-4 0l30 142h289q19 0 19 12q0 5 -3.5 9.5t-12 8.5t-14 6t-17 6t-14.5 5l-97 37q-57 22 -83.5 49.5t-26.5 77.5q0 17 5 42q16 74 55.5 104.5t115.5 30.5h362l-29 -136h-288q-34 0 -34 -10q0 -4 1.5 -7t6 -5.5t8.5 -4t13 -4.5t16 -6l115 -45q66 -26 96.5 -55.5t30.5 -84.5
q0 -17 -5 -42q-15 -73 -54 -101.5t-116 -28.5h-369zM536 796l55 -93l-184 -116q-27 -17 -54 -17t-46 17l-134 130l75 79l95 -95q14 -12 26 -12q15 0 32 12z" />
    <glyph glyph-name="Tcedilla" unicode="&#x162;" horiz-adv-x="726" 
d="M221 -200l13 70h69q21 0 24 11q1 4 1 7q0 11 -21 11h-30q-30 0 -30 22q0 14 10 28l35 51h-80l112 526h-250l37 174h726l-37 -174h-250l-112 -526h-70l-16 -23q-4 -6 -4 -8q0 -4 7 -4h5q65 0 65 -62q0 -15 -4 -30q-12 -43 -37.5 -58t-79.5 -15h-83z" />
    <glyph glyph-name="tcedilla" unicode="&#x163;" horiz-adv-x="430" 
d="M93 -200l13 70h69q21 0 24 11q1 3 1 7q0 11 -21 11h-30q-30 0 -30 22q0 14 10 28l43 61q-96 31 -96 128q0 26 4 42l44 210h-75l30 140h75l36 170h196l-36 -170h151l-30 -140h-151l-25 -120q-6 -26 -6 -59q0 -71 98 -71h31l-30 -140h-147l-17 -23q-4 -4 -4 -8t10 -4
q67 0 67 -63q0 -7 -4 -29q-9 -44 -35 -58.5t-82 -14.5h-83z" />
    <glyph glyph-name="Tcaron" unicode="&#x164;" horiz-adv-x="726" 
d="M438 0h-226l112 526h-250l37 174h726l-37 -174h-250zM663 966l55 -95l-184 -114q-29 -17 -54 -17q-27 0 -46 17l-134 130l75 79l91 -95q12 -12 26 -12t32 12z" />
    <glyph glyph-name="tcaron" unicode="&#x165;" horiz-adv-x="430" 
d="M388 0h-147q-71 0 -118 35.5t-47 102.5q0 26 4 42l44 210h-75l30 140h75l36 170h196l-36 -170h151l-30 -140h-151l-25 -120q-6 -26 -6 -59q0 -71 98 -71h31zM533 550l-140 65l147 286l156 -71z" />
    <glyph glyph-name="Umacron" unicode="&#x16a;" horiz-adv-x="794" 
d="M397 174q62 0 97.5 29t49.5 95l86 402h226l-90 -420q-19 -89 -50.5 -146t-81.5 -88t-109 -42.5t-147 -11.5q-149 0 -231.5 53.5t-82.5 162.5q0 38 8 72l90 420h226l-86 -402q-5 -27 -5 -44q0 -80 100 -80zM665 770h-289l24 110h289z" />
    <glyph glyph-name="umacron" unicode="&#x16b;" horiz-adv-x="650" 
d="M696 530l-89 -420q-23 -110 -134 -110h-254q-78 0 -125 41.5t-47 111.5q0 24 5 47l70 330h196l-60 -282q-5 -27 -5 -42q0 -36 22 -52t70 -16h32q23 0 33 8.5t15 31.5l75 352h196zM556 596h-289l23 110h289z" />
    <glyph glyph-name="Ubreve" unicode="&#x16c;" horiz-adv-x="794" 
d="M397 174q62 0 97.5 29t49.5 95l86 402h226l-90 -420q-19 -89 -50.5 -146t-81.5 -88t-109 -42.5t-147 -11.5q-149 0 -231.5 53.5t-82.5 162.5q0 38 8 72l90 420h226l-86 -402q-5 -27 -5 -44q0 -80 100 -80zM514 843q74 0 112 71h129q-24 -93 -82.5 -133.5t-170.5 -40.5
q-199 0 -199 174h129q7 -71 82 -71z" />
    <glyph glyph-name="ubreve" unicode="&#x16d;" horiz-adv-x="650" 
d="M696 530l-89 -420q-23 -110 -134 -110h-254q-78 0 -125 41.5t-47 111.5q0 24 5 47l70 330h196l-60 -282q-5 -27 -5 -42q0 -36 22 -52t70 -16h32q23 0 33 8.5t15 31.5l75 352h196zM423 663q74 0 112 71h129q-32 -93 -90.5 -133.5t-162.5 -40.5q-100 0 -149.5 41.5
t-49.5 132.5h129q7 -71 82 -71z" />
    <glyph glyph-name="Uring" unicode="&#x16e;" horiz-adv-x="794" 
d="M397 174q62 0 97.5 29t49.5 95l86 402h226l-90 -420q-19 -89 -50.5 -146t-81.5 -88t-109 -42.5t-147 -11.5q-149 0 -231.5 53.5t-82.5 162.5q0 38 8 72l90 420h226l-86 -402q-5 -27 -5 -44q0 -80 100 -80zM549 978q54 0 78 -20.5t24 -61.5q0 -27 -4 -47
q-10 -61 -41 -84.5t-99 -23.5q-104 0 -104 82q0 21 5 46q10 61 41.5 85t99.5 24zM480 863q-3 -11 -3 -25q0 -31 40 -31q28 0 40 11.5t18 36.5q3 12 3 25q0 32 -39 32q-28 0 -41 -12t-18 -37z" />
    <glyph glyph-name="uring" unicode="&#x16f;" horiz-adv-x="650" 
d="M696 530l-89 -420q-23 -110 -134 -110h-254q-78 0 -125 41.5t-47 111.5q0 24 5 47l70 330h196l-60 -282q-5 -27 -5 -42q0 -36 22 -52t70 -16h32q23 0 33 8.5t15 31.5l75 352h196zM453 807q102 0 102 -86q0 -23 -4 -43q-13 -62 -42.5 -85t-97.5 -23q-104 0 -104 86
q0 17 5 42q13 62 43.5 85.5t97.5 23.5zM384 690q-3 -10 -3 -23q0 -31 40 -31q28 0 40 12.5t18 37.5q3 12 3 23q0 32 -39 32q-49 0 -59 -51z" />
    <glyph glyph-name="Uhungarumlaut" unicode="&#x170;" horiz-adv-x="794" 
d="M397 174q62 0 97.5 29t49.5 95l86 402h226l-90 -420q-19 -89 -50.5 -146t-81.5 -88t-109 -42.5t-147 -11.5q-149 0 -231.5 53.5t-82.5 162.5q0 38 8 72l90 420h226l-86 -402q-5 -27 -5 -44q0 -80 100 -80zM498 1003l89 -85l-202 -189l-88 84zM757 1003l89 -85l-202 -189
l-88 84z" />
    <glyph glyph-name="uhungarumlaut" unicode="&#x171;" horiz-adv-x="650" 
d="M696 530l-89 -420q-23 -110 -134 -110h-254q-78 0 -125 41.5t-47 111.5q0 24 5 47l70 330h196l-60 -282q-5 -27 -5 -42q0 -36 22 -52t70 -16h32q23 0 33 8.5t15 31.5l75 352h196zM401 851l88 -85l-202 -189l-88 84zM660 851l88 -85l-202 -189l-88 84z" />
    <glyph glyph-name="Uogonek" unicode="&#x172;" horiz-adv-x="794" 
d="M465 -209h-75q-80 0 -80 50q0 35 22 62l72 90q-4 0 -12.5 -0.5t-13.5 -0.5q-149 0 -231.5 53.5t-82.5 162.5q0 38 8 72l90 420h226l-86 -402q-5 -27 -5 -44q0 -80 100 -80q62 0 97.5 29t49.5 95l86 402h226l-90 -420q-29 -137 -91.5 -200.5t-168.5 -79.5l-73 -91
q-14 -17 -14 -26q0 -13 24 -13h39z" />
    <glyph glyph-name="uogonek" unicode="&#x173;" horiz-adv-x="650" 
d="M434 -209h-75q-80 0 -80 50q0 35 22 62l79 97h-161q-78 0 -125 41.5t-47 111.5q0 24 5 47l70 330h196l-60 -282q-5 -27 -5 -42q0 -36 22 -52t70 -16h32q23 0 33 8.5t15 31.5l75 352h196l-89 -420q-23 -108 -130 -110l-75 -91q-14 -17 -14 -26q0 -13 24 -13h39z" />
    <glyph glyph-name="Ydieresis" unicode="&#x178;" horiz-adv-x="792" 
d="M433 398l238 302h252l-410 -506l-42 -194h-226l42 194l-196 506h232zM736 766h-182l28 129h182zM469 766h-183l28 129h183z" />
    <glyph glyph-name="Zacute" unicode="&#x179;" horiz-adv-x="679" 
d="M630 0h-528q-119 0 -119 77q0 16 2 25q17 78 99 143l326 256q13 10 13 19q0 6 -16 6h-298l37 174h533q91 0 91 -72q0 -14 -3 -31q-9 -43 -26 -68t-60 -58l-348 -273q-13 -11 -13 -16q0 -8 10 -8h337zM582 1007l84 -109l-226 -158l-84 108z" />
    <glyph glyph-name="zacute" unicode="&#x17a;" horiz-adv-x="556" 
d="M508 0h-430q-32 0 -54.5 25t-22.5 62q0 15 3 29q7 36 24.5 55.5t55.5 43.5l256 165q10 5 10 10q0 4 -9 4h-257l29 136h409q39 0 64.5 -23.5t25.5 -60.5q0 -15 -3 -27q-6 -28 -19.5 -48.5t-25 -29.5t-35.5 -24l-248 -160q-11 -7 -11 -11t9 -4h260zM493 837l74 -109
l-226 -158l-74 108z" />
    <glyph glyph-name="Zdotaccent" unicode="&#x17b;" horiz-adv-x="679" 
d="M630 0h-528q-119 0 -119 77q0 16 2 25q17 78 99 143l326 256q13 10 13 19q0 6 -16 6h-298l37 174h533q91 0 91 -72q0 -14 -3 -31q-9 -43 -26 -68t-60 -58l-348 -273q-13 -11 -13 -16q0 -8 10 -8h337zM576 766h-226l28 129h226z" />
    <glyph glyph-name="zdotaccent" unicode="&#x17c;" horiz-adv-x="556" 
d="M508 0h-430q-32 0 -54.5 25t-22.5 62q0 15 3 29q7 36 24.5 55.5t55.5 43.5l256 165q10 5 10 10q0 4 -9 4h-257l29 136h409q39 0 64.5 -23.5t25.5 -60.5q0 -15 -3 -27q-6 -28 -19.5 -48.5t-25 -29.5t-35.5 -24l-248 -160q-11 -7 -11 -11t9 -4h260zM447 583h-196l25 117
h196z" />
    <glyph glyph-name="Zcaron" unicode="&#x17d;" horiz-adv-x="679" 
d="M630 0h-528q-119 0 -119 77q0 16 2 25q17 78 99 143l326 256q13 10 13 19q0 6 -16 6h-298l37 174h533q91 0 91 -72q0 -14 -3 -31q-9 -43 -26 -68t-60 -58l-348 -273q-13 -11 -13 -16q0 -8 10 -8h337zM639 966l55 -95l-184 -114q-29 -17 -54 -17q-27 0 -46 17l-134 130
l75 79l91 -95q12 -12 26 -12t32 12z" />
    <glyph glyph-name="zcaron" unicode="&#x17e;" horiz-adv-x="556" 
d="M508 0h-430q-32 0 -54.5 25t-22.5 62q0 15 3 29q7 36 24.5 55.5t55.5 43.5l256 165q10 5 10 10q0 4 -9 4h-257l29 136h409q39 0 64.5 -23.5t25.5 -60.5q0 -15 -3 -27q-6 -28 -19.5 -48.5t-25 -29.5t-35.5 -24l-248 -160q-11 -7 -11 -11t9 -4h260zM548 796l55 -93
l-184 -116q-27 -17 -54 -17t-46 17l-134 130l75 79l95 -95q13 -12 26 -12q15 0 32 12z" />
    <glyph glyph-name="uni018F" unicode="&#x18f;" horiz-adv-x="758" 
d="M384 0h-66q-141 0 -212 43t-71 137q0 37 6 66q7 34 16 60t22.5 45.5t27 33.5t35.5 23.5t42 15t52.5 8t61 3.5t73.5 1h173q1 6 1 16q0 43 -40 58.5t-125 15.5h-240l37 174h336q135 0 200.5 -66.5t65.5 -190.5q0 -66 -14 -133q-26 -124 -67 -188.5t-114 -93t-200 -28.5z
M273 234q-2 -9 -2 -21q0 -39 72 -39h50q53 0 79 21.5t41 82.5h-148q-48 0 -67 -8t-25 -36z" />
    <glyph glyph-name="florin" unicode="&#x192;" horiz-adv-x="421" 
d="M104 -170h-195l217 560h-79l54 140h79q16 37 39.5 66t47 47.5t58.5 31.5t61 19t69.5 9.5t67.5 4t70 0.5l-48 -122q-86 0 -119 -8.5t-50 -47.5h148l-54 -140h-148z" />
    <glyph glyph-name="uni01CF" unicode="&#x1cf;" horiz-adv-x="326" 
d="M238 0h-226l149 700h226zM463 966l55 -95l-184 -114q-29 -17 -54 -17q-27 0 -46 17l-134 130l75 79l91 -95q12 -12 26 -12t32 12z" />
    <glyph glyph-name="uni01D0" unicode="&#x1d0;" horiz-adv-x="272" 
d="M9 0l113 530h196l-113 -530h-196zM408 796l55 -93l-184 -116q-27 -17 -54 -17t-46 17l-134 130l75 79l95 -95q13 -12 26 -12q15 0 32 12z" />
    <glyph glyph-name="uni01DD" unicode="&#x1dd;" horiz-adv-x="617" 
d="M127 530h325q97 0 143 -39t46 -124q0 -55 -15 -125q-10 -45 -18.5 -77t-21 -58.5t-24.5 -44t-32.5 -30.5t-39.5 -20t-51 -11.5t-62.5 -5.5t-78.5 -1q-140 0 -205.5 32.5t-65.5 124.5q0 36 10 79q12 49 37 73.5t75 24.5h289q3 12 3 21q0 25 -20.5 35t-65.5 10h-257z
M412 204h-145q-22 0 -28.5 -4.5t-9.5 -18.5q-2 -10 -2 -17q0 -34 80 -34q49 0 72 14t33 60z" />
    <glyph glyph-name="Gcaron" unicode="&#x1e6;" horiz-adv-x="760" 
d="M788 526h-302q-87 0 -126.5 -32.5t-60.5 -133.5q-11 -52 -11 -92q0 -53 29 -73.5t94 -20.5h48q44 0 54 44l32 152h226l-55 -260q-11 -52 -46 -81t-88 -29h-264q-264 0 -264 247q0 64 13 133q34 183 114 251.5t266 68.5h378zM680 966l55 -95l-184 -114q-29 -17 -54 -17
q-27 0 -46 17l-134 130l75 79l91 -95q12 -12 26 -12t32 12z" />
    <glyph glyph-name="gcaron" unicode="&#x1e7;" horiz-adv-x="626" 
d="M328 530h234q43 0 66 -23t23 -60q0 -13 -3 -27l-78 -370q-25 -120 -92 -175t-187 -55h-297l27 128h241q37 0 61 10t40 42h-128q-98 0 -145.5 52t-47.5 142q0 44 10 90q14 65 31 107t48 75.5t79 48.5t118 15zM393 140l42 200q3 15 3 24q0 15 -9.5 20.5t-32.5 5.5h-36
q-50 0 -73 -33t-36 -93q-7 -30 -7 -54q0 -70 59 -70h90zM583 796l55 -93l-184 -116q-27 -17 -54 -17t-46 17l-134 130l75 79l95 -95q13 -12 26 -12q15 0 32 12z" />
    <glyph glyph-name="AEacute" unicode="&#x1fc;" horiz-adv-x="1174" 
d="M1250 700l-36 -170h-346q-44 0 -53 -44l-11 -52h382l-33 -154h-382l-14 -66q-2 -12 -2 -16q0 -28 36 -28h351l-36 -170h-511q-43 0 -66 23t-23 61q0 12 3 26l6 31h-205l-112 -141h-265l507 622q38 47 82 62.5t109 15.5h619zM577 502l-150 -199h123l42 198q1 4 1 9t-2 5
q-4 0 -14 -13zM841 1007l84 -109l-226 -158l-84 108z" />
    <glyph glyph-name="aeacute" unicode="&#x1fd;" horiz-adv-x="987" 
d="M915 0h-335q-56 0 -86 24q-31 -24 -71 -24h-278q-59 0 -89 34.5t-30 94.5q0 32 7 69q16 77 49 105.5t114 28.5h242l2 10q1 5 1 13q0 39 -50 39h-276l29 136h342q49 0 82 -30q35 21 78.5 28.5t117.5 7.5q133 0 191.5 -30t58.5 -116q0 -48 -10 -88q-12 -50 -37 -75t-74 -25
h-289q-3 -12 -3 -21q0 -25 20.5 -35t65.5 -10h257zM412 208h-139q-38 0 -45 -32q-2 -10 -2 -17q0 -12 7.5 -20.5t20.5 -8.5h101q22 0 32.5 8.5t15.5 31.5zM630 326h145q15 0 23.5 4t11 8.5t4.5 12.5q1 4 1 15q0 34 -80 34q-49 0 -72 -14t-33 -60zM641 837l74 -109l-226 -158
l-74 108z" />
    <glyph glyph-name="Scommaaccent" unicode="&#x218;" horiz-adv-x="702" 
d="M-10 0l36 174h388q45 0 45 27q0 8 -6 14t-12.5 8.5t-20.5 7.5l-234 76q-101 34 -101 151q0 41 8 78q18 86 63 125t139 39h462l-37 -174h-356q-54 0 -54 -27q0 -9 6.5 -15.5t12 -8.5t18.5 -5.5t15 -4.5l203 -63q66 -21 97 -56t31 -95q0 -35 -9 -78q-20 -94 -64.5 -133.5
t-145.5 -39.5h-484zM305 -300l-111 44l117 229l125 -49z" />
    <glyph glyph-name="scommaaccent" unicode="&#x219;" horiz-adv-x="552" 
d="M-4 0l30 142h289q19 0 19 12q0 5 -3.5 9.5t-12 8.5t-14 6t-17 6t-14.5 5l-97 37q-57 22 -83.5 49.5t-26.5 77.5q0 17 5 42q16 74 55.5 104.5t115.5 30.5h362l-29 -136h-288q-34 0 -34 -10q0 -4 1.5 -7t6 -5.5t8.5 -4t13 -4.5t16 -6l115 -45q66 -26 96.5 -55.5t30.5 -84.5
q0 -17 -5 -42q-15 -73 -54 -101.5t-116 -28.5h-369zM231 -300l-111 44l117 229l125 -49z" />
    <glyph glyph-name="Tcommaaccent" unicode="&#x21a;" horiz-adv-x="726" 
d="M438 0h-226l112 526h-250l37 174h726l-37 -174h-250zM277 -300l-111 44l117 229l125 -49z" />
    <glyph glyph-name="tcommaaccent" unicode="&#x21b;" horiz-adv-x="430" 
d="M388 0h-147q-71 0 -118 35.5t-47 102.5q0 26 4 42l44 210h-75l30 140h75l36 170h196l-36 -170h151l-30 -140h-151l-25 -120q-6 -26 -6 -59q0 -71 98 -71h31zM170 -300l-111 44l117 229l125 -49z" />
    <glyph glyph-name="uni0228" unicode="&#x228;" horiz-adv-x="700" 
d="M248 -200l13 70h69q21 0 24 11q1 4 1 7q0 11 -21 11h-30q-30 0 -30 22q0 14 10 28l35 51h-197q-43 0 -66 23t-23 60q0 13 3 27l102 480q12 55 43.5 82.5t89.5 27.5h506l-36 -170h-346q-44 0 -53 -44l-11 -52h382l-33 -154h-382l-14 -66q-2 -12 -2 -16q0 -28 36 -28h350
l-36 -170h-237l-16 -23q-4 -6 -4 -8q0 -4 7 -4h5q65 0 65 -62q0 -15 -4 -30q-12 -43 -37.5 -58t-79.5 -15h-83z" />
    <glyph glyph-name="uni0229" unicode="&#x229;" horiz-adv-x="617" 
d="M206 -200l13 70h69q21 0 24 11q1 3 1 7q0 11 -21 11h-30q-30 0 -30 22q0 14 10 28l35 51h-48q-97 0 -142 39t-45 124q0 57 15 125q13 58 26.5 97.5t35 68t43.5 44t61 24.5t77.5 11.5t102.5 2.5q133 0 191.5 -30t58.5 -116q0 -48 -10 -88q-12 -50 -37 -75t-74 -25h-289
q-3 -12 -3 -21q0 -25 20.5 -35t65.5 -10h257l-29 -136h-201l-16 -23q-4 -4 -4 -8t10 -4q67 0 67 -63q0 -7 -4 -29q-9 -44 -35 -58.5t-82 -14.5h-83zM269 326h145q15 0 23.5 4t11 8.5t4.5 12.5q1 4 1 15q0 34 -80 34q-49 0 -72 -14t-33 -60z" />
    <glyph glyph-name="uni0237" unicode="&#x237;" horiz-adv-x="344" 
d="M-95 -170l27 126q78 0 120 28.5t57 101.5l94 444h196l-104 -490q-13 -62 -38 -102.5t-50.5 -62t-80.5 -32t-94.5 -12t-126.5 -1.5z" />
    <glyph glyph-name="uni0259" unicode="&#x259;" horiz-adv-x="617" 
d="M127 530h325q97 0 143 -39t46 -124q0 -55 -15 -125q-10 -45 -18.5 -77t-21 -58.5t-24.5 -44t-32.5 -30.5t-39.5 -20t-51 -11.5t-62.5 -5.5t-78.5 -1q-140 0 -205.5 32.5t-65.5 124.5q0 36 10 79q12 49 37 73.5t75 24.5h289q3 12 3 21q0 25 -20.5 35t-65.5 10h-257z
M412 204h-145q-22 0 -28.5 -4.5t-9.5 -18.5q-2 -10 -2 -17q0 -34 80 -34q49 0 72 14t33 60z" />
    <glyph glyph-name="afii57929" unicode="&#x2bc;" 
d="M172 394l-140 65l147 286l156 -71z" />
    <glyph glyph-name="circumflex" unicode="&#x2c6;" 
d="M442 570l-95 95q-12 12 -26 12q-15 0 -32 -12l-135 -95l-57 91l184 118q26 17 54 17q27 0 46 -17l134 -130z" />
    <glyph glyph-name="caron" unicode="&#x2c7;" 
d="M480 796l55 -93l-184 -116q-27 -17 -54 -17t-46 17l-134 130l75 79l95 -95q13 -12 26 -12q15 0 32 12z" />
    <glyph glyph-name="uni02C9" unicode="&#x2c9;" horiz-adv-x="401" 
d="M452 596h-289l23 110h289z" />
    <glyph glyph-name="breve" unicode="&#x2d8;" 
d="M328 663q74 0 112 71h129q-32 -93 -90.5 -133.5t-162.5 -40.5q-100 0 -149.5 41.5t-49.5 132.5h129q7 -71 82 -71z" />
    <glyph glyph-name="dotaccent" unicode="&#x2d9;" 
d="M329 583h-196l25 117h196z" />
    <glyph glyph-name="ring" unicode="&#x2da;" 
d="M338 807q102 0 102 -86q0 -23 -4 -43q-13 -62 -42.5 -85t-97.5 -23q-104 0 -104 86q0 17 5 42q13 62 43.5 85.5t97.5 23.5zM269 690q-3 -10 -3 -23q0 -31 40 -31q28 0 40 12.5t18 37.5q3 12 3 23q0 32 -39 32q-49 0 -59 -51z" />
    <glyph glyph-name="ogonek" unicode="&#x2db;" horiz-adv-x="222" 
d="M168 -209h-75q-80 0 -80 50q0 35 22 62l79 97h97l-75 -91q-14 -17 -14 -26q0 -13 24 -13h39z" />
    <glyph glyph-name="tilde" unicode="&#x2dc;" 
d="M138 574l-68 66q85 95 169 95q19 0 53 -17l30 -15q40 -20 57 -20q37 0 89 59l69 -62q-45 -49 -84.5 -76.5t-88.5 -27.5q-32 0 -67 20l-28 15q-28 14 -44 14q-30 0 -87 -51z" />
    <glyph glyph-name="hungarumlaut" unicode="&#x2dd;" 
d="M276 851l88 -85l-202 -189l-88 84zM535 851l88 -85l-202 -189l-88 84z" />
    <glyph glyph-name="acutecomb" unicode="&#x301;" horiz-adv-x="2" 
d="M-130 837l74 -109l-226 -158l-74 108z" />
    <glyph glyph-name="uni037E" unicode="&#x37e;" horiz-adv-x="359" 
d="M85 -163l-120 92l207 256l134 -102zM364 356h-196l37 174h196z" />
    <glyph glyph-name="uni0394" unicode="&#x394;" horiz-adv-x="714" 
d="M24 203l268 426q13 22 29 36.5t54.5 28.5t93.5 14q42 0 71 -7t43.5 -20t21 -24.5t9.5 -27.5l86 -426q11 -61 11 -70q0 -21 -5 -42q-19 -91 -112 -91h-550q-75 0 -75 66q0 13 4 33q3 13 6.5 24t10.5 23.5t10 17.5t13 21t11 18zM419 478l-157 -272q-9 -16 -9 -20
q0 -12 21 -12h184q27 0 27 15q0 11 -1 17l-43 272q0 1 -0.5 4t-0.5 5t-0.5 4.5t-2 3.5t-3.5 1q-5 0 -15 -18z" />
    <glyph glyph-name="uni03A9" unicode="&#x3a9;" horiz-adv-x="860" 
d="M226 142l2 7q-148 53 -148 203q0 40 8 79q34 159 128.5 218t305.5 59q179 0 264 -58.5t85 -183.5q0 -48 -5 -79q-19 -120 -79.5 -172.5t-166.5 -65.5l-2 -7h170l-30 -142h-194q-44 0 -68 21t-24 61q0 8 4 32l13 60q8 36 18.5 52t42.5 36q22 14 34 24t26.5 36.5t23.5 65.5
q6 27 6 56q0 48 -33 69t-102 21q-82 0 -125.5 -29t-60.5 -101q-7 -32 -7 -62q0 -50 34 -80q28 -25 28 -50q0 -11 -5 -38l-13 -60q-12 -59 -42 -86.5t-94 -27.5h-194l30 142h170z" />
    <glyph glyph-name="uni03BC" unicode="&#x3bc;" horiz-adv-x="670" 
d="M-6 -177l149 707h197l-63 -300q-4 -16 -4 -32q0 -64 70 -64q36 0 69 29.5t40 63.5l64 303h197l-112 -530h-187l15 73q-20 -38 -51 -58.5t-65 -20.5q-35 0 -56.5 19.5t-24.5 52.5l-52 -243h-186z" />
    <glyph glyph-name="pi" unicode="&#x3c0;" horiz-adv-x="744" 
d="M66 0l84 396q-52 0 -89 -21l29 134q43 21 108 21h620l-28 -134h-70l-51 -238q-3 -16 -3 -27q0 -17 8 -23t25 -6h10l-21 -102q-43 -5 -82 -5q-69 0 -105.5 22.5t-36.5 76.5q0 24 5 45l55 257h-178l-84 -396h-196z" />
    <glyph glyph-name="afii10023" unicode="&#x401;" horiz-adv-x="700" 
d="M777 700l-36 -170h-346q-44 0 -53 -44l-11 -52h382l-33 -154h-382l-14 -66q-2 -12 -2 -16q0 -28 36 -28h350l-36 -170h-510q-43 0 -66 23t-23 60q0 13 3 27l102 480q11 53 46 81.5t87 28.5h506zM700 766h-182l28 129h182zM433 766h-183l28 129h183z" />
    <glyph glyph-name="afii10051" unicode="&#x402;" horiz-adv-x="915" 
d="M123 0l112 526h-161l37 174h678l-37 -174h-291l-19 -90h261q181 0 181 -157q0 -40 -7 -82q-19 -116 -67 -156.5t-180 -40.5h-160l37 174h38q28 0 40.5 1t28 5.5t23 15t11.5 28.5q2 8 2 22q0 23 -18.5 29.5t-63.5 6.5h-159l-60 -282h-226z" />
    <glyph glyph-name="afii10052" unicode="&#x403;" horiz-adv-x="676" 
d="M238 0h-226l126 590q12 55 43.5 82.5t89.5 27.5h506l-37 -174h-346q-44 0 -53 -44zM536 1007l84 -109l-226 -158l-84 108z" />
    <glyph glyph-name="afii10053" unicode="&#x404;" horiz-adv-x="672" 
d="M604 0h-286q-136 0 -200.5 59.5t-64.5 178.5q0 65 14 132q27 125 66.5 193.5t114 102.5t199.5 34h296l-37 -174h-190q-90 0 -132.5 -18.5t-59.5 -71.5h353l-34 -158h-356q-2 -18 -2 -24q0 -47 39 -63.5t127 -16.5h190z" />
    <glyph glyph-name="afii10054" unicode="&#x405;" horiz-adv-x="702" 
d="M-10 0l36 174h388q45 0 45 27q0 8 -6 14t-12.5 8.5t-20.5 7.5l-234 76q-101 34 -101 151q0 41 8 78q18 86 63 125t139 39h462l-37 -174h-356q-54 0 -54 -27q0 -9 6.5 -15.5t12 -8.5t18.5 -5.5t15 -4.5l203 -63q66 -21 97 -56t31 -95q0 -35 -9 -78q-20 -94 -64.5 -133.5
t-145.5 -39.5h-484z" />
    <glyph glyph-name="afii10055" unicode="&#x406;" horiz-adv-x="326" 
d="M238 0h-226l149 700h226z" />
    <glyph glyph-name="afii10056" unicode="&#x407;" horiz-adv-x="354" 
d="M244 0h-226l149 700h226zM476 746h-157l27 129h157zM260 746h-158l27 129h158z" />
    <glyph glyph-name="afii10057" unicode="&#x408;" horiz-adv-x="532" 
d="M-37 0l37 174h95q90 0 132.5 35t61.5 125l78 366h226l-96 -450q-26 -119 -104.5 -184.5t-198.5 -65.5h-231z" />
    <glyph glyph-name="afii10058" unicode="&#x409;" horiz-adv-x="1274" 
d="M522 110l85 400q2 10 2 12q0 7 -9 7q-6 0 -15 -11l-376 -518h-266l499 639q34 44 83.5 56.5t145.5 12.5q100 0 142 -20t42 -64q0 -9 -4 -31l-29 -135h261q92 0 134.5 -47.5t42.5 -128.5q0 -32 -7 -74q-11 -61 -25 -97t-41 -63t-70 -37.5t-111 -10.5h-397q-44 0 -67.5 20
t-23.5 58q0 10 4 32zM944 284h-159l-14 -66q-2 -10 -2 -14q0 -30 37 -30h115q23 0 33 0.5t24.5 2.5t21 7.5t12.5 14.5t9 24t3 23q0 23 -18.5 30.5t-61.5 7.5z" />
    <glyph glyph-name="afii10059" unicode="&#x40a;" horiz-adv-x="1258" 
d="M516 110l37 174h-254l-61 -284h-226l149 700h226l-51 -242h254l51 242h225l-50 -242h251q92 0 134.5 -47.5t42.5 -128.5q0 -32 -7 -74q-11 -61 -25 -97t-41 -63t-70 -37.5t-111 -10.5h-387q-44 0 -67.5 20t-23.5 58q0 10 4 32zM928 284h-149l-14 -66q-2 -10 -2 -14
q0 -30 37 -30h105q23 0 33 0.5t24.5 2.5t21 7.5t12.5 14.5t9 24t3 23q0 23 -18.5 30.5t-61.5 7.5z" />
    <glyph glyph-name="afii10060" unicode="&#x40b;" horiz-adv-x="905" 
d="M123 0l112 526h-161l37 174h678l-37 -174h-291l-22 -103h298q70 0 109 -34.5t39 -95.5q0 -20 -6 -50l-52 -243h-226l38 179q5 27 5 37q0 20 -13 26.5t-47 6.5h-182l-53 -249h-226z" />
    <glyph glyph-name="afii10061" unicode="&#x40c;" horiz-adv-x="803" 
d="M785 0h-262l-164 271q-15 25 -15 58q0 74 41 117l244 254h268l-304 -299q-33 -31 -33 -61q0 -18 18 -44zM12 0l149 700h226l-149 -700h-226zM604 1007l84 -109l-226 -158l-84 108z" />
    <glyph glyph-name="afii10062" unicode="&#x40e;" horiz-adv-x="751" 
d="M366 0h-256l155 199l-174 501h242l85 -312l208 312h256zM493 849q70 0 102 61h160q-24 -91 -91.5 -132.5t-182.5 -41.5q-103 0 -161.5 42.5t-58.5 131.5h160q7 -61 72 -61z" />
    <glyph glyph-name="afii10145" unicode="&#x40f;" horiz-adv-x="806" 
d="M641 700h226l-125 -590q-24 -110 -134 -110h-130l-36 -170h-226l36 170h-130q-43 0 -66 23t-23 60q0 13 3 27l125 590h226l-102 -482q-2 -12 -2 -16q0 -28 36 -28h166q45 0 54 44z" />
    <glyph glyph-name="afii10017" unicode="&#x410;" horiz-adv-x="798" 
d="M-57 0l380 623q30 48 65.5 66.5t112.5 18.5q34 0 54.5 -2.5t43 -10.5t35.5 -25.5t19 -46.5l127 -623h-224l-27 144h-248l-85 -144h-253zM462 481l-98 -177h143l-27 177q-3 15 -6 15q-4 0 -12 -15z" />
    <glyph glyph-name="afii10018" unicode="&#x411;" horiz-adv-x="787" 
d="M137 588q24 112 133 112h554l-37 -174h-394q-29 0 -38 -9.5t-14 -32.5l-10 -48h261q182 0 182 -157q0 -42 -8 -82q-13 -61 -26.5 -95t-41 -59t-69.5 -34t-110 -9h-397q-43 0 -66 23t-23 60q0 13 3 27zM457 282h-159l-14 -66q-2 -10 -2 -14q0 -28 37 -28h115q28 0 40.5 1
t27.5 5.5t22 15t11 28.5q3 18 3 20q0 24 -18.5 31t-62.5 7z" />
    <glyph glyph-name="afii10019" unicode="&#x412;" horiz-adv-x="775" 
d="M297 277l-12 -57q-3 -14 -3 -23q0 -16 9 -21.5t33 -5.5h127q33 0 52.5 10t25.5 38q2 8 2 21q0 38 -57 38h-177zM342 490l-12 -59h168q35 0 51 8t21 36q2 16 2 22q0 19 -13 26t-41 7h-127q-22 0 -33 -8.5t-16 -31.5zM662 356q95 -20 95 -123q0 -31 -5 -57
q-19 -100 -68 -138t-167 -38h-395q-43 0 -66 23t-23 60q0 13 3 27l102 480q12 55 43.5 82.5t89.5 27.5h365q86 0 125.5 -38t39.5 -115q0 -28 -7 -63q-11 -56 -38 -84t-93 -40z" />
    <glyph glyph-name="afii10020" unicode="&#x413;" horiz-adv-x="676" 
d="M238 0h-226l126 590q12 55 43.5 82.5t89.5 27.5h506l-37 -174h-346q-44 0 -53 -44z" />
    <glyph glyph-name="afii10021" unicode="&#x414;" horiz-adv-x="931" 
d="M142 -135h-215l43 199q12 55 43 82.5t89 27.5h10l296 455q14 22 29.5 37t54.5 28.5t94 13.5q42 0 70.5 -7t43 -20t20.5 -24.5t10 -27.5l101 -455h10q43 0 66.5 -23t23.5 -60q0 -13 -3 -27l-43 -199h-216l20 91q2 12 2 15q0 29 -31 29h-452q-37 0 -46 -44zM538 488
l-197 -314h286l-63 314q0 2 -1 6l-1.5 6t-2.5 4t-4 2q-6 0 -17 -18z" />
    <glyph glyph-name="afii10022" unicode="&#x415;" horiz-adv-x="700" 
d="M777 700l-36 -170h-346q-44 0 -53 -44l-11 -52h382l-33 -154h-382l-14 -66q-2 -12 -2 -16q0 -28 36 -28h350l-36 -170h-510q-43 0 -66 23t-23 60q0 13 3 27l102 480q11 53 46 81.5t87 28.5h506z" />
    <glyph glyph-name="afii10024" unicode="&#x416;" horiz-adv-x="1200" 
d="M-57 0l290 304q5 5 15 15.5t14 15t10 12.5t8 14.5t2 14.5q0 10 -17 46l-138 278h240l121 -260q16 -34 16 -65q0 -70 -53 -129l-225 -246h-283zM1182 0h-264l-132 266q-16 32 -16 62q0 36 11.5 61.5t41.5 60.5l216 250h260l-268 -296l-9 -9t-9 -9.5t-7.5 -9.5t-7.5 -11
t-4 -10.5t-2 -12.5q0 -19 21 -56zM449 0l149 700h226l-149 -700h-226z" />
    <glyph glyph-name="afii10025" unicode="&#x417;" horiz-adv-x="698" 
d="M585 356q93 -20 93 -123q0 -27 -6 -57q-13 -69 -34 -104.5t-67 -53.5t-131 -18h-447l36 174h341q35 0 55 9t25 36q2 14 2 21q0 39 -59 39h-327l32 152h320q34 0 49.5 8t21.5 36q2 12 2 20q0 18 -13 24.5t-41 6.5h-329l37 174h401q174 0 174 -153q0 -29 -6 -63
q-10 -57 -36 -85t-92 -39z" />
    <glyph glyph-name="afii10026" unicode="&#x418;" horiz-adv-x="862" 
d="M774 0h-230l98 411v1l1 2q1 4 1 12q0 11 -7 11q-8 0 -33 -34l-250 -340q-53 -71 -187 -71q-128 0 -128 109q0 26 7 59l115 540h230l-95 -401q-4 -18 -4 -24q0 -11 8 -11t26 25l246 337q60 82 187 82q135 0 135 -120q0 -23 -6 -53z" />
    <glyph glyph-name="afii10027" unicode="&#x419;" horiz-adv-x="862" 
d="M774 0h-230l98 411v1l1 2q1 4 1 12q0 11 -7 11q-8 0 -33 -34l-250 -340q-53 -71 -187 -71q-128 0 -128 109q0 26 7 59l115 540h230l-95 -401q-4 -18 -4 -24q0 -11 8 -11t26 25l246 337q60 82 187 82q135 0 135 -120q0 -23 -6 -53zM563 849q70 0 102 61h160
q-24 -91 -91.5 -132.5t-182.5 -41.5q-103 0 -161.5 42.5t-58.5 131.5h160q7 -61 72 -61z" />
    <glyph glyph-name="afii10028" unicode="&#x41a;" horiz-adv-x="803" 
d="M785 0h-262l-164 271q-15 25 -15 58q0 74 41 117l244 254h268l-304 -299q-33 -31 -33 -61q0 -18 18 -44zM12 0l149 700h226l-149 -700h-226z" />
    <glyph glyph-name="afii10029" unicode="&#x41b;" horiz-adv-x="800" 
d="M-57 0l389 626q51 82 180 82t146 -82l124 -626h-226l-71 463q-3 17 -7 17q-5 0 -15 -17l-267 -463h-253z" />
    <glyph glyph-name="afii10030" unicode="&#x41c;" horiz-adv-x="1072" 
d="M831 424l-179 -338q-12 -23 -22 -37t-27.5 -28.5t-43.5 -21.5t-62 -7t-59 7t-34 21.5t-15.5 28.5t-6.5 37l-37 338q-2 25 -7 25q-11 0 -14 -23l-84 -426h-228l125 585q26 123 190 123q29 0 50 -3t47.5 -13.5t43 -35.5t20.5 -64l37 -340q3 -32 14 -32q12 0 28 32l177 340
q20 39 47.5 64.5t59 35.5t53.5 13t51 3q157 0 157 -93q0 -15 -3 -30l-125 -585h-228l99 426q2 8 2 13q0 10 -6 10q-7 0 -20 -25z" />
    <glyph glyph-name="afii10031" unicode="&#x41d;" horiz-adv-x="806" 
d="M867 700l-149 -700h-226l59 278h-254l-59 -278h-226l149 700h226l-53 -248h254l53 248h226z" />
    <glyph glyph-name="afii10032" unicode="&#x41e;" horiz-adv-x="830" 
d="M511 708q177 0 256.5 -58.5t79.5 -192.5q0 -60 -11 -127q-15 -91 -39.5 -151.5t-57 -98t-86.5 -57t-112 -25.5t-150 -6q-177 0 -257 58.5t-80 191.5q0 55 12 128q15 91 39.5 151.5t57 98t86.5 57t112 25.5t150 6zM298 360q-11 -52 -11 -94q0 -100 125 -100q89 0 130 37.5
t62 136.5q10 46 10 93q0 101 -124 101q-89 0 -130.5 -38t-61.5 -136z" />
    <glyph glyph-name="afii10033" unicode="&#x41f;" horiz-adv-x="800" 
d="M238 0h-226l126 590q12 55 43.5 82.5t89.5 27.5h480q43 0 66.5 -23t23.5 -60q0 -13 -3 -27l-126 -590h-226l103 482q2 10 2 14q0 30 -37 30h-160q-44 0 -53 -44z" />
    <glyph glyph-name="afii10034" unicode="&#x420;" horiz-adv-x="787" 
d="M238 0h-226l126 590q11 53 46 81.5t87 28.5h377q174 0 174 -175q0 -43 -9 -93q-23 -129 -72.5 -179.5t-178.5 -50.5h-281zM318 376h159q49 0 71 12t33 54q5 17 5 36q0 27 -18.5 37.5t-58.5 10.5h-115q-44 0 -53 -44z" />
    <glyph glyph-name="afii10035" unicode="&#x421;" horiz-adv-x="658" 
d="M604 0h-286q-264 0 -264 247q0 64 13 133q34 183 114 251.5t266 68.5h296l-37 -174h-180q-62 0 -95.5 -4.5t-61.5 -22t-43 -50t-27 -89.5q-11 -53 -11 -93q0 -56 36 -74.5t127 -18.5h190z" />
    <glyph glyph-name="afii10036" unicode="&#x422;" horiz-adv-x="726" 
d="M438 0h-226l112 526h-250l37 174h726l-37 -174h-250z" />
    <glyph glyph-name="afii10037" unicode="&#x423;" horiz-adv-x="751" 
d="M366 0h-256l155 199l-174 501h242l85 -312l208 312h256z" />
    <glyph glyph-name="afii10038" unicode="&#x424;" horiz-adv-x="996" 
d="M496 700h226l-13 -63h100q202 0 202 -206q0 -53 -7 -96q-24 -147 -86 -204.5t-209 -57.5h-120l-16 -73h-226l16 73h-100q-104 0 -153.5 54t-49.5 151q0 48 8 97q24 147 86 204.5t209 57.5h120zM400 247l46 216h-30q-57 0 -80.5 -22t-35.5 -77q-7 -33 -7 -60
q0 -29 17.5 -43t59.5 -14h30zM626 247h30q57 0 80.5 21t35.5 76q6 29 6 60q0 30 -17 44.5t-59 14.5h-30z" />
    <glyph glyph-name="afii10039" unicode="&#x425;" horiz-adv-x="746" 
d="M732 0h-256l-85 197l-169 -197h-283l340 355l-184 345h256l79 -187l159 187h284l-330 -345z" />
    <glyph glyph-name="afii10040" unicode="&#x426;" horiz-adv-x="854" 
d="M285 218q-2 -12 -2 -15q0 -29 37 -29h212l111 526h226l-111 -526h10q43 0 66 -23t23 -60q0 -13 -3 -27l-42 -199h-216l19 91q2 12 2 15q0 29 -30 29h-464q-43 0 -66.5 23t-23.5 60q0 13 3 27l125 590h226z" />
    <glyph glyph-name="afii10041" unicode="&#x427;" horiz-adv-x="794" 
d="M706 0h-226l59 277h-298q-69 0 -108 35t-39 97q0 27 5 48l52 243h226l-38 -179q-5 -27 -5 -37q0 -20 13 -26.5t47 -6.5h182l53 249h226z" />
    <glyph glyph-name="afii10042" unicode="&#x428;" horiz-adv-x="1132" 
d="M967 700h226l-125 -590q-24 -110 -134 -110h-812q-43 0 -66 23t-23 60q0 13 3 27l125 590h226l-102 -482q-2 -12 -2 -16q0 -28 36 -28h133l112 526h226l-112 -526h133q45 0 54 44z" />
    <glyph glyph-name="afii10043" unicode="&#x429;" horiz-adv-x="1178" 
d="M387 700l-102 -482q-2 -12 -2 -15q0 -29 37 -29h133l111 526h226l-111 -526h177l111 526h226l-111 -526h10q43 0 66 -23t23 -60q0 -13 -3 -27l-42 -199h-216l19 91q2 12 2 15q0 29 -28 29h-790q-43 0 -66.5 23t-23.5 60q0 13 3 27l125 590h226z" />
    <glyph glyph-name="afii10044" unicode="&#x42a;" horiz-adv-x="899" 
d="M233 0q-43 0 -66 23t-23 60q0 13 3 27l79 372q2 10 2 14q0 30 -37 30h-117l37 174h277q43 0 66.5 -23t23.5 -60q0 -13 -3 -27l-28 -132h261q93 0 135 -44.5t42 -131.5q0 -38 -7 -74q-16 -81 -38 -122.5t-71.5 -63.5t-138.5 -22h-397zM569 284h-159l-14 -66q-2 -12 -2 -16
q0 -28 36 -28h115q28 0 40.5 1t27.5 5.5t22 15t11 28.5q3 14 3 22q0 24 -18.5 31t-61.5 7z" />
    <glyph glyph-name="afii10045" unicode="&#x42b;" horiz-adv-x="1087" 
d="M999 0h-226l149 700h226zM36 110l125 590h226l-51 -242h251q93 0 135 -44.5t42 -131.5q0 -38 -7 -74q-16 -81 -38 -122.5t-71.5 -63.5t-138.5 -22h-387q-43 0 -66 23t-23 60q0 13 3 27zM448 284h-149l-14 -66q-2 -12 -2 -16q0 -28 36 -28h105q28 0 40.5 1t27.5 5.5t22 15
t11 28.5q3 13 3 22q0 24 -18.5 31t-61.5 7z" />
    <glyph glyph-name="afii10046" unicode="&#x42c;" horiz-adv-x="788" 
d="M36 110l125 590h226l-51 -242h261q93 0 135 -44.5t42 -131.5q0 -38 -7 -74q-16 -81 -38 -122.5t-71.5 -63.5t-138.5 -22h-397q-43 0 -66 23t-23 60q0 13 3 27zM458 284h-159l-14 -66q-2 -12 -2 -16q0 -28 36 -28h115q28 0 40.5 1t27.5 5.5t22 15t11 28.5q3 13 3 22
q0 24 -18.5 31t-61.5 7z" />
    <glyph glyph-name="afii10047" unicode="&#x42d;" horiz-adv-x="676" 
d="M298 0h-305l36 174h200q96 0 139 20.5t59 83.5h-356l34 158h353q1 5 1 14q0 44 -39.5 60t-125.5 16h-180l37 174h276q266 0 266 -239q0 -64 -14 -131q-20 -94 -46 -153.5t-70 -101t-107.5 -58.5t-157.5 -17z" />
    <glyph glyph-name="afii10048" unicode="&#x42e;" horiz-adv-x="1158" 
d="M844 708q177 0 254 -58t77 -193q0 -60 -11 -127q-13 -76 -30 -130t-44.5 -92t-58.5 -60.5t-80.5 -35t-100 -16.5t-126.5 -4q-177 0 -254.5 58t-77.5 192q0 26 1 39h-95l-60 -281h-226l149 700h226l-56 -264h86q17 73 42 121.5t57 78.5t83 46t105.5 21t139.5 5zM636 360
q-11 -52 -11 -94q0 -100 120 -100q88 0 127 37t60 137q10 46 10 93q0 101 -119 101q-89 0 -127.5 -37.5t-59.5 -136.5z" />
    <glyph glyph-name="afii10049" unicode="&#x42f;" horiz-adv-x="790" 
d="M828 590l-126 -590h-226l103 482q1 5 1 14q0 30 -37 30h-129q-47 0 -66.5 -13t-28.5 -57q-5 -22 -5 -40q0 -26 15.5 -37.5t50.5 -11.5h34q88 0 88 -56q0 -11 -3 -23l-4 -16q-13 -50 -68 -104l-173 -168h-271l233 205l1 4h-8q-126 0 -126 177q0 42 11 92q17 80 42 125.5
t75.5 71t133.5 25.5h396q43 0 66.5 -23t23.5 -60q0 -13 -3 -27z" />
    <glyph glyph-name="afii10065" unicode="&#x430;" horiz-adv-x="630" 
d="M144 530h342q77 0 116.5 -37.5t39.5 -101.5q0 -24 -4 -41l-51 -240q-24 -110 -134 -110h-308q-59 0 -89 34.5t-30 94.5q0 32 7 69q16 77 49 105.5t114 28.5h242l2 10q1 5 1 13q0 39 -50 39h-276zM412 208h-139q-38 0 -45 -32q-2 -10 -2 -17q0 -12 7.5 -20.5t20.5 -8.5
h101q22 0 32.5 8.5t15.5 31.5z" />
    <glyph glyph-name="afii10066" unicode="&#x431;" horiz-adv-x="641" 
d="M672 564h-245q-54 0 -85.5 -15t-41.5 -63h143q101 0 148.5 -42t47.5 -129q0 -52 -10 -97q-13 -64 -31.5 -104.5t-40 -65t-61 -36t-79.5 -15t-111 -3.5q-140 0 -204 32.5t-64 117.5q0 32 9 72l58 275q44 209 246 209h349zM271 350l-29 -136q-3 -15 -3 -27q0 -29 19 -41
t58 -12q51 0 76.5 25t37.5 79q8 35 8 57q0 55 -64 55h-103z" />
    <glyph glyph-name="afii10067" unicode="&#x432;" horiz-adv-x="637" 
d="M527 274l-1 -4q39 -5 63.5 -30.5t24.5 -68.5q0 -21 -3 -35q-8 -38 -23 -64t-31.5 -40t-44.5 -21.5t-51 -9t-62 -1.5h-280q-43 0 -66 23t-23 60q0 13 3 27l66 310q23 110 133 110h266q35 0 62 -4.5t50 -16t35.5 -33.5t12.5 -54q0 -17 -5 -45q-10 -53 -38 -76t-88 -27z
M275 328h119q20 0 29.5 1t20 8.5t13.5 22.5q1 4 1 12q0 16 -12 20t-37 4h-79q-40 0 -50 -44zM250 208l-6 -28q-2 -7 -2 -18q0 -26 32 -26h78q20 0 30 1t21 9t14 24q1 4 1 12q0 11 -7.5 17t-17 7.5t-25.5 1.5h-118z" />
    <glyph glyph-name="afii10068" unicode="&#x433;" horiz-adv-x="549" 
d="M9 0l90 420q13 60 43 85t90 25h391l-30 -140h-265q-22 0 -33 -9t-15 -31l-75 -350h-196z" />
    <glyph glyph-name="afii10069" unicode="&#x434;" horiz-adv-x="778" 
d="M-53 -130l34 160q13 62 38.5 86t84.5 24h10l196 327q41 69 171 69q122 0 135 -69l64 -327h10q80 0 80 -78q0 -8 -4 -32l-34 -160h-176l19 90q2 7 2 17q0 23 -33 23h-361q-18 0 -27.5 -9.5t-14.5 -30.5l-19 -90h-175zM430 353l-124 -223h198l-34 223q-3 21 -16 21t-24 -21
z" />
    <glyph glyph-name="afii10070" unicode="&#x435;" horiz-adv-x="627" 
d="M554 0h-325q-97 0 -142 39t-45 124q0 57 15 125q13 58 26.5 97.5t35 68t43.5 44t61 24.5t77.5 11.5t102.5 2.5q133 0 191.5 -30t58.5 -116q0 -48 -10 -88q-12 -50 -37 -75t-74 -25h-289q-3 -12 -3 -21q0 -25 20.5 -35t65.5 -10h257zM269 326h145q15 0 23.5 4t11 8.5
t4.5 12.5q1 4 1 15q0 34 -80 34q-49 0 -72 -14t-33 -60z" />
    <glyph glyph-name="afii10072" unicode="&#x436;" horiz-adv-x="950" 
d="M539 0h-186l113 530h186zM935 0h-207l-97 211q-13 34 -13 51q0 6 1 12t4.5 12.5t6 11t8 12.5t8 11.5t9.5 12t9 11.5l145 185h215l-180 -217q-2 -3 -7 -8.5t-7.5 -8.5t-6.5 -8.5t-6 -10t-3.5 -10t-1.5 -10.5q0 -13 15 -44zM-42 0l202 233q36 42 36 55q0 8 -15 45l-87 197
h205l75 -189q16 -39 16 -64t-39 -76l-157 -201h-236z" />
    <glyph glyph-name="afii10073" unicode="&#x437;" horiz-adv-x="587" 
d="M475 274l-1 -4q39 -5 64 -31t25 -68q0 -17 -4 -33q-8 -38 -23 -64t-31.5 -40.5t-44 -22t-51 -9.5t-62.5 -2h-351l30 142h276q20 0 29.5 1t20.5 9t14 24q1 4 1 10q0 16 -12.5 20t-38.5 4h-262l26 122h263q20 0 29.5 1t20 8.5t13.5 22.5q1 4 1 10q0 10 -8 15.5t-16 6
t-26 0.5h-269l28 134h330q76 0 119 -22.5t43 -83.5q0 -22 -6 -47q-12 -54 -39 -77t-88 -26z" />
    <glyph glyph-name="afii10074" unicode="&#x438;" horiz-adv-x="687" 
d="M620 0h-196l69 275q0 1 0.5 4t0.5 5q0 7 -6 7q-5 0 -21 -16l-218 -225q-55 -56 -129 -56q-37 0 -65.5 17t-28.5 57q0 12 3 26l93 436h196l-68 -275q-1 -4 -1 -9q0 -6 6 -6q4 0 22 15l223 231q48 50 120 50q53 0 74 -24t21 -56q0 -8 -3 -26z" />
    <glyph glyph-name="afii10075" unicode="&#x439;" horiz-adv-x="687" 
d="M620 0h-196l69 275q0 1 0.5 4t0.5 5q0 7 -6 7q-5 0 -21 -16l-218 -225q-55 -56 -129 -56q-37 0 -65.5 17t-28.5 57q0 12 3 26l93 436h196l-68 -275q-1 -4 -1 -9q0 -6 6 -6q4 0 22 15l223 231q48 50 120 50q53 0 74 -24t21 -56q0 -8 -3 -26zM451 663q64 0 102 71h139
q-24 -92 -85.5 -133t-167.5 -41q-199 0 -199 174h139q7 -71 72 -71z" />
    <glyph glyph-name="afii10076" unicode="&#x43a;" horiz-adv-x="641" 
d="M626 0h-210l-119 203q-15 26 -15 58t48 87l160 182h226l-196 -210q-42 -44 -42 -64q0 -15 15 -39zM205 0h-196l113 530h196z" />
    <glyph glyph-name="afii10077" unicode="&#x43b;" horiz-adv-x="668" 
d="M459 0l-64 316q-4 18 -9 18t-17 -18l-198 -316h-213l337 488q33 48 124 48t104 -48l130 -488h-194z" />
    <glyph glyph-name="afii10078" unicode="&#x43c;" horiz-adv-x="836" 
d="M626 284l-135 -238q-29 -52 -103 -52q-36 0 -56.5 10.5t-24.5 41.5l-34 237q-2 14 -8 14t-9 -12l-51 -285h-196l93 435q11 50 54 75.5t100 25.5t85 -18.5t35 -63.5l34 -230q3 -23 14 -23q12 0 24 23l130 230q25 45 62 63.5t94 18.5q53 0 91.5 -21t38.5 -60q0 -6 -2 -20
l-93 -435h-196l71 286q1 3 1 7q0 5 -5 5q-6 0 -14 -14z" />
    <glyph glyph-name="afii10079" unicode="&#x43d;" horiz-adv-x="642" 
d="M575 0h-196l44 204h-174l-44 -204h-196l113 530h196l-40 -186h174l40 186h196z" />
    <glyph glyph-name="afii10080" unicode="&#x43e;" horiz-adv-x="660" 
d="M404 536q139 0 203.5 -43t64.5 -146q0 -53 -10 -102q-14 -67 -33.5 -110.5t-44.5 -72.5t-66 -43.5t-88 -19.5t-121 -5q-139 0 -203 42.5t-64 144.5q0 55 10 104q14 67 33 110.5t44 72.5t66 43.5t88 19.5t121 5zM252 275q-9 -40 -9 -69q0 -36 19.5 -54t66.5 -18
q64 0 91.5 28t41.5 93q9 40 9 69q0 36 -19.5 54t-66.5 18q-64 0 -91.5 -28t-41.5 -93z" />
    <glyph glyph-name="afii10081" unicode="&#x43f;" horiz-adv-x="646" 
d="M9 0l90 420q13 60 43 85t90 25h350q44 0 67.5 -20t23.5 -58q0 -10 -4 -32l-90 -420h-196l75 350q2 12 2 16q0 24 -34 24h-98q-22 0 -33 -9t-15 -31l-75 -350h-196z" />
    <glyph glyph-name="afii10082" unicode="&#x440;" horiz-adv-x="627" 
d="M231 530h214q98 0 146 -52.5t48 -142.5q0 -49 -9 -90q-14 -65 -31.5 -107t-48.5 -75t-79.5 -48t-118.5 -15h-148l-36 -170h-195l125 590q12 55 43.5 82.5t89.5 27.5zM277 340l-43 -200h90q81 0 106 115q7 37 7 70q0 65 -64 65h-36q-30 0 -42 -10t-18 -40z" />
    <glyph glyph-name="afii10083" unicode="&#x441;" horiz-adv-x="551" 
d="M507 0h-275q-190 0 -190 197q0 47 7 87q11 66 27 107.5t46 75t79.5 48.5t123.5 15h284l-30 -140h-194q-59 0 -91 -27.5t-45 -88.5q-6 -26 -6 -56q0 -78 89 -78h205z" />
    <glyph glyph-name="afii10084" unicode="&#x442;" horiz-adv-x="600" 
d="M369 0h-196l83 390h-198l30 140h592l-30 -140h-198z" />
    <glyph glyph-name="afii10085" unicode="&#x443;" horiz-adv-x="641" 
d="M744 530l-455 -701h-206l125 171l-135 530h190l72 -350l203 350h206z" />
    <glyph glyph-name="afii10086" unicode="&#x444;" horiz-adv-x="923" 
d="M483 700h194l-36 -170h110q95 0 139.5 -52t44.5 -139q0 -44 -10 -93q-13 -63 -28.5 -103t-44.5 -75t-77 -51.5t-117 -16.5h-130l-36 -170h-194l36 170h-110q-95 0 -138.5 52t-43.5 139q0 50 9 95q12 62 28 102.5t44.5 75t76.5 50.5t117 16h130zM364 138l54 254h-20
q-73 0 -104 -28t-46 -98q-7 -29 -7 -55q0 -38 23.5 -55.5t79.5 -17.5h20zM558 138h20q72 0 103.5 29t46.5 99q7 29 7 55q0 38 -23.5 54.5t-79.5 16.5h-20z" />
    <glyph glyph-name="afii10087" unicode="&#x445;" horiz-adv-x="612" 
d="M603 0h-218l-66 150l-130 -150h-237l268 272l-139 258h213l57 -136l115 136h233l-249 -258z" />
    <glyph glyph-name="afii10088" unicode="&#x446;" horiz-adv-x="711" 
d="M607 140h10q81 0 81 -78q0 -10 -4 -32l-34 -160h-176l19 90q2 12 2 16q0 24 -34 24h-351q-43 0 -66.5 20t-23.5 58q0 8 4 32l89 420h196l-74 -350q-2 -7 -2 -17q0 -23 33 -23h135l83 390h196z" />
    <glyph glyph-name="afii10089" unicode="&#x447;" horiz-adv-x="624" 
d="M557 0h-191l41 189h-229q-51 0 -82 32.5t-31 82.5q0 13 4 35l41 191h191l-23 -110q-6 -24 -6 -41q0 -22 13 -30.5t46 -8.5h108l40 190h191z" />
    <glyph glyph-name="afii10090" unicode="&#x448;" horiz-adv-x="880" 
d="M927 530l-89 -420q-13 -60 -43.5 -85t-90.5 -25h-584q-43 0 -66.5 20t-23.5 58q0 8 4 32l89 420h192l-74 -350q-2 -7 -2 -17q0 -23 33 -23h74l83 390h192l-83 -390h74q22 0 33 8.5t16 31.5l74 350h192z" />
    <glyph glyph-name="afii10091" unicode="&#x449;" horiz-adv-x="947" 
d="M843 140h10q81 0 81 -78q0 -10 -4 -32l-34 -160h-176l19 90q2 12 2 16q0 24 -28 24h-593q-43 0 -66.5 20t-23.5 58q0 8 4 32l89 420h192l-74 -350q-2 -7 -2 -17q0 -23 33 -23h73l83 390h192l-83 -390h114l83 390h192z" />
    <glyph glyph-name="afii10092" unicode="&#x44a;" horiz-adv-x="756" 
d="M58 390l30 140h244q44 0 67.5 -20.5t23.5 -57.5q0 -16 -4 -32l-13 -58h212q129 0 129 -131q0 -33 -6 -70q-14 -89 -50.5 -125t-129.5 -36h-323q-39 0 -61.5 22.5t-22.5 58.5q0 16 2 24l52 245q2 12 2 16q0 24 -34 24h-118zM377 222l-11 -49q-1 -4 -1 -11q0 -22 34 -22h82
q32 0 43.5 5.5t16.5 27.5q3 14 3 23q0 14 -10 20t-35 6h-122z" />
    <glyph glyph-name="afii10093" unicode="&#x44b;" horiz-adv-x="890" 
d="M627 0l113 530h196l-113 -530h-196zM32 105l90 425h196l-36 -168h206q129 0 129 -131q0 -33 -6 -70q-14 -89 -50.5 -125t-129.5 -36h-317q-39 0 -61.5 22.5t-22.5 58.5q0 16 2 24zM253 222l-11 -49q-1 -4 -1 -11q0 -22 34 -22h76q32 0 43.5 5.5t16.5 27.5q3 14 3 23
q0 14 -10 20t-35 6h-116z" />
    <glyph glyph-name="afii10094" unicode="&#x44c;" horiz-adv-x="632" 
d="M32 105l90 425h196l-36 -168h212q129 0 129 -131q0 -33 -6 -70q-14 -89 -50.5 -125t-129.5 -36h-323q-39 0 -61.5 22.5t-22.5 58.5q0 16 2 24zM253 222l-11 -49q-1 -4 -1 -11q0 -22 34 -22h82q32 0 43.5 5.5t16.5 27.5q3 14 3 23q0 14 -10 20t-35 6h-122z" />
    <glyph glyph-name="afii10095" unicode="&#x44d;" horiz-adv-x="565" 
d="M290 0h-294l28 136h225q45 0 69 15.5t31 50.5h-301l28 130h298q1 4 1 11q0 51 -81 51h-204l29 136h264q194 0 194 -188q0 -43 -11 -98q-14 -70 -29.5 -111t-46 -74t-78.5 -46t-122 -13z" />
    <glyph glyph-name="afii10096" unicode="&#x44e;" horiz-adv-x="918" 
d="M665 536q139 0 202 -43t63 -146q0 -43 -12 -102q-18 -84 -41 -132.5t-65.5 -75.5t-95.5 -35t-146 -8q-139 0 -202 42.5t-63 144.5q0 19 1 30h-62l-45 -211h-190l113 530h190l-41 -195h59q18 66 41.5 105t65 61t92 28.5t136.5 6.5zM518 275q-9 -40 -9 -69q0 -36 17.5 -54
t63.5 -18q63 0 88.5 27.5t39.5 93.5q9 40 9 69q0 36 -17.5 54t-63.5 18q-63 0 -88.5 -27.5t-39.5 -93.5z" />
    <glyph glyph-name="afii10097" unicode="&#x44f;" horiz-adv-x="633" 
d="M-14 0l177 181q7 7 7 12t-8 5h-5q-30 0 -59 29t-29 91q0 26 6 52q16 78 53.5 119t120.5 41h320q43 0 66.5 -23t23.5 -60q0 -13 -3 -27l-90 -420h-196l75 352q2 12 2 16q0 28 -36 28h-90q-24 0 -34.5 -6t-16.5 -26q-4 -12 -4 -23q0 -13 9 -17.5t29 -4.5h44q54 0 54 -38
q0 -5 -2 -17q-13 -67 -43 -99l-152 -165h-219z" />
    <glyph glyph-name="afii10071" unicode="&#x451;" horiz-adv-x="627" 
d="M554 0h-325q-97 0 -142 39t-45 124q0 57 15 125q13 58 26.5 97.5t35 68t43.5 44t61 24.5t77.5 11.5t102.5 2.5q133 0 191.5 -30t58.5 -116q0 -48 -10 -88q-12 -50 -37 -75t-74 -25h-289q-3 -12 -3 -21q0 -25 20.5 -35t65.5 -10h257zM269 326h145q15 0 23.5 4t11 8.5
t4.5 12.5q1 4 1 15q0 34 -80 34q-49 0 -72 -14t-33 -60zM448 590l28 128h173l-28 -128h-173zM360 590h-173l28 128h173z" />
    <glyph glyph-name="afii10099" unicode="&#x452;" horiz-adv-x="640" 
d="M15 0l117 547h-74l20 98h74l12 55h196l-12 -55h157l-20 -98h-157l-13 -57h150q86 0 134.5 -41t48.5 -113q0 -24 -5 -46l-30 -140q-35 -170 -165 -320h-204q69 77 111 151.5t62 168.5l20 92q5 27 5 42q0 36 -22 52t-70 16h-64l-75 -352h-196z" />
    <glyph glyph-name="afii10100" unicode="&#x453;" horiz-adv-x="549" 
d="M9 0l90 420q13 60 43 85t90 25h391l-30 -140h-265q-22 0 -33 -9t-15 -31l-75 -350h-196zM444 837l74 -109l-226 -158l-74 108z" />
    <glyph glyph-name="afii10101" unicode="&#x454;" horiz-adv-x="563" 
d="M510 0h-275q-195 0 -195 187q0 44 11 97q14 70 30 111.5t46 74.5t78.5 46.5t122.5 13.5h284l-29 -136h-214q-79 0 -96 -62h298l-28 -130h-301q-2 -12 -2 -16q0 -50 84 -50h215z" />
    <glyph glyph-name="afii10102" unicode="&#x455;" horiz-adv-x="564" 
d="M-4 0l30 142h289q19 0 19 12q0 5 -3.5 9.5t-12 8.5t-14 6t-17 6t-14.5 5l-97 37q-57 22 -83.5 49.5t-26.5 77.5q0 17 5 42q16 74 55.5 104.5t115.5 30.5h362l-29 -136h-288q-34 0 -34 -10q0 -4 1.5 -7t6 -5.5t8.5 -4t13 -4.5t16 -6l115 -45q66 -26 96.5 -55.5t30.5 -84.5
q0 -17 -5 -42q-15 -73 -54 -101.5t-116 -28.5h-369z" />
    <glyph glyph-name="afii10103" unicode="&#x456;" horiz-adv-x="272" 
d="M9 0l113 530h196l-113 -530h-196zM329 583h-196l25 117h196z" />
    <glyph glyph-name="afii10104" unicode="&#x457;" horiz-adv-x="364" 
d="M46 0l113 530h196l-113 -530h-196zM292 572l27 128h156l-27 -128h-156zM240 572h-156l27 128h156z" />
    <glyph glyph-name="afii10105" unicode="&#x458;" horiz-adv-x="336" 
d="M-104 -170l27 126q77 0 119.5 29t57.5 101l94 444h196l-104 -490q-13 -62 -38 -102.5t-50.5 -62t-80.5 -32t-94.5 -12t-126.5 -1.5zM401 583h-196l25 117h196z" />
    <glyph glyph-name="afii10106" unicode="&#x459;" horiz-adv-x="999" 
d="M804 0h-323q-39 0 -62 23t-23 59q0 15 2 23l55 259q3 15 3 21q0 10 -6 10q-7 0 -16 -12l-264 -383h-218l354 473q28 37 73.5 50t120.5 13q89 0 128 -17.5t39 -58.5q0 -12 -3 -25l-15 -73h212q129 0 129 -133q0 -32 -6 -68q-14 -89 -50.5 -125t-129.5 -36zM619 222l-9 -42
q-2 -12 -2 -16q0 -24 34 -24h82q31 0 43.5 7t16.5 28q2 10 2 21q0 26 -45 26h-122z" />
    <glyph glyph-name="afii10107" unicode="&#x45a;" horiz-adv-x="1002" 
d="M401 102l24 110h-175l-45 -212h-196l113 530h196l-38 -178h174l38 178h196l-38 -178h214q129 0 129 -129q0 -26 -7 -68q-16 -88 -51 -121.5t-128 -33.5h-323q-40 0 -63 20t-23 55q0 13 3 27zM621 212l-8 -32q-2 -12 -2 -16q0 -24 34 -24h82q23 0 32 1t16 7.5t11 20.5
q3 10 3 21q0 14 -9.5 18t-35.5 4h-123z" />
    <glyph glyph-name="afii10108" unicode="&#x45b;" horiz-adv-x="642" 
d="M9 0l123 577h-74l19 88h73l8 35h196l-8 -35h158l-19 -88h-157l-10 -47h140q87 0 139.5 -40t52.5 -111q0 -24 -5 -49l-70 -330h-196l60 282q5 27 5 43q0 36 -21.5 51.5t-69.5 15.5h-64l-84 -392h-196z" />
    <glyph glyph-name="afii10109" unicode="&#x45c;" horiz-adv-x="641" 
d="M626 0h-210l-119 203q-15 26 -15 58t48 87l160 182h226l-196 -210q-42 -44 -42 -64q0 -15 15 -39zM205 0h-196l113 530h196zM495 837l74 -109l-226 -158l-74 108z" />
    <glyph glyph-name="afii10110" unicode="&#x45e;" horiz-adv-x="641" 
d="M744 530l-455 -701h-206l125 171l-135 530h190l72 -350l203 350h206zM412 663q64 0 102 71h139q-24 -92 -85.5 -133t-167.5 -41q-199 0 -199 174h139q7 -71 72 -71z" />
    <glyph glyph-name="afii10193" unicode="&#x45f;" horiz-adv-x="642" 
d="M688 530l-88 -420q-13 -60 -43 -85t-90 -25h-75l-38 -176h-196l38 176h-75q-44 0 -67.5 20t-23.5 58q0 10 4 32l88 420h196l-73 -350q-2 -12 -2 -17q0 -23 33 -23h94q23 0 34 9t15 31l73 350h196z" />
    <glyph glyph-name="afii10146" unicode="&#x462;" horiz-adv-x="867" 
d="M72 515l27 128h130l12 57h226l-12 -57h166l-27 -128h-166l-12 -57h261q176 0 176 -172q0 -42 -6 -78q-10 -60 -24 -96.5t-41.5 -63.5t-71 -37.5t-111.5 -10.5h-397q-43 0 -66 23t-23 60q0 13 3 27l86 405h-130zM538 284h-159l-14 -66q-2 -12 -2 -16q0 -28 36 -28h115
q28 0 40.5 1t27.5 5.5t22 15t11 28.5q3 14 3 22q0 24 -18.5 31t-61.5 7z" />
    <glyph glyph-name="afii10194" unicode="&#x463;" horiz-adv-x="762" 
d="M558 0h-323q-39 0 -61.5 22.5t-22.5 58.5q0 16 2 24l67 315h-168l23 110h168l36 170h196l-36 -170h198l-23 -110h-198l-13 -58h212q128 0 128 -135q0 -41 -4 -66q-15 -87 -49.5 -124t-131.5 -37zM373 222l-8 -42q-2 -7 -2 -17q0 -23 33 -23h82q33 0 45 5.5t16 27.5
q2 11 2 24q0 15 -10 20t-36 5h-122z" />
    <glyph glyph-name="afii10147" unicode="&#x472;" horiz-adv-x="830" 
d="M508 708q180 0 259 -54t79 -187q0 -80 -9 -137q-12 -74 -28.5 -127t-43 -91t-57.5 -61t-79.5 -36.5t-102 -18t-130.5 -4.5q-180 0 -260.5 54t-80.5 186q0 62 12 138q12 74 28.5 127t43 91t57.5 61t79.5 36.5t102 18t130.5 4.5zM413 166q77 0 117.5 32t62.5 107
q-38 -19 -81 -19q-32 0 -74 14.5t-69 14.5q-42 0 -81 -28q-1 -7 -1 -21q0 -53 29 -76.5t97 -23.5zM491 534q-74 0 -114.5 -29.5t-62.5 -95.5q38 16 77 16q28 0 71 -16t73 -16q41 0 80 32q0 59 -28.5 84t-95.5 25z" />
    <glyph glyph-name="afii10195" unicode="&#x473;" horiz-adv-x="660" 
d="M405 536q137 0 202.5 -47.5t65.5 -151.5q0 -48 -9 -92q-18 -83 -43 -132t-70 -76t-98 -35t-143 -8q-137 0 -202 47t-65 150q0 50 9 94q14 66 34 110.5t46 72.5t67.5 43t88 20t117.5 5zM386 396q-51 0 -79 -21t-42 -62q27 12 48 12q24 0 53 -16t52 -16q25 0 53 25
q0 42 -17 60t-68 18zM330 134q51 0 79 21.5t42 64.5q-30 -14 -52 -14q-27 0 -54 14.5t-49 14.5q-21 0 -52 -21q0 -43 17.5 -61.5t68.5 -18.5z" />
    <glyph glyph-name="afii10148" unicode="&#x474;" horiz-adv-x="814" 
d="M774 449l-214 -344q-34 -54 -79 -83.5t-121 -29.5t-109 30t-43 83l-117 595h234l63 -475q2 -15 10 -15t16 15l126 226q27 49 41 73.5t36 58t37.5 48.5t38.5 33.5t46.5 25.5t54 12.5t69.5 5.5h84l-37 -174h-18q-43 0 -64 -16.5t-54 -68.5z" />
    <glyph glyph-name="afii10196" unicode="&#x475;" horiz-adv-x="668" 
d="M619 340l-201 -298q-32 -48 -124 -48t-104 48l-120 488h197l56 -306q2 -18 9 -18q6 0 17 18l83 136q27 44 49 74t48 49.5t45 30t55 15.5t60.5 6t77.5 1l-28 -132q-49 0 -72.5 -14t-47.5 -50z" />
    <glyph glyph-name="afii10050" unicode="&#x490;" horiz-adv-x="656" 
d="M561 825h216l-40 -189q-12 -55 -43.5 -82.5t-89.5 -27.5h-216q-44 0 -54 -44l-102 -482h-226l125 590q23 110 134 110h226q43 0 53 44z" />
    <glyph glyph-name="afii10098" unicode="&#x491;" horiz-adv-x="519" 
d="M624 660l-34 -160q-13 -60 -43.5 -85t-90.5 -25h-135q-23 0 -33 -9t-15 -31l-75 -350h-196l90 420q13 60 43 85t90 25h145q22 0 33 8.5t16 31.5l19 90h186z" />
    <glyph glyph-name="uni04D0" unicode="&#x4d0;" horiz-adv-x="798" 
d="M-57 0l380 623q30 48 65.5 66.5t112.5 18.5q34 0 54.5 -2.5t43 -10.5t35.5 -25.5t19 -46.5l127 -623h-224l-27 144h-248l-85 -144h-253zM462 481l-98 -177h143l-27 177q-3 15 -6 15q-4 0 -12 -15zM517 849q70 0 102 61h160q-24 -91 -91.5 -132.5t-182.5 -41.5
q-103 0 -161.5 42.5t-58.5 131.5h160q7 -61 72 -61z" />
    <glyph glyph-name="uni04D1" unicode="&#x4d1;" horiz-adv-x="630" 
d="M144 530h342q77 0 116.5 -37.5t39.5 -101.5q0 -24 -4 -41l-51 -240q-24 -110 -134 -110h-308q-59 0 -89 34.5t-30 94.5q0 32 7 69q16 77 49 105.5t114 28.5h242l2 10q1 5 1 13q0 39 -50 39h-276zM412 208h-139q-38 0 -45 -32q-2 -10 -2 -17q0 -12 7.5 -20.5t20.5 -8.5
h101q22 0 32.5 8.5t15.5 31.5zM407 663q64 0 102 71h139q-24 -92 -85.5 -133t-167.5 -41q-199 0 -199 174h139q7 -71 72 -71z" />
    <glyph glyph-name="uni04D2" unicode="&#x4d2;" horiz-adv-x="798" 
d="M-57 0l380 623q30 48 65.5 66.5t112.5 18.5q34 0 54.5 -2.5t43 -10.5t35.5 -25.5t19 -46.5l127 -623h-224l-27 144h-248l-85 -144h-253zM462 481l-98 -177h143l-27 177q-3 15 -6 15q-4 0 -12 -15zM729 766h-182l28 129h182zM462 766h-183l28 129h183z" />
    <glyph glyph-name="uni04D3" unicode="&#x4d3;" horiz-adv-x="630" 
d="M144 530h342q77 0 116.5 -37.5t39.5 -101.5q0 -24 -4 -41l-51 -240q-24 -110 -134 -110h-308q-59 0 -89 34.5t-30 94.5q0 32 7 69q16 77 49 105.5t114 28.5h242l2 10q1 5 1 13q0 39 -50 39h-276zM412 208h-139q-38 0 -45 -32q-2 -10 -2 -17q0 -12 7.5 -20.5t20.5 -8.5
h101q22 0 32.5 8.5t15.5 31.5zM435 590l28 128h173l-28 -128h-173zM347 590h-173l28 128h173z" />
    <glyph glyph-name="uni04D4" unicode="&#x4d4;" horiz-adv-x="1174" 
d="M1250 700l-36 -170h-346q-44 0 -53 -44l-11 -52h382l-33 -154h-382l-14 -66q-2 -12 -2 -16q0 -28 36 -28h351l-36 -170h-511q-43 0 -66 23t-23 61q0 12 3 26l6 31h-205l-112 -141h-265l507 622q38 47 82 62.5t109 15.5h619zM577 502l-150 -199h123l42 198q1 4 1 9t-2 5
q-4 0 -14 -13z" />
    <glyph glyph-name="uni04D5" unicode="&#x4d5;" horiz-adv-x="987" 
d="M915 0h-335q-56 0 -86 24q-31 -24 -71 -24h-278q-59 0 -89 34.5t-30 94.5q0 32 7 69q16 77 49 105.5t114 28.5h242l2 10q1 5 1 13q0 39 -50 39h-276l29 136h342q49 0 82 -30q35 21 78.5 28.5t117.5 7.5q133 0 191.5 -30t58.5 -116q0 -48 -10 -88q-12 -50 -37 -75t-74 -25
h-289q-3 -12 -3 -21q0 -25 20.5 -35t65.5 -10h257zM412 208h-139q-38 0 -45 -32q-2 -10 -2 -17q0 -12 7.5 -20.5t20.5 -8.5h101q22 0 32.5 8.5t15.5 31.5zM630 326h145q15 0 23.5 4t11 8.5t4.5 12.5q1 4 1 15q0 34 -80 34q-49 0 -72 -14t-33 -60z" />
    <glyph glyph-name="uni04D6" unicode="&#x4d6;" horiz-adv-x="700" 
d="M777 700l-36 -170h-346q-44 0 -53 -44l-11 -52h382l-33 -154h-382l-14 -66q-2 -12 -2 -16q0 -28 36 -28h350l-36 -170h-510q-43 0 -66 23t-23 60q0 13 3 27l102 480q11 53 46 81.5t87 28.5h506zM483 849q70 0 102 61h160q-24 -91 -91.5 -132.5t-182.5 -41.5
q-103 0 -161.5 42.5t-58.5 131.5h160q7 -61 72 -61z" />
    <glyph glyph-name="uni04D7" unicode="&#x4d7;" horiz-adv-x="627" 
d="M554 0h-325q-97 0 -142 39t-45 124q0 57 15 125q13 58 26.5 97.5t35 68t43.5 44t61 24.5t77.5 11.5t102.5 2.5q133 0 191.5 -30t58.5 -116q0 -48 -10 -88q-12 -50 -37 -75t-74 -25h-289q-3 -12 -3 -21q0 -25 20.5 -35t65.5 -10h257zM269 326h145q15 0 23.5 4t11 8.5
t4.5 12.5q1 4 1 15q0 34 -80 34q-49 0 -72 -14t-33 -60zM410 663q64 0 102 71h139q-24 -92 -85.5 -133t-167.5 -41q-199 0 -199 174h139q7 -71 72 -71z" />
    <glyph glyph-name="uni04D8" unicode="&#x4d8;" horiz-adv-x="758" 
d="M384 0h-66q-141 0 -212 43t-71 137q0 37 6 66q7 34 16 60t22.5 45.5t27 33.5t35.5 23.5t42 15t52.5 8t61 3.5t73.5 1h173q1 6 1 16q0 43 -35.5 58.5t-119.5 15.5h-250l37 174h336q135 0 200.5 -66.5t65.5 -190.5q0 -66 -14 -133q-26 -124 -67 -188.5t-114 -93t-200 -28.5
zM273 234q-2 -9 -2 -21q0 -39 72 -39h50q53 0 79 21.5t41 82.5h-148q-48 0 -67 -8t-25 -36z" />
    <glyph glyph-name="uni04D9" unicode="&#x4d9;" horiz-adv-x="617" 
d="M127 530h325q97 0 143 -39t46 -124q0 -55 -15 -125q-10 -45 -18.5 -77t-21 -58.5t-24.5 -44t-32.5 -30.5t-39.5 -20t-51 -11.5t-62.5 -5.5t-78.5 -1q-140 0 -205.5 32.5t-65.5 124.5q0 36 10 79q12 49 37 73.5t75 24.5h289q3 12 3 21q0 25 -20.5 35t-65.5 10h-257z
M412 204h-145q-22 0 -28.5 -4.5t-9.5 -18.5q-2 -10 -2 -17q0 -34 80 -34q49 0 72 14t33 60z" />
    <glyph glyph-name="uni04DA" unicode="&#x4da;" horiz-adv-x="758" 
d="M384 0h-66q-141 0 -212 43t-71 137q0 37 6 66q7 34 16 60t22.5 45.5t27 33.5t35.5 23.5t42 15t52.5 8t61 3.5t73.5 1h173q1 6 1 16q0 43 -35.5 58.5t-119.5 15.5h-250l37 174h336q135 0 200.5 -66.5t65.5 -190.5q0 -66 -14 -133q-26 -124 -67 -188.5t-114 -93t-200 -28.5
zM273 234q-2 -9 -2 -21q0 -39 72 -39h50q53 0 79 21.5t41 82.5h-148q-48 0 -67 -8t-25 -36zM709 766h-182l28 129h182zM442 766h-183l28 129h183z" />
    <glyph glyph-name="uni04DB" unicode="&#x4db;" horiz-adv-x="617" 
d="M127 530h325q97 0 143 -39t46 -124q0 -55 -15 -125q-10 -45 -18.5 -77t-21 -58.5t-24.5 -44t-32.5 -30.5t-39.5 -20t-51 -11.5t-62.5 -5.5t-78.5 -1q-140 0 -205.5 32.5t-65.5 124.5q0 36 10 79q12 49 37 73.5t75 24.5h289q3 12 3 21q0 25 -20.5 35t-65.5 10h-257z
M412 204h-145q-22 0 -28.5 -4.5t-9.5 -18.5q-2 -10 -2 -17q0 -34 80 -34q49 0 72 14t33 60zM428 590l28 128h173l-28 -128h-173zM340 590h-173l28 128h173z" />
    <glyph glyph-name="uni04DC" unicode="&#x4dc;" horiz-adv-x="1200" 
d="M-57 0l290 304q5 5 15 15.5t14 15t10 12.5t8 14.5t2 14.5q0 10 -17 46l-138 278h240l121 -260q16 -34 16 -65q0 -70 -53 -129l-225 -246h-283zM1182 0h-264l-132 266q-16 32 -16 62q0 36 11.5 61.5t41.5 60.5l216 250h260l-268 -296l-9 -9t-9 -9.5t-7.5 -9.5t-7.5 -11
t-4 -10.5t-2 -12.5q0 -19 21 -56zM449 0l149 700h226l-149 -700h-226zM930 766h-182l28 129h182zM663 766h-183l28 129h183z" />
    <glyph glyph-name="uni04DD" unicode="&#x4dd;" horiz-adv-x="950" 
d="M539 0h-186l113 530h186zM935 0h-207l-97 211q-13 34 -13 51q0 6 1 12t4.5 12.5t6 11t8 12.5t8 11.5t9.5 12t9 11.5l145 185h215l-180 -217q-2 -3 -7 -8.5t-7.5 -8.5t-6.5 -8.5t-6 -10t-3.5 -10t-1.5 -10.5q0 -13 15 -44zM-42 0l202 233q36 42 36 55q0 8 -15 45l-87 197
h205l75 -189q16 -39 16 -64t-39 -76l-157 -201h-236zM605 590l28 128h173l-28 -128h-173zM517 590h-173l28 128h173z" />
    <glyph glyph-name="uni04DE" unicode="&#x4de;" horiz-adv-x="698" 
d="M585 356q93 -20 93 -123q0 -27 -6 -57q-13 -69 -34 -104.5t-67 -53.5t-131 -18h-447l36 174h341q35 0 55 9t25 36q2 14 2 21q0 39 -59 39h-327l32 152h320q34 0 49.5 8t21.5 36q2 12 2 20q0 18 -13 24.5t-41 6.5h-329l37 174h401q174 0 174 -153q0 -29 -6 -63
q-10 -57 -36 -85t-92 -39zM669 766h-182l28 129h182zM402 766h-183l28 129h183z" />
    <glyph glyph-name="uni04DF" unicode="&#x4df;" horiz-adv-x="587" 
d="M475 274l-1 -4q39 -5 64 -31t25 -68q0 -17 -4 -33q-8 -38 -23 -64t-31.5 -40.5t-44 -22t-51 -9.5t-62.5 -2h-351l30 142h276q20 0 29.5 1t20.5 9t14 24q1 4 1 10q0 16 -12.5 20t-38.5 4h-262l26 122h263q20 0 29.5 1t20 8.5t13.5 22.5q1 4 1 10q0 10 -8 15.5t-16 6
t-26 0.5h-269l28 134h330q76 0 119 -22.5t43 -83.5q0 -22 -6 -47q-12 -54 -39 -77t-88 -26zM419 590l28 128h173l-28 -128h-173zM331 590h-173l28 128h173z" />
    <glyph glyph-name="uni04E2" unicode="&#x4e2;" horiz-adv-x="862" 
d="M774 0h-230l98 411v1l1 2q1 4 1 12q0 11 -7 11q-8 0 -33 -34l-250 -340q-53 -71 -187 -71q-128 0 -128 109q0 26 7 59l115 540h230l-95 -401q-4 -18 -4 -24q0 -11 8 -11t26 25l246 337q60 82 187 82q135 0 135 -120q0 -23 -6 -53zM699 770h-289l24 110h289z" />
    <glyph glyph-name="uni04E3" unicode="&#x4e3;" horiz-adv-x="687" 
d="M620 0h-196l69 275q0 1 0.5 4t0.5 5q0 7 -6 7q-5 0 -21 -16l-218 -225q-55 -56 -129 -56q-37 0 -65.5 17t-28.5 57q0 12 3 26l93 436h196l-68 -275q-1 -4 -1 -9q0 -6 6 -6q4 0 22 15l223 231q48 50 120 50q53 0 74 -24t21 -56q0 -8 -3 -26zM595 596h-289l23 110h289z" />
    <glyph glyph-name="uni04E4" unicode="&#x4e4;" horiz-adv-x="862" 
d="M774 0h-230l98 411v1l1 2q1 4 1 12q0 11 -7 11q-8 0 -33 -34l-250 -340q-53 -71 -187 -71q-128 0 -128 109q0 26 7 59l115 540h230l-95 -401q-4 -18 -4 -24q0 -11 8 -11t26 25l246 337q60 82 187 82q135 0 135 -120q0 -23 -6 -53zM781 766h-182l28 129h182zM514 766h-183
l28 129h183z" />
    <glyph glyph-name="uni04E5" unicode="&#x4e5;" horiz-adv-x="687" 
d="M620 0h-196l69 275q0 1 0.5 4t0.5 5q0 7 -6 7q-5 0 -21 -16l-218 -225q-55 -56 -129 -56q-37 0 -65.5 17t-28.5 57q0 12 3 26l93 436h196l-68 -275q-1 -4 -1 -9q0 -6 6 -6q4 0 22 15l223 231q48 50 120 50q53 0 74 -24t21 -56q0 -8 -3 -26zM483 590l28 128h173l-28 -128
h-173zM395 590h-173l28 128h173z" />
    <glyph glyph-name="uni04E6" unicode="&#x4e6;" horiz-adv-x="830" 
d="M511 708q177 0 256.5 -58.5t79.5 -192.5q0 -60 -11 -127q-15 -91 -39.5 -151.5t-57 -98t-86.5 -57t-112 -25.5t-150 -6q-177 0 -257 58.5t-80 191.5q0 55 12 128q15 91 39.5 151.5t57 98t86.5 57t112 25.5t150 6zM298 360q-11 -52 -11 -94q0 -100 125 -100q89 0 130 37.5
t62 136.5q10 46 10 93q0 101 -124 101q-89 0 -130.5 -38t-61.5 -136zM735 766h-182l28 129h182zM468 766h-183l28 129h183z" />
    <glyph glyph-name="uni04E7" unicode="&#x4e7;" horiz-adv-x="660" 
d="M404 536q139 0 203.5 -43t64.5 -146q0 -53 -10 -102q-14 -67 -33.5 -110.5t-44.5 -72.5t-66 -43.5t-88 -19.5t-121 -5q-139 0 -203 42.5t-64 144.5q0 55 10 104q14 67 33 110.5t44 72.5t66 43.5t88 19.5t121 5zM252 275q-9 -40 -9 -69q0 -36 19.5 -54t66.5 -18
q64 0 91.5 28t41.5 93q9 40 9 69q0 36 -19.5 54t-66.5 18q-64 0 -91.5 -28t-41.5 -93zM440 590l28 128h173l-28 -128h-173zM352 590h-173l28 128h173z" />
    <glyph glyph-name="uni04EE" unicode="&#x4ee;" horiz-adv-x="751" 
d="M366 0h-256l155 199l-174 501h242l85 -312l208 312h256zM633 770h-289l24 110h289z" />
    <glyph glyph-name="uni04EF" unicode="&#x4ef;" horiz-adv-x="641" 
d="M744 530l-455 -701h-206l125 171l-135 530h190l72 -350l203 350h206zM562 596h-289l23 110h289z" />
    <glyph glyph-name="uni04F0" unicode="&#x4f0;" horiz-adv-x="751" 
d="M366 0h-256l155 199l-174 501h242l85 -312l208 312h256zM715 766h-182l28 129h182zM448 766h-183l28 129h183z" />
    <glyph glyph-name="uni04F1" unicode="&#x4f1;" horiz-adv-x="641" 
d="M744 530l-455 -701h-206l125 171l-135 530h190l72 -350l203 350h206zM460 590l28 128h173l-28 -128h-173zM372 590h-173l28 128h173z" />
    <glyph glyph-name="uni04F2" unicode="&#x4f2;" horiz-adv-x="751" 
d="M366 0h-256l155 199l-174 501h242l85 -312l208 312h256zM462 1003l89 -85l-202 -189l-88 84zM721 1003l89 -85l-202 -189l-88 84z" />
    <glyph glyph-name="uni04F3" unicode="&#x4f3;" horiz-adv-x="641" 
d="M744 530l-455 -701h-206l125 171l-135 530h190l72 -350l203 350h206zM396 851l88 -85l-202 -189l-88 84zM655 851l88 -85l-202 -189l-88 84z" />
    <glyph glyph-name="uni04F4" unicode="&#x4f4;" horiz-adv-x="794" 
d="M706 0h-226l59 277h-298q-69 0 -108 35t-39 97q0 27 5 48l52 243h226l-38 -179q-5 -27 -5 -37q0 -20 13 -26.5t47 -6.5h182l53 249h226zM731 766h-182l28 129h182zM464 766h-183l28 129h183z" />
    <glyph glyph-name="uni04F5" unicode="&#x4f5;" horiz-adv-x="624" 
d="M557 0h-191l41 189h-229q-51 0 -82 32.5t-31 82.5q0 13 4 35l41 191h191l-23 -110q-6 -24 -6 -41q0 -22 13 -30.5t46 -8.5h108l40 190h191zM442 590l28 128h173l-28 -128h-173zM354 590h-173l28 128h173z" />
    <glyph glyph-name="uni04F8" unicode="&#x4f8;" horiz-adv-x="1087" 
d="M999 0h-226l149 700h226zM36 110l125 590h226l-51 -242h251q93 0 135 -44.5t42 -131.5q0 -38 -7 -74q-16 -81 -38 -122.5t-71.5 -63.5t-138.5 -22h-387q-43 0 -66 23t-23 60q0 13 3 27zM448 284h-149l-14 -66q-2 -12 -2 -16q0 -28 36 -28h105q28 0 40.5 1t27.5 5.5t22 15
t11 28.5q3 13 3 22q0 24 -18.5 31t-61.5 7zM893 766h-182l28 129h182zM626 766h-183l28 129h183z" />
    <glyph glyph-name="uni04F9" unicode="&#x4f9;" horiz-adv-x="890" 
d="M627 0l113 530h196l-113 -530h-196zM32 105l90 425h196l-36 -168h206q129 0 129 -131q0 -33 -6 -70q-14 -89 -50.5 -125t-129.5 -36h-317q-39 0 -61.5 22.5t-22.5 58.5q0 16 2 24zM253 222l-11 -49q-1 -4 -1 -11q0 -22 34 -22h76q32 0 43.5 5.5t16.5 27.5q3 14 3 23
q0 14 -10 20t-35 6h-116zM575 590l28 128h173l-28 -128h-173zM487 590h-173l28 128h173z" />
    <glyph glyph-name="uni2010" unicode="&#x2010;" horiz-adv-x="487" 
d="M41 189l34 158h427l-34 -158h-427z" />
    <glyph glyph-name="uni2011" unicode="&#x2011;" horiz-adv-x="487" 
d="M41 189l34 158h427l-34 -158h-427z" />
    <glyph glyph-name="figuredash" unicode="&#x2012;" horiz-adv-x="660" 
d="M41 275l34 158h600l-34 -158h-600z" />
    <glyph glyph-name="endash" unicode="&#x2013;" horiz-adv-x="660" 
d="M41 189l34 158h600l-34 -158h-600z" />
    <glyph glyph-name="emdash" unicode="&#x2014;" horiz-adv-x="860" 
d="M41 189l34 158h800l-34 -158h-800z" />
    <glyph glyph-name="afii00208" unicode="&#x2015;" horiz-adv-x="987" 
d="M41 189l34 158h927l-34 -158h-927z" />
    <glyph glyph-name="quoteleft" unicode="&#x2018;" horiz-adv-x="359" 
d="M260 771l117 -246l-165 -77l-98 256z" />
    <glyph glyph-name="quoteright" unicode="&#x2019;" horiz-adv-x="359" 
d="M411 694l-222 -246l-113 87l207 256z" />
    <glyph glyph-name="quotesinglbase" unicode="&#x201a;" horiz-adv-x="349" 
d="M106 -158l-113 87l207 256l127 -97z" />
    <glyph glyph-name="quotedblleft" unicode="&#x201c;" horiz-adv-x="628" 
d="M114 702l146 67l117 -246l-165 -77zM383 702l146 67l117 -246l-165 -77z" />
    <glyph glyph-name="quotedblright" unicode="&#x201d;" horiz-adv-x="628" 
d="M76 533l207 256l128 -97l-222 -246zM345 533l207 256l128 -97l-222 -246z" />
    <glyph glyph-name="quotedblbase" unicode="&#x201e;" horiz-adv-x="618" 
d="M-7 -71l207 256l127 -97l-221 -246zM261 -71l208 256l127 -97l-221 -246z" />
    <glyph glyph-name="dagger" unicode="&#x2020;" horiz-adv-x="507" 
d="M287 -170h-196l116 544h-126l30 140h126l39 186h196l-39 -186h125l-30 -140h-125z" />
    <glyph glyph-name="daggerdbl" unicode="&#x2021;" horiz-adv-x="507" 
d="M91 -170l41 190h-126l29 140h126l46 214h-126l30 140h126l39 186h197l-39 -186h124l-30 -140h-124l-46 -214h124l-29 -140h-124l-41 -190h-197z" />
    <glyph glyph-name="bullet" unicode="&#x2022;" horiz-adv-x="440" 
d="M84 328q0 76 59.5 134t139.5 58q68 0 107.5 -43t39.5 -106q0 -79 -60.5 -135t-138.5 -56q-67 0 -107 43t-40 105z" />
    <glyph glyph-name="ellipsis" unicode="&#x2026;" horiz-adv-x="894" 
d="M238 0h-198l38 180h198zM536 0h-198l38 180h198zM834 0h-198l38 180h198z" />
    <glyph glyph-name="perthousand" unicode="&#x2030;" horiz-adv-x="1212" 
d="M117 0l555 700h114l-555 -700h-114zM313 706q75 0 109 -29.5t34 -88.5q0 -36 -8 -72q-19 -90 -62.5 -119.5t-144.5 -29.5q-75 0 -109.5 29t-34.5 89q0 36 8 71q20 90 63.5 120t144.5 30zM216 540q-4 -19 -4 -36q0 -43 49 -43q34 0 51 15.5t25 55.5q4 20 4 38q0 42 -48 42
q-33 0 -50.5 -16t-26.5 -56zM661 333q75 0 109 -29t34 -89q0 -36 -8 -72q-19 -90 -62.5 -119.5t-144.5 -29.5q-75 0 -109.5 29t-34.5 89q0 36 8 71q19 90 63 120t145 30zM564 167q-4 -20 -4 -37q0 -42 49 -42q34 0 51 15.5t25 55.5q4 20 4 37q0 43 -48 43q-34 0 -51.5 -16
t-25.5 -56zM1047 333q75 0 109 -29t34 -89q0 -36 -8 -72q-19 -90 -62.5 -119.5t-144.5 -29.5q-75 0 -109.5 29t-34.5 89q0 36 8 71q19 90 63 120t145 30zM950 167q-4 -20 -4 -37q0 -42 49 -42q34 0 51 15.5t25 55.5q4 20 4 37q0 43 -48 43q-34 0 -51.5 -16t-25.5 -56z" />
    <glyph glyph-name="guilsinglleft" unicode="&#x2039;" horiz-adv-x="395" 
d="M411 432l-137 -129q-21 -23 -21 -40q0 -8 8 -24l77 -139l-144 -86l-105 199q-13 23 -13 52q0 32 9 54.5t37 51.5l171 177z" />
    <glyph glyph-name="guilsinglright" unicode="&#x203a;" horiz-adv-x="395" 
d="M42 130l137 129q21 23 21 40q0 8 -8 24l-77 139l144 86l105 -199q13 -23 13 -52q0 -32 -9 -54.5t-37 -51.5l-171 -177z" />
    <glyph glyph-name="fraction" unicode="&#x2044;" horiz-adv-x="518" 
d="M33 -170h-119l631 910h120z" />
    <glyph glyph-name="Euro" unicode="&#x20ac;" horiz-adv-x="732" 
d="M674 0h-286q-134 0 -198.5 50.5t-64.5 152.5q0 3 0.5 12t0.5 12h-85l20 98h70q2 17 11 52h-70l21 98h78q45 128 118.5 176.5t227.5 48.5h296l-35 -164h-190q-79 0 -116 -12t-61 -49h297l-21 -98h-313q-8 -22 -11 -52h259l-20 -98h-244q8 -38 43.5 -50.5t117.5 -12.5h190z
" />
    <glyph glyph-name="uni20B4" unicode="&#x20b4;" horiz-adv-x="670" 
d="M75 483h321q43 33 43 49q0 14 -35 14h-252l33 154h368q137 0 137 -79q0 -11 -3 -25q-2 -10 -4.5 -19t-7.5 -18t-8 -14t-11.5 -15t-11.5 -14t-14.5 -16.5t-15.5 -16.5h111l-23 -108h-650zM42 326h650l-23 -108h-345q-1 -1 -7 -6t-8.5 -7.5t-7.5 -8.5t-8 -10t-5 -10t-2 -11
q0 -11 30 -11h275l-33 -154h-372q-65 0 -97.5 20.5t-32.5 65.5q0 18 4 37q3 12 6.5 21.5t10 19.5t10.5 15.5t15.5 19t16.5 19.5h-100z" />
    <glyph glyph-name="uni20B6" unicode="&#x20b6;" horiz-adv-x="757" 
d="M-38 87l26 124h79l15 71h-80l31 144h80l35 164q12 55 43.5 82.5t89.5 27.5h337q178 0 178 -166q0 -32 -6 -72q-11 -70 -32 -106.5t-70 -55t-139 -18.5h-241l-15 -71h209l-26 -124h-209l-19 -87h-226l19 87h-79zM339 426h119q51 0 72.5 7.5t27.5 34.5q4 18 4 33
q0 21 -19 28t-62 7h-75q-44 0 -53 -44z" />
    <glyph glyph-name="uni20B7" unicode="&#x20b7;" horiz-adv-x="757" 
d="M-38 87l26 124h79l15 71h-80l31 144h80l35 164q12 55 43.5 82.5t89.5 27.5h337q178 0 178 -166q0 -32 -6 -72q-11 -70 -32 -106.5t-70 -55t-139 -18.5h-241l-15 -71h209l-26 -124h-209l-19 -87h-226l19 87h-79zM339 426h119q51 0 72.5 7.5t27.5 34.5q4 18 4 33
q0 21 -19 28t-62 7h-75q-44 0 -53 -44z" />
    <glyph glyph-name="uni20B8" unicode="&#x20b8;" horiz-adv-x="757" 
d="M-38 87l26 124h79l15 71h-80l31 144h80l35 164q12 55 43.5 82.5t89.5 27.5h337q178 0 178 -166q0 -32 -6 -72q-11 -70 -32 -106.5t-70 -55t-139 -18.5h-241l-15 -71h209l-26 -124h-209l-19 -87h-226l19 87h-79zM339 426h119q51 0 72.5 7.5t27.5 34.5q4 18 4 33
q0 21 -19 28t-62 7h-75q-44 0 -53 -44z" />
    <glyph glyph-name="uni20B9" unicode="&#x20b9;" horiz-adv-x="757" 
d="M-38 87l26 124h79l15 71h-80l31 144h80l35 164q12 55 43.5 82.5t89.5 27.5h337q178 0 178 -166q0 -32 -6 -72q-11 -70 -32 -106.5t-70 -55t-139 -18.5h-241l-15 -71h209l-26 -124h-209l-19 -87h-226l19 87h-79zM339 426h119q51 0 72.5 7.5t27.5 34.5q4 18 4 33
q0 21 -19 28t-62 7h-75q-44 0 -53 -44z" />
    <glyph glyph-name="uni20BA" unicode="&#x20ba;" horiz-adv-x="757" 
d="M-38 87l26 124h79l15 71h-80l31 144h80l35 164q12 55 43.5 82.5t89.5 27.5h337q178 0 178 -166q0 -32 -6 -72q-11 -70 -32 -106.5t-70 -55t-139 -18.5h-241l-15 -71h209l-26 -124h-209l-19 -87h-226l19 87h-79zM339 426h119q51 0 72.5 7.5t27.5 34.5q4 18 4 33
q0 21 -19 28t-62 7h-75q-44 0 -53 -44z" />
    <glyph glyph-name="uni20BB" unicode="&#x20bb;" horiz-adv-x="757" 
d="M-38 87l26 124h79l15 71h-80l31 144h80l35 164q12 55 43.5 82.5t89.5 27.5h337q178 0 178 -166q0 -32 -6 -72q-11 -70 -32 -106.5t-70 -55t-139 -18.5h-241l-15 -71h209l-26 -124h-209l-19 -87h-226l19 87h-79zM339 426h119q51 0 72.5 7.5t27.5 34.5q4 18 4 33
q0 21 -19 28t-62 7h-75q-44 0 -53 -44z" />
    <glyph glyph-name="uni20BC" unicode="&#x20bc;" horiz-adv-x="757" 
d="M-38 87l26 124h79l15 71h-80l31 144h80l35 164q12 55 43.5 82.5t89.5 27.5h337q178 0 178 -166q0 -32 -6 -72q-11 -70 -32 -106.5t-70 -55t-139 -18.5h-241l-15 -71h209l-26 -124h-209l-19 -87h-226l19 87h-79zM339 426h119q51 0 72.5 7.5t27.5 34.5q4 18 4 33
q0 21 -19 28t-62 7h-75q-44 0 -53 -44z" />
    <glyph glyph-name="uni20BD" unicode="&#x20bd;" horiz-adv-x="757" 
d="M-38 87l26 124h79l15 71h-80l31 144h80l35 164q12 55 43.5 82.5t89.5 27.5h337q178 0 178 -166q0 -32 -6 -72q-11 -70 -32 -106.5t-70 -55t-139 -18.5h-241l-15 -71h209l-26 -124h-209l-19 -87h-226l19 87h-79zM339 426h119q51 0 72.5 7.5t27.5 34.5q4 18 4 33
q0 21 -19 28t-62 7h-75q-44 0 -53 -44z" />
    <glyph glyph-name="uni20BE" unicode="&#x20be;" horiz-adv-x="757" 
d="M-38 87l26 124h79l15 71h-80l31 144h80l35 164q12 55 43.5 82.5t89.5 27.5h337q178 0 178 -166q0 -32 -6 -72q-11 -70 -32 -106.5t-70 -55t-139 -18.5h-241l-15 -71h209l-26 -124h-209l-19 -87h-226l19 87h-79zM339 426h119q51 0 72.5 7.5t27.5 34.5q4 18 4 33
q0 21 -19 28t-62 7h-75q-44 0 -53 -44z" />
    <glyph glyph-name="uni20BF" unicode="&#x20bf;" horiz-adv-x="757" 
d="M-38 87l26 124h79l15 71h-80l31 144h80l35 164q12 55 43.5 82.5t89.5 27.5h337q178 0 178 -166q0 -32 -6 -72q-11 -70 -32 -106.5t-70 -55t-139 -18.5h-241l-15 -71h209l-26 -124h-209l-19 -87h-226l19 87h-79zM339 426h119q51 0 72.5 7.5t27.5 34.5q4 18 4 33
q0 21 -19 28t-62 7h-75q-44 0 -53 -44z" />
    <glyph glyph-name="uni20C0" unicode="&#x20c0;" horiz-adv-x="757" 
d="M-38 87l26 124h79l15 71h-80l31 144h80l35 164q12 55 43.5 82.5t89.5 27.5h337q178 0 178 -166q0 -32 -6 -72q-11 -70 -32 -106.5t-70 -55t-139 -18.5h-241l-15 -71h209l-26 -124h-209l-19 -87h-226l19 87h-79zM339 426h119q51 0 72.5 7.5t27.5 34.5q4 18 4 33
q0 21 -19 28t-62 7h-75q-44 0 -53 -44z" />
    <glyph glyph-name="uni20C1" unicode="&#x20c1;" horiz-adv-x="757" 
d="M-38 87l26 124h79l15 71h-80l31 144h80l35 164q12 55 43.5 82.5t89.5 27.5h337q178 0 178 -166q0 -32 -6 -72q-11 -70 -32 -106.5t-70 -55t-139 -18.5h-241l-15 -71h209l-26 -124h-209l-19 -87h-226l19 87h-79zM339 426h119q51 0 72.5 7.5t27.5 34.5q4 18 4 33
q0 21 -19 28t-62 7h-75q-44 0 -53 -44z" />
    <glyph glyph-name="uni20C2" unicode="&#x20c2;" horiz-adv-x="757" 
d="M-38 87l26 124h79l15 71h-80l31 144h80l35 164q12 55 43.5 82.5t89.5 27.5h337q178 0 178 -166q0 -32 -6 -72q-11 -70 -32 -106.5t-70 -55t-139 -18.5h-241l-15 -71h209l-26 -124h-209l-19 -87h-226l19 87h-79zM339 426h119q51 0 72.5 7.5t27.5 34.5q4 18 4 33
q0 21 -19 28t-62 7h-75q-44 0 -53 -44z" />
    <glyph glyph-name="uni20C3" unicode="&#x20c3;" horiz-adv-x="757" 
d="M-38 87l26 124h79l15 71h-80l31 144h80l35 164q12 55 43.5 82.5t89.5 27.5h337q178 0 178 -166q0 -32 -6 -72q-11 -70 -32 -106.5t-70 -55t-139 -18.5h-241l-15 -71h209l-26 -124h-209l-19 -87h-226l19 87h-79zM339 426h119q51 0 72.5 7.5t27.5 34.5q4 18 4 33
q0 21 -19 28t-62 7h-75q-44 0 -53 -44z" />
    <glyph glyph-name="uni20C4" unicode="&#x20c4;" horiz-adv-x="757" 
d="M-38 87l26 124h79l15 71h-80l31 144h80l35 164q12 55 43.5 82.5t89.5 27.5h337q178 0 178 -166q0 -32 -6 -72q-11 -70 -32 -106.5t-70 -55t-139 -18.5h-241l-15 -71h209l-26 -124h-209l-19 -87h-226l19 87h-79zM339 426h119q51 0 72.5 7.5t27.5 34.5q4 18 4 33
q0 21 -19 28t-62 7h-75q-44 0 -53 -44z" />
    <glyph glyph-name="uni20C5" unicode="&#x20c5;" horiz-adv-x="757" 
d="M-38 87l26 124h79l15 71h-80l31 144h80l35 164q12 55 43.5 82.5t89.5 27.5h337q178 0 178 -166q0 -32 -6 -72q-11 -70 -32 -106.5t-70 -55t-139 -18.5h-241l-15 -71h209l-26 -124h-209l-19 -87h-226l19 87h-79zM339 426h119q51 0 72.5 7.5t27.5 34.5q4 18 4 33
q0 21 -19 28t-62 7h-75q-44 0 -53 -44z" />
    <glyph glyph-name="uni20C6" unicode="&#x20c6;" horiz-adv-x="757" 
d="M-38 87l26 124h79l15 71h-80l31 144h80l35 164q12 55 43.5 82.5t89.5 27.5h337q178 0 178 -166q0 -32 -6 -72q-11 -70 -32 -106.5t-70 -55t-139 -18.5h-241l-15 -71h209l-26 -124h-209l-19 -87h-226l19 87h-79zM339 426h119q51 0 72.5 7.5t27.5 34.5q4 18 4 33
q0 21 -19 28t-62 7h-75q-44 0 -53 -44z" />
    <glyph glyph-name="uni20C7" unicode="&#x20c7;" horiz-adv-x="757" 
d="M-38 87l26 124h79l15 71h-80l31 144h80l35 164q12 55 43.5 82.5t89.5 27.5h337q178 0 178 -166q0 -32 -6 -72q-11 -70 -32 -106.5t-70 -55t-139 -18.5h-241l-15 -71h209l-26 -124h-209l-19 -87h-226l19 87h-79zM339 426h119q51 0 72.5 7.5t27.5 34.5q4 18 4 33
q0 21 -19 28t-62 7h-75q-44 0 -53 -44z" />
    <glyph glyph-name="uni20C8" unicode="&#x20c8;" horiz-adv-x="757" 
d="M-38 87l26 124h79l15 71h-80l31 144h80l35 164q12 55 43.5 82.5t89.5 27.5h337q178 0 178 -166q0 -32 -6 -72q-11 -70 -32 -106.5t-70 -55t-139 -18.5h-241l-15 -71h209l-26 -124h-209l-19 -87h-226l19 87h-79zM339 426h119q51 0 72.5 7.5t27.5 34.5q4 18 4 33
q0 21 -19 28t-62 7h-75q-44 0 -53 -44z" />
    <glyph glyph-name="uni20C9" unicode="&#x20c9;" horiz-adv-x="757" 
d="M-38 87l26 124h79l15 71h-80l31 144h80l35 164q12 55 43.5 82.5t89.5 27.5h337q178 0 178 -166q0 -32 -6 -72q-11 -70 -32 -106.5t-70 -55t-139 -18.5h-241l-15 -71h209l-26 -124h-209l-19 -87h-226l19 87h-79zM339 426h119q51 0 72.5 7.5t27.5 34.5q4 18 4 33
q0 21 -19 28t-62 7h-75q-44 0 -53 -44z" />
    <glyph glyph-name="uni20CA" unicode="&#x20ca;" horiz-adv-x="757" 
d="M-38 87l26 124h79l15 71h-80l31 144h80l35 164q12 55 43.5 82.5t89.5 27.5h337q178 0 178 -166q0 -32 -6 -72q-11 -70 -32 -106.5t-70 -55t-139 -18.5h-241l-15 -71h209l-26 -124h-209l-19 -87h-226l19 87h-79zM339 426h119q51 0 72.5 7.5t27.5 34.5q4 18 4 33
q0 21 -19 28t-62 7h-75q-44 0 -53 -44z" />
    <glyph glyph-name="uni20CB" unicode="&#x20cb;" horiz-adv-x="757" 
d="M-38 87l26 124h79l15 71h-80l31 144h80l35 164q12 55 43.5 82.5t89.5 27.5h337q178 0 178 -166q0 -32 -6 -72q-11 -70 -32 -106.5t-70 -55t-139 -18.5h-241l-15 -71h209l-26 -124h-209l-19 -87h-226l19 87h-79zM339 426h119q51 0 72.5 7.5t27.5 34.5q4 18 4 33
q0 21 -19 28t-62 7h-75q-44 0 -53 -44z" />
    <glyph glyph-name="uni20CC" unicode="&#x20cc;" horiz-adv-x="757" 
d="M-38 87l26 124h79l15 71h-80l31 144h80l35 164q12 55 43.5 82.5t89.5 27.5h337q178 0 178 -166q0 -32 -6 -72q-11 -70 -32 -106.5t-70 -55t-139 -18.5h-241l-15 -71h209l-26 -124h-209l-19 -87h-226l19 87h-79zM339 426h119q51 0 72.5 7.5t27.5 34.5q4 18 4 33
q0 21 -19 28t-62 7h-75q-44 0 -53 -44z" />
    <glyph glyph-name="uni20CD" unicode="&#x20cd;" horiz-adv-x="757" 
d="M-38 87l26 124h79l15 71h-80l31 144h80l35 164q12 55 43.5 82.5t89.5 27.5h337q178 0 178 -166q0 -32 -6 -72q-11 -70 -32 -106.5t-70 -55t-139 -18.5h-241l-15 -71h209l-26 -124h-209l-19 -87h-226l19 87h-79zM339 426h119q51 0 72.5 7.5t27.5 34.5q4 18 4 33
q0 21 -19 28t-62 7h-75q-44 0 -53 -44z" />
    <glyph glyph-name="uni20CE" unicode="&#x20ce;" horiz-adv-x="757" 
d="M-38 87l26 124h79l15 71h-80l31 144h80l35 164q12 55 43.5 82.5t89.5 27.5h337q178 0 178 -166q0 -32 -6 -72q-11 -70 -32 -106.5t-70 -55t-139 -18.5h-241l-15 -71h209l-26 -124h-209l-19 -87h-226l19 87h-79zM339 426h119q51 0 72.5 7.5t27.5 34.5q4 18 4 33
q0 21 -19 28t-62 7h-75q-44 0 -53 -44z" />
    <glyph glyph-name="uni20CF" unicode="&#x20cf;" horiz-adv-x="757" 
d="M-38 87l26 124h79l15 71h-80l31 144h80l35 164q12 55 43.5 82.5t89.5 27.5h337q178 0 178 -166q0 -32 -6 -72q-11 -70 -32 -106.5t-70 -55t-139 -18.5h-241l-15 -71h209l-26 -124h-209l-19 -87h-226l19 87h-79zM339 426h119q51 0 72.5 7.5t27.5 34.5q4 18 4 33
q0 21 -19 28t-62 7h-75q-44 0 -53 -44z" />
    <glyph glyph-name="afii61352" unicode="&#x2116;" horiz-adv-x="1250" 
d="M887 700l-124 -583q-26 -125 -160 -125q-30 0 -51 3.5t-44 20t-36 45.5l-155 357q-9 17 -14 17q-14 0 -18 -20l-89 -415h-184l124 584q27 124 166 124q99 0 127 -65l156 -360q9 -17 15 -17q12 0 14 17l89 417h184zM1123 708q81 0 119.5 -28.5t38.5 -92.5q0 -36 -6 -65
q-21 -98 -64.5 -131.5t-142.5 -33.5q-81 0 -120 29t-39 93q0 33 5 63q16 98 62 132t147 34zM1034 542q-4 -16 -4 -42q0 -43 49 -43q35 0 51.5 13t24.5 52q5 22 5 44q0 42 -48 42q-35 0 -52 -13.5t-26 -52.5zM872 200l21 100h305l-21 -100h-305z" />
    <glyph glyph-name="trademark" unicode="&#x2122;" horiz-adv-x="1098" 
d="M318 296h-139l64 298h-140l22 107h419l-22 -107h-140zM964 554l-100 -215q-22 -47 -92 -47q-68 0 -71 47l-9 215q0 12 -8 12q-3 0 -4.5 -0.5t-3.5 -3t-3 -7.5l-55 -259h-129l75 349q13 61 122 61q51 0 74 -12t24 -42l7 -213q0 -13 7 -13t13 13l97 213q25 54 123 54
q102 0 102 -45q0 -11 -1 -16l-75 -349h-129l54 253q2 8 2 12q0 5 -6 5q-9 0 -14 -12z" />
    <glyph glyph-name="Omega" unicode="&#x2126;" horiz-adv-x="860" 
d="M226 142l2 7q-148 53 -148 203q0 40 8 79q34 159 128.5 218t305.5 59q179 0 264 -58.5t85 -183.5q0 -48 -5 -79q-19 -120 -79.5 -172.5t-166.5 -65.5l-2 -7h170l-30 -142h-194q-44 0 -68 21t-24 61q0 8 4 32l13 60q8 36 18.5 52t42.5 36q22 14 34 24t26.5 36.5t23.5 65.5
q6 27 6 56q0 48 -33 69t-102 21q-82 0 -125.5 -29t-60.5 -101q-7 -32 -7 -62q0 -50 34 -80q28 -25 28 -50q0 -11 -5 -38l-13 -60q-12 -59 -42 -86.5t-94 -27.5h-194l30 142h170z" />
    <glyph glyph-name="partialdiff" unicode="&#x2202;" horiz-adv-x="612" 
d="M292 528h168q0 31 -19 42.5t-60 11.5h-241l28 128h287q199 0 199 -160q0 -30 -8 -70l-79 -370q-12 -55 -43.5 -82.5t-89.5 -27.5h-234q-172 0 -172 182q0 52 9 101q8 45 15 71.5t19 58.5t29 50t43 34.5t63 23.5t86 7zM430 386h-56q-64 0 -93.5 -23.5t-42.5 -88.5
q-8 -42 -8 -63q0 -71 80 -71h22q46 0 54 42z" />
    <glyph glyph-name="Delta" unicode="&#x2206;" horiz-adv-x="714" 
d="M24 203l268 426q13 22 29 36.5t54.5 28.5t93.5 14q42 0 71 -7t43.5 -20t21 -24.5t9.5 -27.5l86 -426q11 -61 11 -70q0 -21 -5 -42q-19 -91 -112 -91h-550q-75 0 -75 66q0 13 4 33q3 13 6.5 24t10.5 23.5t10 17.5t13 21t11 18zM419 478l-157 -272q-9 -16 -9 -20
q0 -12 21 -12h184q27 0 27 15q0 11 -1 17l-43 272q0 1 -0.5 4t-0.5 5t-0.5 4.5t-2 3.5t-3.5 1q-5 0 -15 -18z" />
    <glyph glyph-name="product" unicode="&#x220f;" horiz-adv-x="800" 
d="M238 0h-226l126 590q12 55 43.5 82.5t89.5 27.5h480q43 0 66.5 -23t23.5 -60q0 -13 -3 -27l-126 -590h-226l103 482q2 10 2 14q0 30 -37 30h-160q-44 0 -53 -44z" />
    <glyph glyph-name="summation" unicode="&#x2211;" horiz-adv-x="721" 
d="M356 518l130 -65q50 -25 50 -75q0 -16 -4 -32q-3 -12 -6.5 -21t-10 -17t-10 -12.5t-14.5 -11t-13 -8t-16.5 -8t-16.5 -7.5l-159 -76q-3 -1 -7.5 -3.5t-6.5 -3.5t-4 -2.5t-3 -3t-1 -3.5q0 -5 15 -5h389l-35 -164h-533q-68 0 -68 85q0 34 8 63q13 48 33.5 71.5t76.5 50.5
l162 79q1 1 6 3t8.5 3.5t6.5 4t3 5.5q0 5 -18 14l-131 67q-59 31 -59 95q0 29 6 53q10 38 22.5 61t30 32t29 11t33.5 2h530l-35 -164h-386q-16 0 -16 -7q0 -3 1.5 -5t6.5 -4z" />
    <glyph glyph-name="minus" unicode="&#x2212;" horiz-adv-x="708" 
d="M678 259h-608l28 130h608z" />
    <glyph glyph-name="uni2215" unicode="&#x2215;" horiz-adv-x="518" 
d="M33 -170h-119l631 910h120z" />
    <glyph glyph-name="uni2219" unicode="&#x2219;" horiz-adv-x="298" 
d="M265 250h-198l38 180h198z" />
    <glyph glyph-name="radical" unicode="&#x221a;" horiz-adv-x="728" 
d="M542 827h317l-29 -140h-188l-312 -687h-220l-2 244h-101l30 140h224l2 -91q0 -31 -5 -71l-11 -73h11q48 157 112 297z" />
    <glyph glyph-name="infinity" unicode="&#x221e;" horiz-adv-x="896" 
d="M476 243q-45 -53 -106.5 -80.5t-116.5 -27.5q-81 0 -136.5 55t-55.5 135q0 102 68.5 169t171.5 67q113 0 194 -108q96 108 220 108q83 0 138 -54.5t55 -133.5q0 -103 -69 -170.5t-173 -67.5q-52 0 -103.5 26t-86.5 82zM678 417q-24 0 -51 -15.5t-41 -29t-23 -24.5
q14 -28 37 -49t49 -21q35 0 62 22t27 63q0 23 -15.5 38.5t-44.5 15.5zM291 278q26 0 57.5 20.5t56.5 49.5q-5 20 -27.5 44.5t-57.5 24.5q-36 0 -62.5 -20.5t-26.5 -61.5q0 -26 19.5 -41.5t40.5 -15.5z" />
    <glyph glyph-name="integral" unicode="&#x222b;" horiz-adv-x="500" 
d="M438 569l-119 -561q-6 -29 -18 -53t-25.5 -41.5t-35.5 -31t-39.5 -22t-47 -14.5t-49.5 -9t-55 -5t-54 -2h-57l26 122q45 0 65 1t44 6t35 17t15 32l119 561q6 29 18 53t25.5 41.5t35.5 31t39.5 22t47.5 14.5t49.5 9t54.5 5t54.5 2h57.5l-26 -122q-29 0 -43 -0.5t-35.5 -2
t-31.5 -5t-22.5 -9.5t-18.5 -15.5t-9 -23.5z" />
    <glyph glyph-name="approxequal" unicode="&#x2248;" horiz-adv-x="539" 
d="M156 342l-64 76q76 85 159 85q34 0 54 -11l49 -25q31 -16 51 -16q40 0 90 59l64 -72q-85 -94 -163 -94q-35 0 -67 16l-37 19q-28 14 -48 14q-35 0 -88 -51zM112 138l-64 76q76 85 159 85q34 0 54 -11l49 -25q31 -16 51 -16q40 0 90 59l64 -72q-85 -94 -163 -94
q-35 0 -67 16l-37 19q-28 14 -48 14q-35 0 -88 -51z" />
    <glyph glyph-name="notequal" unicode="&#x2260;" horiz-adv-x="708" 
d="M656 151h-345l-125 -161h-120l125 161h-143l28 130h217l57 74h-259l28 130h333l121 155h120l-121 -155h155l-28 -130h-229l-57 -74h271z" />
    <glyph glyph-name="lessequal" unicode="&#x2264;" horiz-adv-x="709" 
d="M617 -20h-608l28 130h608zM106 430l675 310l-30 -146l-399 -168l327 -168l-30 -138z" />
    <glyph glyph-name="greaterequal" unicode="&#x2265;" horiz-adv-x="709" 
d="M10 -20l28 130h608l-28 -130h-608zM715 430l-675 -310l30 152l399 168l-327 168l30 132z" />
    <glyph glyph-name="dotmath" unicode="&#x22c5;" horiz-adv-x="298" 
d="M265 250h-198l38 180h198z" />
    <glyph glyph-name="lozenge" unicode="&#x25ca;" horiz-adv-x="440" 
d="M437 340l-245 -340l-115 360l244 340zM337 350l-47 156l-113 -156l47 -156z" />
    <glyph glyph-name="uniF400" unicode="&#xf400;" horiz-adv-x="2" 
d="M-130 837l74 -109l-226 -158l-74 108z" />
    <glyph glyph-name="uniF401" unicode="&#xf401;" horiz-adv-x="2" 
d="M-201 1007l84 -109l-226 -158l-84 108z" />
    <glyph glyph-name="uniF406" unicode="&#xf406;" 
d="M347 843q74 0 112 71h129q-24 -93 -82.5 -133.5t-170.5 -40.5q-199 0 -199 174h129q7 -71 82 -71z" />
    <glyph glyph-name="uniF407" unicode="&#xf407;" horiz-adv-x="225" 
d="M12 -200l13 70h69q21 0 24 11q1 4 1 7q0 11 -21 11h-30q-30 0 -30 22q0 14 10 28l35 51h76l-16 -23q-4 -6 -4 -8q0 -4 7 -4h5q65 0 65 -62q0 -15 -4 -30q-12 -43 -37.5 -58t-79.5 -15h-83z" />
    <glyph glyph-name="uniF408" unicode="&#xf408;" 
d="M460 740l-91 95q-12 12 -26 12q-15 0 -32 -12l-139 -95l-57 93l185 116q27 17 53 17q30 0 47 -17l133 -130z" />
    <glyph glyph-name="uniF409" unicode="&#xf409;" 
d="M184 -300l-111 44l117 229l125 -49z" />
    <glyph glyph-name="uniF40A" unicode="&#xf40a;" 
d="M201 396l-140 65l147 286l156 -71z" />
    <glyph glyph-name="uniF40B" unicode="&#xf40b;" 
d="M437 766h-226l28 129h226z" />
    <glyph glyph-name="uniF40C" unicode="&#xf40c;" 
d="M362 978q54 0 78 -20.5t24 -61.5q0 -27 -4 -47q-10 -61 -41 -84.5t-99 -23.5q-104 0 -104 82q0 21 5 46q10 61 41.5 85t99.5 24zM293 863q-3 -11 -3 -25q0 -31 40 -31q28 0 40 11.5t18 36.5q3 12 3 25q0 32 -39 32q-28 0 -41 -12t-18 -37z" />
    <glyph glyph-name="uniF40D" unicode="&#xf40d;" 
d="M168 744l-64 76q76 85 167 85q30 0 56 -15l35 -19q33 -18 51 -18q19 0 46.5 18.5t46.5 40.5l65 -72q-85 -94 -171 -94q-25 0 -61 18l-35 19q-24 12 -45 12q-34 0 -91 -51z" />
    <glyph glyph-name="uniF40E" unicode="&#xf40e;" horiz-adv-x="228" 
d="M170 -209h-75q-36 0 -58 13.5t-22 40.5q0 7 2 17q4 22 20 41l79 97h97l-75 -91q-14 -17 -14 -26q0 -13 24 -13h39z" />
    <glyph glyph-name="uniF47E" unicode="&#xf47e;" horiz-adv-x="794" 
d="M397 174q62 0 97.5 29t49.5 95l86 402h226l-90 -420q-19 -89 -50.5 -146t-81.5 -88t-109 -42.5t-147 -11.5q-149 0 -231.5 53.5t-82.5 162.5q0 38 8 72l90 420h226l-86 -402q-5 -27 -5 -44q0 -80 100 -80zM634 766h-226l28 129h226z" />
    <glyph glyph-name="uniF47F" unicode="&#xf47f;" horiz-adv-x="650" 
d="M696 530l-89 -420q-23 -110 -134 -110h-254q-78 0 -125 41.5t-47 111.5q0 24 5 47l70 330h196l-60 -282q-5 -27 -5 -42q0 -36 22 -52t70 -16h32q23 0 33 8.5t15 31.5l75 352h196zM508 583h-196l25 117h196z" />
    <glyph glyph-name="uniF483" unicode="&#xf483;" horiz-adv-x="679" 
d="M630 0h-528q-119 0 -119 77q0 16 2 25q17 78 99 143l326 256q13 10 13 19q0 6 -16 6h-298l37 174h533q91 0 91 -72q0 -14 -3 -31q-9 -43 -26 -68t-60 -58l-348 -273q-13 -11 -13 -16q0 -8 10 -8h337zM501 978q54 0 78 -20.5t24 -61.5q0 -27 -4 -47q-10 -61 -41 -84.5
t-99 -23.5q-104 0 -104 82q0 21 5 46q10 61 41.5 85t99.5 24zM432 863q-3 -11 -3 -25q0 -31 40 -31q28 0 40 11.5t18 36.5q3 12 3 25q0 32 -39 32q-28 0 -41 -12t-18 -37z" />
    <glyph glyph-name="uniF484" unicode="&#xf484;" horiz-adv-x="556" 
d="M508 0h-430q-32 0 -54.5 25t-22.5 62q0 15 3 29q7 36 24.5 55.5t55.5 43.5l256 165q10 5 10 10q0 4 -9 4h-257l29 136h409q39 0 64.5 -23.5t25.5 -60.5q0 -15 -3 -27q-6 -28 -19.5 -48.5t-25 -29.5t-35.5 -24l-248 -160q-11 -7 -11 -11t9 -4h260zM396 807q102 0 102 -86
q0 -23 -4 -43q-13 -62 -42.5 -85t-97.5 -23q-104 0 -104 86q0 17 5 42q13 62 43.5 85.5t97.5 23.5zM327 690q-3 -10 -3 -23q0 -31 40 -31q28 0 40 12.5t18 37.5q3 12 3 23q0 32 -39 32q-49 0 -59 -51z" />
    <glyph glyph-name="uniF4C4" unicode="&#xf4c4;" horiz-adv-x="726" 
d="M221 -200l13 70h69q21 0 24 11q1 4 1 7q0 11 -21 11h-30q-30 0 -30 22q0 14 10 28l35 51h-80l112 526h-250l37 174h726l-37 -174h-250l-112 -526h-70l-16 -23q-4 -6 -4 -8q0 -4 7 -4h5q65 0 65 -62q0 -15 -4 -30q-12 -43 -37.5 -58t-79.5 -15h-83z" />
    <glyph glyph-name="uniF4C5" unicode="&#xf4c5;" horiz-adv-x="600" 
d="M164 -200l13 70h69q21 0 24 11q1 3 1 7q0 11 -21 11h-30q-30 0 -30 22q0 14 10 28l35 51h-62l83 390h-198l30 140h592l-30 -140h-198l-83 -390h-58l-16 -23q-4 -4 -4 -8t10 -4q67 0 67 -63q0 -7 -4 -29q-9 -44 -35 -58.5t-82 -14.5h-83z" />
    <glyph glyph-name="uniF4C8" unicode="&#xf4c8;" horiz-adv-x="658" 
d="M251 -200l13 70h69q21 0 24 11q1 4 1 7q0 11 -21 11h-30q-30 0 -30 22q0 14 10 28l35 51h-4q-264 0 -264 247q0 64 13 133q34 183 114 251.5t266 68.5h296l-37 -174h-180q-62 0 -95.5 -4.5t-61.5 -22t-43 -50t-27 -89.5q-11 -53 -11 -93q0 -56 36 -74.5t127 -18.5h190
l-37 -174h-206l-16 -23q-4 -6 -4 -8q0 -4 7 -4h5q65 0 65 -62q0 -15 -4 -30q-12 -43 -37.5 -58t-79.5 -15h-83z" />
    <glyph glyph-name="uniF4C9" unicode="&#xf4c9;" horiz-adv-x="551" 
d="M199 -200l13 70h69q21 0 24 11q1 3 1 7q0 11 -21 11h-30q-30 0 -30 22q0 14 10 28l35 51h-35q-190 0 -190 197q0 47 7 87q11 66 27 107.5t46 75t79.5 48.5t123.5 15h284l-30 -140h-194q-59 0 -91 -27.5t-45 -88.5q-6 -26 -6 -56q0 -78 89 -78h205l-30 -140h-164l-16 -23
q-4 -4 -4 -8t10 -4q67 0 67 -63q0 -7 -4 -29q-9 -44 -35 -58.5t-82 -14.5h-83z" />
    <glyph glyph-name="uniF4CC" unicode="&#xf4cc;" horiz-adv-x="751" 
d="M366 0h-256l155 199l-174 501h242l85 -312l208 312h256zM598 1007l84 -109l-226 -158l-84 108z" />
    <glyph glyph-name="uniF4CD" unicode="&#xf4cd;" horiz-adv-x="641" 
d="M744 530l-455 -701h-206l125 171l-135 530h190l72 -350l203 350h206zM535 837l74 -109l-226 -158l-74 108z" />
    <glyph glyph-name="uniF6BA" unicode="&#xf6ba;" horiz-adv-x="487" 
d="M41 275l34 158h427l-34 -158h-427z" />
    <glyph glyph-name="uniF6BB" unicode="&#xf6bb;" horiz-adv-x="660" 
d="M41 275l34 158h600l-34 -158h-600z" />
    <glyph glyph-name="uniF6BC" unicode="&#xf6bc;" horiz-adv-x="860" 
d="M41 275l34 158h800l-34 -158h-800z" />
    <glyph glyph-name="uniF6C3" unicode="&#xf6c3;" 
d="M175 -300l-111 44l117 229l125 -49z" />
    <glyph glyph-name="uniF6C9" unicode="&#xf6c9;" 
d="M403 1007l84 -109l-226 -158l-84 108z" />
    <glyph glyph-name="uniF6CA" unicode="&#xf6ca;" 
d="M500 966l55 -95l-184 -114q-29 -17 -54 -17q-27 0 -46 17l-134 130l75 79l91 -95q12 -12 26 -12t32 12z" />
    <glyph glyph-name="uniF6CB" unicode="&#xf6cb;" 
d="M550 766h-182l28 129h182zM283 766h-183l28 129h183z" />
    <glyph glyph-name="uniF6CE" unicode="&#xf6ce;" 
d="M298 997l158 -159l-100 -98l-158 158z" />
    <glyph glyph-name="uniF6CF" unicode="&#xf6cf;" 
d="M307 1003l89 -85l-202 -189l-88 84zM566 1003l89 -85l-202 -189l-88 84z" />
    <glyph glyph-name="uniF6D0" unicode="&#xf6d0;" 
d="M468 770h-289l24 110h289z" />
    <glyph glyph-name="uniF6D1" unicode="&#xf6d1;" 
d="M338 849q70 0 102 61h160q-24 -91 -91.5 -132.5t-182.5 -41.5q-103 0 -161.5 42.5t-58.5 131.5h160q7 -61 72 -61z" />
    <glyph glyph-name="uniF6D4" unicode="&#xf6d4;" 
d="M312 663q64 0 102 71h139q-24 -92 -85.5 -133t-167.5 -41q-199 0 -199 174h139q7 -71 72 -71z" />
    <glyph glyph-name="uniF6DE" unicode="&#xf6de;" horiz-adv-x="770" 
d="M46 189l25 158h695l-25 -158h-695z" />
    <glyph glyph-name="mu1" horiz-adv-x="670" 
d="M-6 -177l149 707h197l-63 -300q-4 -16 -4 -32q0 -64 70 -64q36 0 69 29.5t40 63.5l64 303h197l-112 -530h-187l15 73q-20 -38 -51 -58.5t-65 -20.5q-35 0 -56.5 19.5t-24.5 52.5l-52 -243h-186z" />
    <glyph glyph-name="afii10040.ss01" horiz-adv-x="868" 
d="M285 218q-2 -12 -2 -16q0 -28 36 -28h212l112 526h226l-112 -526h110l-37 -174h-708q-43 0 -66 23t-23 60q0 13 3 27l125 590h226z" />
    <glyph glyph-name="afii10069.ss01" horiz-adv-x="686" 
d="M-28 0l29 140h60l208 327q44 69 159 69q114 0 129 -69l70 -327h60l-30 -140h-685zM379 353l-126 -223h198l-32 223q-3 21 -15 21q-13 0 -25 -21z" />
    <glyph glyph-name="afii10021.ss01" horiz-adv-x="859" 
d="M-37 0l37 174h69l296 455q14 22 29.5 37t54 28.5t93.5 13.5q42 0 71 -7t43.5 -20t20.5 -24.5t10 -27.5l101 -455h70l-37 -174h-858zM493 488l-197 -314h286l-63 314q-5 18 -10 18q-6 0 -16 -18z" />
    <glyph glyph-name="hyphenminus" horiz-adv-x="487" 
d="M41 189l34 158h427l-34 -158h-427z" />
    <glyph glyph-name="afii10091.ss01" horiz-adv-x="931" 
d="M842 140h90l-30 -140h-783q-43 0 -66.5 20t-23.5 58q0 8 4 32l89 420h192l-74 -350q-2 -7 -2 -17q0 -23 33 -23h73l83 390h192l-83 -390h114l83 390h192z" />
    <glyph glyph-name="dotlessi1" horiz-adv-x="272" 
d="M9 0l113 530h196l-113 -530h-196z" />
    <glyph glyph-name="afii10088.ss01" horiz-adv-x="695" 
d="M606 140h90l-30 -140h-547q-43 0 -66.5 20t-23.5 58q0 8 4 32l89 420h196l-74 -350q-2 -7 -2 -17q0 -23 33 -23h135l83 390h196z" />
    <glyph glyph-name="afii10043.ss01" horiz-adv-x="1192" 
d="M285 218q-2 -12 -2 -16q0 -28 36 -28h133l112 526h226l-112 -526h177l112 526h226l-112 -526h110l-37 -174h-1032q-43 0 -66 23t-23 60q0 13 3 27l125 590h226z" />
    </font>
</defs>
</svg>
